<mxfile host="app.diagrams.net" agent="Mozilla/5.0 (Windows NT 10.0; Win64; x64) AppleWebKit/537.36 (KHTML, like Gecko) Chrome/127.0.0.0 Safari/537.36" version="24.7.7">
  <diagram name="Page-1" id="oltiorCCrCmBgb7-VcKI">
    <mxGraphModel dx="1434" dy="772" grid="1" gridSize="10" guides="1" tooltips="1" connect="1" arrows="1" fold="1" page="1" pageScale="1" pageWidth="850" pageHeight="1100" background="none" math="0" shadow="0">
      <root>
        <mxCell id="0" />
        <mxCell id="1" parent="0" />
        <mxCell id="fSu_uZtvP68bl21nm0Wx-1" value="" style="shape=image;imageAspect=0;aspect=fixed;verticalLabelPosition=bottom;verticalAlign=top;image=data:image/jpeg,/9j/4AAQSkZJRgABAQAAAQABAAD/4gHYSUNDX1BST0ZJTEUAAQEAAAHIAAAAAAQwAABtbnRyUkdCIFhZWiAH4AABAAEAAAAAAABhY3NwAAAAAAAAAAAAAAAAAAAAAAAAAAAAAAAAAAAAAQAA9tYAAQAAAADTLQAAAAAAAAAAAAAAAAAAAAAAAAAAAAAAAAAAAAAAAAAAAAAAAAAAAAAAAAAAAAAAAAAAAAlkZXNjAAAA8AAAACRyWFlaAAABFAAAABRnWFlaAAABKAAAABRiWFlaAAABPAAAABR3dHB0AAABUAAAABRyVFJDAAABZAAAAChnVFJDAAABZAAAAChiVFJDAAABZAAAAChjcHJ0AAABjAAAADxtbHVjAAAAAAAAAAEAAAAMZW5VUwAAAAgAAAAcAHMAUgBHAEJYWVogAAAAAAAAb6IAADj1AAADkFhZWiAAAAAAAABimQAAt4UAABjaWFlaIAAAAAAAACSgAAAPhAAAts9YWVogAAAAAAAA9tYAAQAAAADTLXBhcmEAAAAAAAQAAAACZmYAAPKnAAANWQAAE9AAAApbAAAAAAAAAABtbHVjAAAAAAAAAAEAAAAMZW5VUwAAACAAAAAcAEcAbwBvAGcAbABlACAASQBuAGMALgAgADIAMAAxADb/2wBDAAEBAQEBAQEBAQEBAQEBAQEBAQEBAQEBAQEBAQEBAQEBAQEBAQEBAQEBAQEBAQEBAQEBAQEBAQEBAQEBAQEBAQH/2wBDAQEBAQEBAQEBAQEBAQEBAQEBAQEBAQEBAQEBAQEBAQEBAQEBAQEBAQEBAQEBAQEBAQEBAQEBAQEBAQEBAQEBAQH/wAARCAIzAtkDAREAAhEBAxEB/8QAHgABAAICAwEBAQAAAAAAAAAAAAgJBgoDBAcCBQH/xABWEAABAwQBAAMFDxIGAgEEAwEAAwQFAQIGBwgJERMSGFi11BQXGSE3U1Zyk5WXsrPR1xUzNDU2ODlXc3R1dnh5kZaYuBYiIzFB1TKZUQokYYElQlKC/8QAHQEBAAIDAQEBAQAAAAAAAAAAAAcIAwkKBgIEBf/EAEgRAQAAAgUECw0IAgEFAQAAAAACAwEEBQYHCBc2czM3VXJ0lbKztLXUERgyNDhWdneUsbbT1RIZIVRXkZakEzEUIiVEYXFB/9oADAMBAAIRAxEAPwDf4AAAAAAAAAAAAAAAAAAAAAAAAAAAAAAAAAAAAAAAAAAAAAAAAAAAAAAAAAAAAAAAAAAAAAAAAAAAAAAAAAAAAAAAAAAAAAAAAAAAAAAAAAAAAAAAAAAAAAAAAAAAAAAAAAAAAAAAAAAAAAAQJ0j0l3ELkLyV2zxH1psN8+3rpW1K7OMSmMZm8fsTtUVUSuug5OWatmOQ2oXJVq6uiVXNG9t6dytbbVLK1D2pnyq0y+5MS3EZtOyd274TA22yZCAugJayLTxN3c2tQeWZFc2pDquLrnaFKsrHVXVvdVrVOnc16gkYAAAAIT6i5r4vt3ljyD4oR2ET0PkHH2PxaQmMteyMevD5DZlMc3kW6caxQto9a3NbHFqa1XV11L77a1s9KtAJsAAAAABwuF02rddytXuUm6Kq6t3+/cpo2XKX16v+eq22tQKs+InSaPeaWzZeM1Dxb2spx4YTWTY/Hco5iYhI7Bp+Txl2mzWsisadNkMiXbPL77r2zyyt7etlnX3d3dUAmRyk5Uab4caoW3Vveck8ewBDLcJwlSSiYCVyR5TIdhZLH4ljDakZDN3T2qLublGbdd1RLsGaSlzhzeminffQPfIyRay8bHyzG+5RlJsmsgzUvsuTvvavUE3KF9yd9KXp3XJKWVusupS62ta23UpWlQO8AAAAAAAAA6kg6vZMHr1Nss8UaNHLqxo3p3S7q9ujera2QtpStarL3WUSTpSleu+62nVX/YDwbjBvCf5D6kitm5LprYehpWSk5iPV11tBjfHZdHpxbrzMk+dtVGrO+1rJW/8A3DO6qFvdpenSt3+4EhAAFQGwunD4M652nsXTry3kbluaapnrsZzlPWvF/dexYaFmrarUoyVnsSxKTi1FFKIK3Jdw4rRSyy6+zrtpWoE4+K3LTVvMPApHY2pozZ0Vj8XOr465b7V1Zm+pZ+5+3bouVFG2P53EQ0q5YVTXsonIItr2qilFE7FK32XUoEnAAETubPLDH+FHHfNuQ+T4lM5vDYVYwvdY7AvmUdJvqP3zdjZRB3IW3tU+zvcUUu7S2vXbbWlPTrQD37XWZttiYJiOdsmS8c0y7H4yfbsHSiarhmjJtU3VjdZVKlElFErVKWX3p0pbdWla09IDMwIQ8sukU4l8KVoCM3zsxKJyvKu0rjWvsXipDNdjzySVaWqOInBcbRf5K/bWXVpZcu1jlUrb7qW1upWtKAYRxz6U3h9ynlcnxXU+aZAjsHFsck8od6z2RhmR6r2A7iYtqq7cO2OJ5wwiJt02tsS/zukWSiCVLrb1LqWgercJ+X2Oc19QvtvYvh83hEcxzrLcGvh55+wkXqjvEpGsc4f2uI+2xCjd3fTtEUq07RO30r61qBL8AAAAAAAAAAAAAAAAAAAAAAAAAAAAAAAAAAAAAAAAAAAAAAAAAAAAAAAAAAAAAAGiOhrDJtU8kOX/AEkupGbxXPeK/M9612XHxtL6L5Zo/JYmHQypi6vsrWtU4arZJ43pcirbSrhate5/5C4fSOzsZ2702+TbUwaUbymN5pwAxTJ4OSZqUVRUbyLTHXiVyalKdVbkrr+5r6VOq6yvXSn+wEseiS3ntzdugd55NtfPp/Op7Hd9blxuElJ1dJd1GwUDPSLaHi21ySKNtrWPQSTSb21tuuttsp3V11fTAqBkOb3MhXoSZTfUJvnNKb/v5EoYfD7Fdu2ykvbHL55fEs4hypa1sTvi7kapNXCNqdql7XurKK23V7qgZdyyyrpQOCEPxM5DMeZk1uvJ+SmeYdqPMdJ51jybTUuH5Hs9GPiYSexls0lV5HsMbl5pq4WaOFu6k02d9aOGVV6WpBILIMg5v8CecPClhtLmDmPJHWnMWayfA851zmMO3i4PAMwZtYORj5PArmz96q3jKVknzT6nvO2vom2Rvo7rW6ttAjvE6Z5Nb76aTn3r7S3Imd4yYVTCtZTOZ7AwWJRkNhP5JDHoxtGQEK6dvmrOKZKWrWvnjtRB/ffRtVra3t7ft0g9i0/0knIHhxhXSVaS5VZp3wOyuBWPJ5zgm0HzSsPJ7GxDJ8eslMWZ5UjYtIW0lkJROQZPJBvdcmoikl3DOlba9YVrSnSQ53G6Na8rozpiJ3KOSrZrFZ274jRurMtrpOYTcv2t8rrGMaeZ739jhvGOHFrKfrIK2XOWlndRvcKf5Asl5k8ruaO4d39E5jPFvbspom7mBqt5k+xohePvkoqPYzeGPpiYkXUKrdGOXU/iTS9Z5BWXu2Vicqwa1cW9xS60C+fi3pPP9Da3WwzZO/NgcjMkcT76bUz/AGPa0snbEHrdmnbCoJs61STjGSrZZZonW6+9PzUpbdfd1UrUKluTmxeWPL7pJsi4CcfeRGQ8UdaaE09j21twbHwKORf7Ey2YzNvDuccxuCeu3bZnCsEGs8i5eqqtpK9erO622xLtKVsDzbjjnnLqU3Pzb6K7kFyczacynX2tsf2dpDlbizdtAbYkcFzNvPRyrKdRXUlY+2bhJbHpS21+gpck8bKt+tq2usr3Qecf/TEce89xfh1hm7ZTkruLL8QyBHOsaZ6In5GNV1jj8ndkEQ6/xbFM0WSb+ydokwWadqq6vS7CQd07jrutrQJW/wD1G34NOT/ab4if3BYMB4Jzt2pzQec+ujc4scY+QEzpXEt36L2OtstduxsmI9nHQLXVViGVtYWriPue5JC/VVdtD1vk2qCNkq9UU7StLbKh5hjnoleH9IPmfRgs+cGX5nrnNNWMt4I8ks0gm8hu3XOOtKRjaSxrFvM0k0i1VpHIHyMahIuO4oxYr3OatHV6NG6oS+6Mzc/JPE+XHO/gLyI3rM78s47xevNjaz3Vm7VFtmTzFdmNZdldE5HYg5vZrf4fk8YkHCKqSiFFUHVvdWp1p10Crblzy+dcY4jONp4T05eR7V3zrKWtmnOgL8Gk1dOZbayl29kxg9WUZfJIw997G91Yyf0yeSTRWQTtURusUrdaFjfL7mbyQ3xG9G7xz4s59bozZfPLC8c2bnu02DGsjM611+lg8fmmVqYe1vctEl5qlLZZgxq5XTStrYipd3Xp2VDxaRf8/wDh90o3AXjTnvMzPt98etysNnyqrrKWLWOy2fk8apiCcpF5y5buHbaZjmNZZmrjtWiMco0q5lbF6L0VTusCOW1uk0j+THKTlHieYdJnlHALXnHfZE3p/X+BawxCcmMqzTI8RcOonIcszHIW7J4wWiaz8c8SaQjdkgvczUStvkLbrK1qGd666U7l7mPRd8ustwCdU25uzjdsOS1/je/IjCJ1FLNNarR8TIMtsI4u/UayD6Yi05J8g9ZoOqWLrxtLk1baX9xaE0ujWeWbLz3E9gYR0wewuWrRrE3udgaVz6JYsquXTtlW29NhDOHsdKYypGv1LL6p0RyC2yxK5vVWtLu3tC+PKXK7PGcjdtVbkHLWCl3LdayvVeiuhHuFUVbK166UuTUttvtr1V6q0oBqS5rzX5mWdCDr7fGJb3zBvyGneRX+DkNivHTdSUeR62WXRzOIkr7G1li0XVOqaCyNiad96HXbRSla91QJA7wkukD4DbD4gcgNgcz8t3hjm89y4DrDdmjshgm8brjGabOeNYjzRgKSMm8fMaY3JySdrWrxRzV0i1pfd2F1/cWhs5pqWqppq2V67FLLVLK//Nt9tLra/wD7pWgGofxC2nziwLmH0orLizw31NySxt7yajF8jyDYO7XWr30BKJsMjsaRrGNb6i2HbIt3KFyyyjq5+xqlejYnRup3Xd2hegnm/I3KOHuxZ/fyeuujz2PY1lLKZZjOW+ezj+FxiaFLrMoo+eY7qyrp6nTtK2M6NLLrbrLa2rK9fcAUBxnSEV40cleO/nUdK/lXPLGtm7OjNbbR1BsLFpdFJi0mqX2WZPhWQ1ZsWEZ5he2WI1YKJyfaJLU7lz/l7q4LH957G5c83OkI2Pwt498iZzihqTjdhMNk+2M+waLSkNj5bkGRVaUi4WCfOnrZlFMErHqSrm9Zq9vrSy+ttvp9QHmPSr6Q3loHof8Ak/i2xeR+U8nsjrWMfYplew4ZvFz7Sy+YjaMoqWes5F8lJppubKVudJtmVe4Uup5n9KnWHhuXw3SEcLeNXF7m1Lc2stzSE+rOn4PZnG5xjjdlqZth+duY+GsiMeTpLuZBGShqurKWTC6iljq5PtPqe37ruKBtUwErZPQMJOJWVSSmYiNlU0617qqdkizReWWVu6re6rZatS2teqnX1dfVT/YDXG6KLEse5E8+ek05HbdjWeYbJ1xu1jpbA151BKRtxPBYdk8XsaRrV5ask1q9XtsXuWRtTrf2fp91/wABfPnurdc2MMjzpLCMZb5jD4TlzONyRrEM2ss1av4N4k7b2O26SV9yS6dKWX2Kd3Tq/wDHqr6YFCnRtPHrHopNvOGHISP4uLp7z3JffuqQjE5izD2yeV926dt49SUh6Lur29FEkK2vO6TUutUokt3PZ3BELAekNW4+cxeM+I6q6UrKOfWBbwzvzt9ia42LjEu2d4w6fp2Vi8nxDJFGcexSbWvLr0Vo69q7uuRpbWx5X/eoSC5b8mNp5H0hOztDbv567G6OvUeKwGOKaSXwmCUbM9tvZNOtXklJ5k5sdxydEFuq36mXskeunXS96n/uB7/z53TyR4scD9JK685STuxGuWbIjsf2fzEh8Stn8hxDWkmqhfTLEoqImXaSrxmiooirIWu7re6sqvczsrTsgJBdGozRnZeXzfC+lFzPnPgruITRc4tnKLBxKQUlf3N1H7dZNxHyEclS7urbmbiFVpSlaWeaq9z13BccAAAAAAAAAAAAAAAAAAAAAAAAAAAAAAAAAAAAAAAAAAAAAAAAAAAAAAAAAApp4McLdmYNk3SFxW/cDZR+CckNxTsziibmXxyfb5LhsvAt46544YxcjIqMf9a27qZyqDVzS5O26qFKdVQK+eik6MTmbw26SPeeTbWgrJfifD6yntZ8e9gLZhi0m+Xw9SbYOcdxlzjrWbc5PHWxsaio3sufRTdsnYlSyilOu2lQ9O1FpDpT+GmRcj+O2iuP+A7J1BuXZmZZ5rnkPKbGxOFZa5sz65R1IN8iw59kTLLJG+HfLrKofU3HZFNe3qt677aUoB4pinRpc22XQ4QXFbINZMF+QzfkBjmdy+Mtc1wejJaFZZ0hNycw3na5DbA0TqztVdpsrpG19dbWiNG3b/6YFkHSccTN8ciNZcI8d1HhiWTy+n+SejtgbBa35DjkNSExTDp7GXuQyVi03Kx6ElcxbR7tSjOMUdvXNUu5at1rr7KXB+90h/Fnd+9uS3Rv7C1hiCeRYnoHdU1l21ZK+ex+KuxuAeRsO3bvrGcvJsXsvW9ZovZ5nhm79zb3HdXI223W1qEJ8i0N0nfHTpNuWPMbj5x7xbdeodqYrhOMRuCSuyMGxabypzGQ7FNeehF5bJ4lOMXiXjS1ku3yNzGJuWqiyzOxe+idahkWkOix3dyEwTpAdnc4msBrfefPuHpit+E4lLMsjYaixGDgU4bE2a0rFuH8VIy7R3R3Jur4x6/Z31c207dRTtLaB+fpSN6Vfj5gWJ8eJbo4tB7xdYEzY4lF8jGuwtVweI5NDR1bWjbJJ3GJXKInOGz9RpZau5aM8ZrTtaVtsTu/2qEr92cXuQ+w+fXRr7/ba/g0sL0bguwmW6X8BPQLOGw2fybCZ2NbR0LEyEi0m5aNrLSCLRopFxzuiLe6xRx2VlilbQuSAot5R8c+aWgefcr0gXCrVmM8ik9u6qhdTbu0nNZhAYNPXW4slFJYzlWKzWVS+PY/de1QhGbV6g7mUFrk11uxRUpTrA/V4F8QuUznkfyh59cycexrX+4984fAa1wHSWMz0dkrbV+v8SQl3DBpIZHFu5CJkJmZl5+Wcvb2cs+apJqIWWr0pbdbaHq3Qo8Yt08Q+A+vNJ7+xNPCtkwU/lT6UgEp2AyOxs2knyazNSkpjUlLRStVU6Vurai9Uus6uq+lteqgHL00nGXdHLfhA+09oTE0802CtvPjpmScIrOQOPWXY7gW4MVyrKX31SySSioylY6DjXjy1tV3R07ql5nZoruL00rgwDa3EnfWS9Jp0fvIaGwtJ3qXR+gtr4TszJq5DjaF+P5Lk1dTVho+yHXlU5qVo7/wxNUq6iY960Q8yU7dZOi7eqoZwjxh3VZ0x73lddiSdNFLcSFdXp5j9XYCqtc2uyvGpOkR/h/6p/4ipbVlHu1fN1YujD/S7jzT2l6dtweMYnwd5BPOkP6SvbkrEq4Vqjkvxz1PrXVuyWOSQSr5xksAvsD6udxERsotkcTdF2Tkapa6kY5mg47etGiq1yStLAq0YcHulDx3o9sm6OfCOB3H/EZSJwR1hanKdrmmrL79nN4xRFWyejIm3IL8mb5ll9WtiT57l8RGNkE3bpZZ2k4tSrUJ7bp4I8vMa0x0Z+++O2K41K8teDmt8KxTKtO5LksLHsc/gV8EjMYzrBmuVXyFuONXiNt0wm2k6TCDJRS+xRJ/VKtt4ERcszLmVufpoejWnOUWscT0i9hMS3XIY7o/HMwgs8ynFIhJbXiOQ5bmstiktkEIiynnC8ShA2pTC91tI2R7RJGt3+oEo6cUeaXAjkVyPyrjJxP1nzT0Pyc2RJbiUgpfKsAw3Yess9yFZd9kqFzvYc5jEZI4/ISr6QeppsZJ6vZYsn/oWKW1ttCeOJ5j0hMVxiy3NWvDnRWK7+VzGtce0FGZxDIxMpgVGbLuvq9lUfLVx2zKl3VX6VtiM1fF2o2ta3r21uU6grh1hwv5bcgOkF46csc94R6r4AxGi18nlM8nsPy3W8vnO61JyGdxSOPvr9VZDkKL+JSdPLJS5TKF0VLLmSfZ/wCrd3FQ2TslZuJDHJ9g0s7V0+hJVm2S7qyztHDlguijZ3d91tlndqX2291fdbZb19d11KUrUDWFddG/zCU6IzVHF2zVqFd24zySY7AmcR/xpg9E2mKI5hbKqSVJ2uRUgF7rWNKreZEJNR5WtOzohVTqtAsj6VDi7u3kngPGKF07iKeUyWu+Sultg5c3UnsfhPqXieI5fDys/J2qzknHJPbmTFqutRmxvcPXFbOzbN1lLrbahbSyTvSZtElKdyom2QTvt66V7m+xK226nXStaV6q0rTrpWtK/wDFeoDWn0vBdJ5wk5Mc6p3XHR5yvIHXvIrdzPYuIZjFb00HitlIuPazLSyxeIyzaePTDdRxSRsVtscx6d9tLa230tu66Ae/cvNQc3Oko4EbAwDOuNaHGfcUVnEDkWMaszPY+v8AMYbZUTirtnL0hpWZwHLcrgWsdkSia0Wu2lpFtbS2lb3KdiN1L6hBbd/FbpNuUzXifB14I6c4xYDoTcuA5PlMBjGcalc5PkbPH7LWzmbjHePZO9i2+ONkLFVVYtR83mnLhdK5ONVpZfdYE8OQfHLm5xi5yZpzf4RauxXkVC72w+LxHdulZzL4DCMitewVze+IyPGJrK5fH4G3sqNEE10VZlBVSzurapXW/wC4drmDrznxzn6OTdWus34z47q7duVyEWhhurI3ZOHTDteKYy0c7ucTGT0yl3iLd3VNNxdVNCdqn1J0pb/mupSoeoc8eK28d09G3hHH/XGHpT21oeX0Q6kMbvn8ejE0EMLyGJf5HfSXlJRnDKeYGrVZS21J/fc5rZ3DWi191ttQtaweOeQ+F4hESCXYP4rF8fjnyFL7FKIvGMS0bOUu0SuvTU7NZK+zu077rL+rurLrra0rUKLdgcRea/Cbl1trlbwGwnEN8a55GXx8jujjjkOUxWEzKeZRdiqKGZYlP5DIwcFc4dNVlUXTeRnG9O7rbWxKttK1oErdGbB6S/d+TZIrv7jfr/jHqSzCMojm+HuM9xfPtkZXkslEuGkT1SWHT2U4zFRzVypRRW66ZaKqW3dSll1tK0oFXDzouOWmSdF7I6DcYZjrLcON8msn3THatybJ8ef4zsjHbctQm43HJqTi5R9A2NJ1qhWy9tJvUrEa30teWJenQDF9s8Vukv5S7U4TZLJcHdQcW9Y8eN145lOWYhiWbaod5I/j2aaTd7M2OMcyV9E/4dZJJ92zjGT6s0orWnXG1t9MCwTm7Ic6s7yTPdUpdGPpTl5paVavo7BcvyXO9UpVjk5Fnc3seZJjuzMqiXKCrJZWq1ykHHLrf6dtyPdKUtAwrjhx9528BuAmu9Waz0XrbkbsF3nOXTmfaWkM4jITHcRwzJ3FX7LE8MlcmlomAdfUi5S5jc1dyFsZ2dlOwuvTrSoGGcF+FfI9bpApjm3sTivrfghh9msZDBX2m9fZBg8m92ZOySqN9uV5WlrCWm8VWcx1yV97dy8e3P7qrXel19YGxAAAAAAAAAAAAAAAAAAAAAAAAAAAAAAAAAAAAAAw9fYWCNXC7RzmWMN3TVW5By3Xm45JZBazq7pJVK9xbenfb1067bqUrTr/ANgOLzydfezfFPf+L8pAeeTr72b4p7/xflIDzydfezfFPf8Ai/KQHnk6+9m+Ke/8X5SA88nX3s3xT3/i/KQHnk6+9m+Ke/8AF+UgPPJ197N8U9/4vykB55OvvZvinv8AxflIDzydfezfFPf+L8pAeeTr72b4p7/xflIDzydfezfFPf8Ai/KQHnk6+9m+Ke/8X5SA88nX3s3xT3/i/KQHnk6+9m+Ke/8AF+UgPPJ197N8U9/4vykB55OvvZvinv8AxflIDzydfezfFPf+L8pAeeTr72b4p7/xflIDzydfezfFPf8Ai/KQHnk6+9m+Ke/8X5SA88nX3s3xT3/i/KQHnk6+9m+Ke/8AF+UgPPJ197N8U9/4vykB55OvvZvinv8AxflIDzydfezfFPf+L8pAeeTr72b4p7/xflIDzydfezfFPf8Ai/KQHnk6+9m+Ke/8X5SA88nX3s3xT3/i/KQHnk6+9m+Ke/8AF+UgPPJ197N8U9/4vykB55OvvZvinv8AxflIDzydfezfFPf+L8pAeeTr72b4p7/xflIDzydfezfFPf8Ai/KQHnk6+9m+Ke/8X5SBFzlhpzS3LfXrTAMl3zlmsPqdMM52Ly/Tmx4DFMvjZBiukujcg+kWE9HLIXXo2WrNnsW6QVTrdZdZ1XVAjrxD6Prh9xE2dke8I7c2b7y3fkkNbjau2t+7OxnMMvisb7bzQtBQf1ChsUg4xg6XtRVc0QhvNCt7dD/XtpZWlwWW+eTr72b4p7/xflIDzydfezfFPf8Ai/KQHnk6+9m+Ke/8X5SA88nX3s3xT3/i/KQHnk6+9m+Ke/8AF+UgPPJ197N8U9/4vykB55OvvZvinv8AxflIDzydfezfFPf+L8pAeeTr72b4p7/xflIDzydfezfFPf8Ai/KQHnk6+9m+Ke/8X5SA88nX3s3xT3/i/KQHnk6+9m+Ke/8AF+UgPPJ197N8U9/4vykB55OvvZvinv8AxflIDzydfezfFPf+L8pAeeTr72b4p7/xflIDzydfezfFPf8Ai/KQHnk6+9m+Ke/8X5SA88nX3s3xT3/i/KQHnk6+9m+Ke/8AF+UgPPJ197N8U9/4vykB55OvvZvinv8AxflIDzydfezfFPf+L8pAeeTr72b4p7/xflIDzydfezfFPf8Ai/KQHnk6+9m+Ke/8X5SA88nX3s3xT3/i/KQHnk6+9m+Ke/8AF+UgPPJ197N8U9/4vykB55OvvZvinv8AxflIDzydfezfFPf+L8pAeeTr72b4p7/xflIDzydfezfFPf8Ai/KQHnk6+9m+Ke/8X5SA88nX3s3xT3/i/KQHnk6+9m+Ke/8AF+UgPPJ197N8U9/4vykD9KJzDFJ51exhMkg5d4mjVyo1jZNm9XTQpfanVa9JuspfanS++2zu7qUt7q6lOvrrQDIwAAAAAAAAAAAAAAPhX001Ov8A/wAX/FqBro8HejZ4G8m3fMHZnIDijpPbufKc1d3Qt+W53g0NkE5dExtmMVYR9X79ssv5laVcL1QRpd3Cfa39zSndVAnd6Cn0T3gA8YPgpxjyEB6Cn0T3gA8YPgpxjyEB6Cn0T3gA8YPgpxjyEB6Cn0T3gA8YPgpxjyEB6Cn0T3gA8YPgpxjyEB6Cn0T3gA8YPgpxjyEB6Cn0T3gA8YPgpxjyEB6Cn0T3gA8YPgpxjyEB6Cn0T3gA8YPgpxjyEB6Cn0T3gA8YPgpxjyEB6Cn0T3gA8YPgpxjyEB6Cn0T3gA8YPgpxjyEB6Cn0T3gA8YPgpxjyEB6Cn0T3gA8YPgpxjyEB6Cn0T3gA8YPgpxjyEB6Cn0T3gA8YPgpxjyEB6Cn0T3gA8YPgpxjyEB6Cn0T3gA8YPgpxjyEB6Cn0T3gA8YPgpxjyEB6Cn0T3gA8YPgpxjyEB6Cn0T3gA8YPgpxjyEB6Cn0T3gA8YPgpxjyEB6Cn0T3gA8YPgpxjyEB6Cn0T3gA8YPgpxjyEB6Cn0T3gA8YPgpxjyEB6Cn0T3gA8YPgpxjyEB6Cn0T3gA8YPgpxjyEB6Cn0T3gA8YPgpxjyEB6Cn0T3gA8YPgpxjyEB6Cn0T3gA8YPgpxjyEB6Cn0T3gA8YPgpxjyEB6Cn0T3gA8YPgpxjyEB6Cn0T3gA8YPgpxjyEB6Cn0T3gA8YPgpxjyEB6Cn0T3gA8YPgpxjyEB6Cn0T3gA8YPgpxjyEB6Cn0T3gA8YPgpxjyEB6Cn0T3gA8YPgpxjyEB6Cn0T3gA8YPgpxjyEB6Cn0T3gA8YPgpxjyEB6Cn0T3gA8YPgpxjyEB6Cn0T3gA8YPgpxjyEB6Cn0T3gA8YPgpxjyEB6Cn0T3gA8YPgpxjyEB6Cn0T3gA8YPgpxjyEB6Cn0T3gA8YPgpxjyEB6Cn0T3gA8YPgpxjyEB6Cn0T3gA8YPgpxjyEB6Cn0T3gA8YPgpxjyEB6Cn0T3gA8YPgpxjyEB6Cn0T3gA8YPgpxjyEB6Cn0T3gA8YPgpxjyEB6Cn0T3gA8YPgpxjyEB6Cn0T3gA8YPgpxjyEB6Cn0T3gA8YPgpxjyEB6Cn0T3gA8YPgpxjyEB6Cn0T3gA8YPgpxjyEB6Cn0T3gA8YPgpxjyEB6Cn0T3gA8YPgpxjyEB6Cn0T3gA8YPgpxjyEB6Cn0T3gA8YPgpxjyEB6Cn0T3gA8YPgpxjyEB6Cn0T3gA8YPgpxjyEB6Cn0T3gA8YPgpxjyEB6Cn0T3gA8YPgpxjyEB6Cn0T3gA8YPgpxjyEB6Cn0T3gA8YPgpxjyEB6Cn0T3gA8YPgpxjyEB6Cn0T3gA8YPgpxjyEB6Cn0T3gA8YPgpxjyEB6Cn0T3gA8YPgpxjyEB6Cn0T3gA8YPgpxjyEB6Cn0T3gA8YPgpxjyEB6Cn0T3gA8YPgpxjyEB6Cn0T3gA8YPgpxjyEB6Cn0T3gA8YPgpxjyECMOi+InGXiT0xMTjXGnSOu9JwGT9H3mk7kERrvG4/Go+XmWe+sEYNZJ+2jkkUnDxBmpe2TXUtuUsRvuTpdS2vUBfCAAAAAAAAAAAAAAB8KfW1PaXfFqBVf0VH3I8vv26d+fJ4kBamAAAAAAAAAAAAAAAAAAAAAAAAAAAAAAAAAAAAAAAAAAAAAAAAAAAAAAAAAAAAAAAAAAAAAAAAAAAAAAAAAAAAAAAAKq5b8NLhf7uXPf7hcBAtUAAAAAAAAAAAAAAA+FPrantLvi1Aqv6Kj7keX37dO/Pk8SAtTAAY9lGV47hUK6yLKpVtCwjKqdHUi77TsEKrX0TT7vsk1L/8991LadVlfTr6fUeYvhfO69wLArl6L5W1VLv3fs+mVRXLUr3+X/jVemdMolSqI/8ADLmzP+uZFRDR9mCn8afx7lH4v69hWBbF5rSkWPYNQnWnadZojpkVOr/Y/wAs2iXDTHH9n/JHBD/0w0UxU92Kj8KPweQd9Rx7/Gpjf8ZDyEg3vycmH9ZLqfvaf09ImYjF7zEtn+n2o76jj3+NTG/4yHkI78nJh/WS6n72n9PMxGL3mJbP9PtR31HHv8amN/xkPIR35OTD+sl1P3tP6eZiMXvMS2f6fajvqOPf41Mb/jIeQjvycmH9ZLqfvaf08zEYveYls/0+1HfUce/xqY3/ABkPIR35OTD+sl1P3tP6eZiMXvMS2f6fajvqOPf41Mb/AIyHkI78nJh/WS6n72n9PMxGL3mJbP8AT7Ud9Rx7/Gpjf8ZDyEd+Tkw/rJdT97T+nmYjF7zEtn+n2o76jj3+NTG/4yHkI78nJh/WS6n72n9PMxGL3mJbP9PtR31HHv8AGpjf8ZDyEd+Tkw/rJdT97T+nmYjF7zEtn+n2o76jj3+NTG/4yHkI78nJh/WS6n72n9PMxGL3mJbP9PtR31HHv8amN/xkPIR35OTD+sl1P3tP6eZiMXvMS2f6fajvqOPf41Mb/jIeQjvycmH9ZLqfvaf08zEYveYls/0+1HfUce/xqY3/ABkPIR35OTD+sl1P3tP6eZiMXvMS2f6fajvqOPf41Mb/AIyHkI78nJh/WS6n72n9PMxGL3mJbP8AT7Ud9Rx7/Gpjf8ZDyEd+Tkw/rJdT97T+nmYjF7zEtn+n2o76jj3+NTG/4yHkI78nJh/WS6n72n9PMxGL3mJbP9PtR31HHv8AGpjf8ZDyEd+Tkw/rJdT97T+nmYjF7zEtn+n2o76jj3+NTG/4yHkI78nJh/WS6n72n9PMxGL3mJbP9PtR31HHv8amN/xkPIR35OTD+sl1P3tP6eZiMXvMS2f6fajvqOPf41Mb/jIeQjvycmH9ZLqfvaf08zEYveYls/0+1HfUce/xqY3/ABkPIR35OTD+sl1P3tP6eZiMXvMS2f6fajvqOPf41Mb/AIyHkI78nJh/WS6n72n9PMxGL3mJbP8AT7Ud9Rx7/Gpjf8ZDyEd+Tkw/rJdT97T+nmYjF7zEtn+n2o76jj3+NTG/4yHkI78nJh/WS6n72n9PMxGL3mJbP9PtR31HHv8AGpjf8ZDyEd+Tkw/rJdT97T+nmYjF7zEtn+n2o76jj3+NTG/4yHkI78nJh/WS6n72n9PMxGL3mJbP9PtR31HHv8amN/xkPIR35OTD+sl1P3tP6eZiMXvMS2f6fajvqOPf41Mb/jIeQjvycmH9ZLqfvaf08zEYveYls/0+1HfUce/xqY3/ABkPIR35OTD+sl1P3tP6eZiMXvMS2f6fajvqOPf41Mb/AIyHkI78nJh/WS6n72n9PMxGL3mJbP8AT7U7cfyZ0PKv2UZH7Mx52/kXbZgxapeb+0cvHa1jdsgn3TO23u1llLE7e6upTurqddaU9M/dZmVtk32zaVn2RZeLd2K7aVq12q2dZ9TlU2j/AJa1Xq7Pgq1Vq0v7VQhh/wAk+fNly4PtRQw/aio7tNFHdpfnreCWKtQqlZr1cuTa8iqVOrzq1Wp8f/E+xJq9XlxTp02P7NZpp+zLlwRRxdyimnuQ09yil7qWLRYAAAAAAAAAAAAAAAAAAAAAAAAAAAAAAAAAAAAAAAAAAAAAAABVXLfhpcL/AHcue/3C4CBaoAAAAAAAAAAAAAAB8KfW1PaXfFqBVf0VH3I8vv26d+fJ4kBamAAixzO+96zT28T4xQKb5e/kxX91ljdZSU75Nm29dveWh0OaoWObdtZAAAAAAAAAAAAAAAAAAAAAAAAAAAAAAAAAAzvVvqma7/XnE/HzAkfB3bbwu9Ydy/iOzXlr86E3w9FrwdU1tsqnWS0sAAAAAAAPB+Ruc5JrzWrzI8VeJMZZGSi2ybhZo1e2UScu00lreweJLI1rdZdWlLq2Vrb19dtaV9M9hceyKjbVuy6laMqKdVopE+OmCGbMlU0xQS4ooaftyooI/wAKaO73KIu5T/8AvdR3iheC1Ls3Vn2pY8+Cr12XWqpKhmRyZM+GiCdPhgjoplzoI4Ke7DTTRRT9nu0f7opV6d9xvT2UMP5bx/8A64mfNxdLc6b7dXfnq0Z6cQd1qtxXZ3ZjvuN6eyhh/LeP/wDXDNxdLc6b7dXfnmenEHdarcV2d2Y77jensoYfy3j/AP1wzcXS3Om+3V355npxB3Wq3FdndmO+43p7KGH8t4//ANcM3F0tzpvt1d+eZ6cQd1qtxXZ3ZjvuN6eyhh/LeP8A/XDNxdLc6b7dXfnmenEHdarcV2d2Y77jensoYfy3j/8A1wzcXS3Om+3V355npxB3Wq3FdndmO+43p7KGH8t4/wD9cM3F0tzpvt1d+eZ6cQd1qtxXZ3ZjvuN6eyhh/LeP/wDXDNxdLc6b7dXfnmenEHdarcV2d2Y77jensoYfy3j/AP1wzcXS3Om+3V355npxB3Wq3FdndmO+43p7KGH8t4//ANcM3F0tzpvt1d+eZ6cQd1qtxXZ3ZjvuN6eyhh/LeP8A/XDNxdLc6b7dXfnmenEHdarcV2d2Y77jensoYfy3j/8A1wzcXS3Om+3V355npxB3Wq3FdndmO+43p7KGH8t4/wD9cM3F0tzpvt1d+eZ6cQd1qtxXZ3ZjvuN6eyhh/LeP/wDXDNxdLc6b7dXfnmenEHdarcV2d2Y77jensoYfy3j/AP1wzcXS3Om+3V355npxB3Wq3FdndmO+43p7KGH8t4//ANcM3F0tzpvt1d+eZ6cQd1qtxXZ3ZjvuN6eyhh/LeP8A/XDNxdLc6b7dXfnmenEHdarcV2d2Y77jensoYfy3j/8A1wzcXS3Om+3V355npxB3Wq3FdndmO+43p7KGH8t4/wD9cM3F0tzpvt1d+eZ6cQd1qtxXZ3ZjvuN6eyhh/LeP/wDXDNxdLc6b7dXfnmenEHdarcV2d2Y77jensoYfy3j/AP1wzcXS3Om+3V355npxB3Wq3FdndmO+43p7KGH8t4//ANcM3F0tzpvt1d+eZ6cQd1qtxXZ3ZjvuN6eyhh/LeP8A/XDNxdLc6b7dXfnmenEHdarcV2d2Y77jensoYfy3j/8A1wzcXS3Om+3V355npxB3Wq3FdndmO+43p7KGH8t4/wD9cM3F0tzpvt1d+eZ6cQd1qtxXZ3ZjvuN6eyhh/LeP/wDXDNxdLc6b7dXfnmenEHdarcV2d2Y77jensoYfy3j/AP1wzcXS3Om+3V355npxB3Wq3FdndmO+43p7KGH8t4//ANcM3F0tzpvt1d+eZ6cQd1qtxXZ3ZjvuN6eyhh/LeP8A/XDNxdLc6b7dXfnmenEHdarcV2d2Y77jensoYfy3j/8A1wzcXS3Om+3V355npxB3Wq3FdndmciPLbeV6yVl2TsK23KJ23U/w3AU66XXUpWnXSP66elX/AIPmLDm6VEMVNFnzaKaIaaaKf+dXfwp7n/uf3H3LxnxBimQQ02tVu5FHDDT/ANrs7/VMVFFP/jLdWKt67JospWlVFWyKl9aUpSlb707brq9VPSp11rWvVSlKU/4p1FbpsNEM2ZDD+FEMyOGij/fcooipoo/H/wCULpyIoo5EmOKnuxRypccVPcoo7tMUFFNP4UfhR+NLtGNlAKq5b8NLhf7uXPf7hcBAtUAAAAAAAAAAAAAAA+FPrantLvi1Aqv6Kj7keX37dO/Pk8SAtTAARY5nfe9Zp7eJ8YoFN8vfyYr+6yxuspKd8mzbeu3vLQ6HNULHNu2sgAAAAAAAAAAAAAAAAAAAAAAAAAAAAAAAAAZ3q31TNd/rzifj5gSPg7tt4XesO5fxHZry1+dCb4ei14Oqa22VTrJaWAAAAAAAEWOYnqMSP6Zg/GCJIWGWk8rgta5qJEON+glb4dZ/SYFRxY5S0AAAAAAAAAAAAAAAAAAAAAAAAAAAAAAAAADmb/ZCH5ZL49p8x+BFvYvdSySdllayDlUNgSM+1rD8zbfI2FNp+zztbM5cTZLVfFqvqJPNwu8YmcAqrlvw0uF/u5c9/uFwEC1QAAAAAAAAAAAAAAD4U+tqe0u+LUCq/oqPuR5fft078+TxIC1MABFjmd971mnt4nxigU3y9/Jiv7rLG6ykp3ybNt67e8tDoc1Qsc27ayAAAAAAAAAAAAAAAAAAAAAAAAAAAAAAAAABnerfVM13+vOJ+PmBI+Du23hd6w7l/EdmvLX50Jvh6LXg6prbZVOslpYAAAAAAARY5ieoxI/pmD8YIkhYZaTyuC1rmokQ436CVvh1n9JgVHFjlLQAAAAAAAAAAAAAAAAAAAAAAAAAAAAAAAAAOZv9kIflkvj2nzH4EW9i91LJJ2WVrIOVQ2BIz7WsPzNt8jYU2n7PO1szlxNktV8Wq+ok83C7xiZwCquW/DS4X+7lz3+4XAQLVAAAAAAAAAAAAAAAPhT62p7S74tQKr+io+5Hl9+3Tvz5PEgLUwAEWOZ33vWae3ifGKBTfL38mK/ussbrKSnfJs23rt7y0OhzVCxzbtrIAAAAAAAAAAAAAAAAAAAAAAAAAAAAAAAAAGd6t9UzXf684n4+YEj4O7beF3rDuX8R2a8tfnQm+HoteDqmttlU6yWlgAAAAAABFjmJ6jEj+mYPxgiSFhlpPK4LWuaiRDjfoJW+HWf0mBUcWOUtAAAAAAAAAAAAAAAAAAAAAAAAAAAAAAAAAA5m/wBkIflkvj2nzH4EW9i91LJJ2WVrIOVQ2BIz7WsPzNt8jYU2n7PO1szlxNktV8Wq+ok83C7xiZwCquW/DS4X+7lz3+4XAQLVAAAAAAAAAAAAAAAPhT62p7S74tQKr+io+5Hl9+3Tvz5PEgLUwAEWOZ33vWae3ifGKBTfL38mK/ussbrKSnfJs23rt7y0OhzVCxzbtrIAAAAAAAAAAAAAAAAAAAAAAAAAAAAAAAAAGd6t9UzXf684n4+YEj4O7beF3rDuX8R2a8tfnQm+HoteDqmttlU6yWlgAAAAAABFjmJ6jEj+mYPxgiSFhlpPK4LWuaiRDjfoJW+HWf0mBUcWOUtAAAAAAAAAAAAAAAAAAAAAAAAAAAAAAAAAA5m/2Qh+WS+PafMfgRb2L3UsknZZWsg5VDYEjPtaw/M23yNhTafs87WzOXE2S1Xxar6iTzcLvGJnAKq5b8NLhf7uXPf7hcBAtUAAAAAAAAh5yf51cfOIb7GIncEhn607mLV+/wAfxvWmptk7eyV8wjFm6D9//h7WmM5PMIsWiztsmu8WZ2N0r1k7b1La329YZVo7mFx35Earmdzax2LGPsDxi+SQzB7PousRlMIdw6V7iUYZxAZMjFzWHyLFvZ5pcsMiYxrpFtemvelakpZfUPCNFdKdwv5F7Raaf1tsLJa5hMUf1xNTMdZ7D1/i+wKRi1qD3ztsxzPHITGNh9hffZW7/B0rM/6d1FKf5K0uA7/InpO+H3FzYtNVbVzjKq5o2YtZTIWOCaw2JsxngsU87KreW2NLYFjeQRmvotRNZJekjmDqHZ0bKWOKrdjdS8D2PbnMjjnpHSkVyDz3Y0ajq7IW8cvjE1j7d5lj7LVJezu42PxKCxtCTmsml3taVSbxEIxfSKri29vY2qtbdZQOjxc5p8fOYcPkErpHKZh86xJ4gxynFM0w7K9bZ9ji7uxRRp9XcBzyIx/LolJ1Ykpc2Xfw7dJe22tUr76ASpU+tqe0u+LUCq/oqPuR5fft078+TxIC1MABFjmd971mnt4nxigU3y9/Jiv7rLG6ykp3ybNt67e8tDoc1Qsc27ayAAAAAAAAAAAAAAAAAAAAAAAAAAAAAAAAABnerfVM13+vOJ+PmBI+Du23hd6w7l/EdmvLX50Jvh6LXg6prbZVOslpYAAAAAAARY5ieoxI/pmD8YIkhYZaTyuC1rmokQ436CVvh1n9JgVHFjlLQAAAAAAAAAAAAAAAAAAAAAAAAAAAAAAAAAOZv9kIflkvj2nzH4EW9i91LJJ2WVrIOVQ2BIz7WsPzNt8jYU2n7PO1szlxNktV8Wq+ok83C7xiZwCquW/DS4X+7lz3+4XAQLVAAAAAAAAIoct+RulOLGvVdqbUaxknOUr/AIcwDHEGDB9meZ5NL3W2RuJYqkuko7vXlHaaVXFqNexSRRvcrWKdhbbUKF90cdd7ap6LfpMeQWbxrbDtt8uW2U7fyfWeIJ3IstZYJTCY3F2GNq9j3Hb5F/g6BZSOTu0WzLqnHkijYhWiXa3h7tzkZ6yY6E6LdfSyGOIZelyA0knrVTGbGdsrcwWwmcuyBNpczpRzfHqX23XSNta1TuXtRqr/AJqWgZLwiaYG/wA16XZXc6EG4yS7cUw3y6/Jk2d7+zX1uFPPqAn1vraqpw9YO1jelSzqQrd2d9P8/VUCAfG76pO8T6F1psm21bWFd474pjyU5Sl8Ope32W8t1nRxa87pqpS3rfWxdHFLrao0pRL/AC0As81cnHNenD26jgibNHH1+HXb7FTh7UbI67ME89wazGr39rSlG9JT6jXy1EKqU7arerjq9LugJ08psD52ZdIQa3EjkFoXTUS2aK25Iz2/x/yrcbuUc1qpWxWMeY9uvVacWnbbVOlyS7WRuurbdWilvdUpaERuhdj9gRWk+ScdtXJMdy/YzPmjvJDMcmxLHHeIY3NzdieJ+an8NjL+dyd5CsVeu3smLnIJZVLqr3T1Xr9ILjAAEWOZ33vWae3ifGKBTfL38mK/ussbrKSnfJs23rt7y0OhzVCxzbtrIAAAAAAAAAAAAAAAAAAAAAAAAAAAAAAAAAGd6t9UzXf684n4+YEj4O7beF3rDuX8R2a8tfnQm+HoteDqmttlU6yWlgAAAAAABFjmJ6jEj+mYPxgiSFhlpPK4LWuaiRDjfoJW+HWf0mBUcWOUtAAAAAAAAAAAAAAAAAAAAAAAAAAAAAAAAAA5m/2Qh+WS+PafMfgRb2L3UsknZZWsg5VDYEjPtaw/M23yNhTafs87WzOXE2S1Xxar6iTzcLvGJnAKq5b8NLhf7uXPf7hcBAtUAAAAAAAAr95gdGpxx5t7A1PtDcEnuqEzjSSU1brme1FunPNTO4JxPUSskJG2/DJOOuWk6oJXNG7++7zS3aOXbZK+iTlW24PS9LcMdYaWwrONe25hvDcOK7DbuWWSx3IvdGd72otHvWlrF3GM1NhykxcxjXLel1q7Jv3KCtVVbr7LqqXdYeK6N6KXh7x+2fj22MJxvOZXIsJpI01xF55sbKM5w/VtJRaxZ7TWWJ5A7dQ2DdrdZZb1Y82ZUonbRP8A8adQH6fIXoveJ/JfZEptbPoXPoTLsmimkFna2ttkZRruN2XBsrEUm8LsqLxh2yaZxFJoN0W3mHILHrerZO1Ds+zp3IHre2+EPG7dOj8a485hgLdrrTCbImuDscXdK4vL4Q8g7a0ipbEJyIog/wAemWKl1y7eUjFG7tNzdcvYpRS6tQPni5wn0PxCb5ZfqaKyZ5kOeO2j3M892FlszsLYmUKsE1UmNk7m2SrvJ+TQZprKWtUHbxVNCl3UnS2npASyU+tqe0u+LUCq/oqPuR5fft078+TxIC1MABFjmd971mnt4nxigU3y9/Jiv7rLG6ykp3ybNt67e8tDoc1Qsc27ayAAAAAAAAAAAAAAAAAAAAAAAAAAAAAAAAABnerfVM13+vOJ+PmBI+Du23hd6w7l/EdmvLX50Jvh6LXg6prbZVOslpYAAAAAAARY5ieoxI/pmD8YIkhYZaTyuC1rmokQ436CVvh1n9JgVHFjlLQAAAAAAAAAAAAAAAAAAAAAAAAAAAAAAAAAOZv9kIflkvj2nzH4EW9i91LJJ2WVrIOVQ2BIz7WsPzNt8jYU2n7PO1szlxNktV8Wq+ok83C7xiZwCquW/DS4X+7lz3+4XAQLVAAAAAAAAAAAAAAAPhT62p7S74tQKr+io+5Hl9+3Tvz5PEgLUwAEWOZ33vWae3ifGKBTfL38mK/ussbrKSnfJs23rt7y0OhzVCxzbtrIAAAAAAAAAAAAAAAAAAAAAAAAAAAAAAAAAGd6t9UzXf684n4+YEj4O7beF3rDuX8R2a8tfnQm+HoteDqmttlU6yWlgAAAAAABFjmJ6jEj+mYPxgiSFhlpPK4LWuaiRDjfoJW+HWf0mBUcWOUtAAAAAAAAAAAAAAAAAAAAAAAAAAAAAAAAAA5m/wBkIflkvj2nzH4EW9i91LJJ2WVrIOVQ2BIz7WsPzNt8jYU2n7PO1szlxNktV8Wq+ok83C7xiZwCquW/DS4X+7lz3+4XAQLVAAAAAAAAAAAAAAAPhT62p7S74tQKr+io+5Hl9+3Tvz5PEgLUwAEWOZ33vWae3ifGKBTfL38mK/ussbrKSnfJs23rt7y0OhzVCxzbtrIAAAAAAAAAAAAAAAAAAAAAAAAAAAAAAAAAGd6t9UzXf684n4+YEj4O7beF3rDuX8R2a8tfnQm+HoteDqmttlU6yWlgAAAAAABFjmJ6jEj+mYPxgiSFhlpPK4LWuaiRDjfoJW+HWf0mBUcWOUtAAAAAAAAAAAAAAAAAAAAAAAAAAAAAAAAAA5m/2Qh+WS+PafMfgRb2L3UsknZZWsg5VDYEjPtaw/M23yNhTafs87WzOXE2S1Xxar6iTzcLvGJnAKq5b8NLhf7uXPf7hcBAtUAAAAAAAAAAAAAAA+FPrantLvi1Aqv6Kj7keX37dO/Pk8SAtTAARY5nfe9Zp7eJ8YoFN8vfyYr+6yxuspKd8mzbeu3vLQ6HNULHNu2sgAAAAAAAAAAAAAAAAAAAAAAAAAAAAAAAAAZ3q31TNd/rzifj5gSPg7tt4XesO5fxHZry1+dCb4ei14Oqa22VTrJaWAAAAAAAEWOYnqMSP6Zg/GCJIWGWk8rgta5qJEON+glb4dZ/SYFRxY5S0AAAAAAAAAAAAAAAAAAAAAAAAAAAAAAAAADmb/ZCH5ZL49p8x+BFvYvdSySdllayDlUNgSM+1rD8zbfI2FNp+zztbM5cTZLVfFqvqJPNwu8YmcAqrlvw0uF/u5c9/uFwEC1QAAAAAAAAAAAAAAD4U+tqe0u+LUCq/oqPuR5fft078+TxIC1MABFjmd971mnt4nxigU3y9/Jiv7rLG6ykp3ybNt67e8tDoc1Qsc27ayAAAAAAAAAAAAAAAAAAAAAAAAAAAAAAAAABnerfVM13+vOJ+PmBI+Du23hd6w7l/EdmvLX50Jvh6LXg6prbZVOslpYAAAAAAARY5ieoxI/pmD8YIkhYZaTyuC1rmokQ436CVvh1n9JgVHFjlLQAAAAAAAAAAAAAAAAAAAAAAAAAAAAAAAAAOZv9kIflkvj2nzH4EW9i91LJJ2WVrIOVQ2BIz7WsPzNt8jYU2n7PO1szlxNktV8Wq+ok83C7xiZwCquW/DS4X+7lz3+4XAQLVAAAAAAAAAAAAAAAPhT62p7S74tQKr+io+5Hl9+3Tvz5PEgLUwAEWOZ33vWae3ifGKBTfL38mK/ussbrKSnfJs23rt7y0OhzVCxzbtrIAAAAAAAAAAAAAAAAAAAAAAAAAAAAAAAAAGd6t9UzXf684n4+YEj4O7beF3rDuX8R2a8tfnQm+HoteDqmttlU6yWlgAAAAAABFjmJ6jEj+mYPxgiSFhlpPK4LWuaiRDjfoJW+HWf0mBUcWOUtAAAAAAAAAAAAAAAAAAAAAAAAAAAAAAAAAA5m/wBkIflkvj2nzH4EW9i91LJJ2WVrIOVQ2BIz7WsPzNt8jYU2n7PO1szlxNktV8Wq+ok83C7xiZwCquW/DS4X+7lz3+4XAQLVAAAAAAAAAAAAAAAPhT62p7S74tQKr+io+5Hl9+3Tvz5PEgLUwAEWOZ33vWae3ifGKBTfL38mK/ussbrKSnfJs23rt7y0OhzVCxzbtrIAAAAAAAAAAAAAAAAAAAAAAAAAAAAAAAAAGd6t9UzXf684n4+YEj4O7beF3rDuX8R2a8tfnQm+HoteDqmttlU6yWlgAAAAAABFjmJ6jEj+mYPxgiSFhlpPK4LWuaiRDjfoJW+HWf0mBUcWOUtAAAAAAAAAAAAAAAAAAAAAAAAAAAAAAAAAA5m/2Qh+WS+PafMfgRb2L3UsknZZWsg5VDYEjPtaw/M23yNhTafs87WzOXE2S1Xxar6iTzcLvGJnAKq5b8NLhf7uXPf7hcBAtUAAAAAAAAAAAAAAA+FPrantLvi1Aqv6Kj7keX37dO/Pk8SAtTAARY5nfe9Zp7eJ8YoFN8vfyYr+6yxuspKd8mzbeu3vLQ6HNULHNu2sgAAAAAAAAAAAAAAAAAAAAAAAAAAAAAAAAAZ3q31TNd/rzifj5gSPg7tt4XesO5fxHZry1+dCb4ei14Oqa22VTrJaWAAAAAAAEWOYnqMSP6Zg/GCJIWGWk8rgta5qJEON+glb4dZ/SYFRxY5S0AAAAAAAAAAAAAAAAAAAAAAAAAAAAAAAAADmb/ZCH5ZL49p8x+BFvYvdSySdllayDlUNgSM+1rD8zbfI2FNp+zztbM5cTZLVfFqvqJPNwu8YmcAqrlvw0uF/u5c9/uFwEC1QAAAAAAAAAAAAAAD4U+tqe0u+LUCq/oqPuR5fft078+TxIC1MABFjmd971mnt4nxigU3y9/Jiv7rLG6ykp3ybNt67e8tDoc1Qsc27ayAAAAAAAAAAAAAAAAAAAAAAAAAAAAAAAAABnerfVM13+vOJ+PmBI+Du23hd6w7l/EdmvLX50Jvh6LXg6prbZVOslpYAAAAAAARY5ieoxI/pmD8YIkhYZaTyuC1rmokQ436CVvh1n9JgVHFjlLQAAAAAAAAAAAAAAAAAAAAAAAAAAAAAAAAAOZv9kIflkvj2nzH4EW9i91LJJ2WVrIOVQ2BIz7WsPzNt8jYU2n7PO1szlxNktV8Wq+ok83C7xiZwCquW/DS4X+7lz3+4XAQLVAAAABTd0km3dlcd+QfFbeLfHNnZTo/HMJ33jeZRWtoms6rTa+S265U0+6mou1007SPspE5ihVxVS7zPc56+zu7uoEIOIOit1ae5QcGdyz77atu4+XK+4dh8u4TIJZ7IY9A4Xk2AZ3nGGYu+jbkfMMM9w3NLsSxpqkit12ps6I9ala1vqGzgAAAAAAAB8KfW1PaXfFqBVf0VH3I8vv26d+fJ4kBamAAixzO+96zT28T4xQKb5e/kxX91ljdZSU75Nm29dveWh0OaoWObdtZAAAAAAAAAAAAAAAAAAAAAAAAAAAAAAAAAAzvVvqma7/XnE/HzAkfB3bbwu9Ydy/iOzXlr86E3w9FrwdU1tsqnWS0sAAAAAAAIscxPUYkf0zB+MESQsMtJ5XBa1zUSIcb9BK3w6z+kwKjixyloAAAAAAAAAAAAAAAAAAAAAAAAAAAAAAAAAHM3+yEPyyXx7T5j8CLexe6lkk7LK1kHKobAkZ9rWH5m2+RsKbT9nna2Zy4myWq+LVfUSebhd4xM4BVXLfhpcL/dy57/AHC4CBaoAAAAKWOlb23txjmuiOOuBblmOO+LbcwXfOb5TtjHr2jDIFpfU8TiTjF9cQc67uRuiJTMlMnknqKse7aySiOOL2tr7rKLUA8E4k8sNqZI+6GjGKbZks6n936CulOQsA6mfq7LrRjfj/P5eyz7KaKOHLxq6eZ2whY2sm+7hZy4kLEO1v8ANFLbg2IgIr8pOaPHjhpjTHLeQOXy+Kwkjc4taKwmC5znjy+1ogq6dr3xeCY7kckk2bN0VVnDpVrY3RTsuvUUttp1gdDOecvGbXPGSL5g5Xnrxpx/m4WEn4rMmWG5pMvX0ZkVUqQyrfEoeAfZfes9uXSssZ0g/Ndl99LVEbK+kBj/ABq6QLjly0yKQxfTim5VZONiPq44W2Hxv5Aaeh1I6tydtqrKf2vrbDYSRVv7Wy5NqxfuHSidaq2I3J23XUDDs16Uzg7r7by+kcn3Go2zRjPMcXl37DBNgzOvceyORWTbNIPJtqQ+LvtbY1K3uVbGt7Cdylg5Sc3eZ1UrFqVsoHsPI/mjxy4oY9jWSbpzxaIa5mrRLEIrFsXyvY2V5VXs0Vrlccw7X0Lk2UzbdJFwgqs6jYly3RSWSUVVstUtrUM50DyM05yfwFtsvSWZNsxxRd0vHrLeYZOFloqSa3dw5i57HJ1nG5Bj8o3vpWxeOmo1i9SvtvtUQtusupQPa1PrantLvi1Aqv6Kj7keX37dO/Pk8SAtTAARY5nfe9Zp7eJ8YoFN8vfyYr+6yxuspKd8mzbeu3vLQ6HNULHNu2sgAAAAAAAAAAAAAAAAAAAAAAAAAAAAAAAAAZ3q31TNd/rzifj5gSPg7tt4XesO5fxHZry1+dCb4ei14Oqa22VTrJaWAAAAAAAEWOYnqMSP6Zg/GCJIWGWk8rgta5qJEON+glb4dZ/SYFRxY5S0AAAAAAAAAAAAAAAAAAAAAAAAAAAAAAAAADmb/ZCH5ZL49p8x+BFvYvdSySdllayDlUNgSM+1rD8zbfI2FNp+zztbM5cTZLVfFqvqJPNwu8YmcAqrlvw0uF/u5c9/uFwEC1QAAAAU09LrufV2LQ+l9GbL4S5pzYt3nMZIyx7DdfT0hBZXBykAhFJ1dR7mDYLZCnY8bzatq7mNkWFiNjfuHNri1ZOiYVf8a+TWjujr2LXDsO6G7k3pLJJjD30nfkElk2S7EyVTXeOp0fTKWHNMliHS6sXjEaxWePYmAWjE0I+NXuVuqmlfWobQ+l9v4TvzVmE7i1zI3SmF59DJzUE8Us7Jfse3XZumrpHuruweR8g1dsHqFbq3IO2yyV3+aytAPH+cMJj8nxM5Hu5iIh5Byw0VtZSPcyUeydrslq4TNf6jNZ0ioo3VrTr/AMyF1l3/AOQK5tK8VIXml0NfGHQ0xnUlr5pPai1JIVyiDpHqS0cvDIR0ghVlbJIPGVHN6iNtEauGrhOl/c90ipb12VDBsLzTk5w05j4Vw5y/kHJ8pNe7x0HsvKMGmMwgsaYbT1rkWsbcajWyD6RwuLx2EkMdmUsnRojYtjaDxFeNt/8A5BXtLraBGnj5B6okuhC5lzGfscccZy5ybmPI5rJTCbWuR27Mj9jZzdBKuHKtKPUpdjLpNbYK3urVE6ptrG9OqllAM54qWyuQ8+uDiW6kLZF0y6PaPf4K3yhJNwlbPKIubJ94zQfW3I1lKQiWO1VXss802W1Su7qndemEu+jcRYx/NHpQYnCEmyGs2u1tXuGjeOtsTiW2YvMfylTKbY9JDqbJKKvKVvkLUaUr5otsqpSl3UBNflBivO7IH8GpxH29xx1tEoNVqZK23fprPdnPXzmtb+zvinOH7f1qiwRttrZS5Ny2f3XVpdWilKVpS0Ig9C+02Cw0ryVZ7WmsYyLYzbmlvNLMZzC4ORxrFZObtTxTzU7goGWmsikoqPU/y9k0eTkmun1Xd07U66dQXFAAIsczvves09vE+MUCm+Xv5MV/dZY3WUlO+TZtvXb3lodDmqFjm3bWQAAAAAAAAAAAAAAAAAAAAAAAAAAAAAAAAAM71b6pmu/15xPx8wJHwd228LvWHcv4js15a/OhN8PRa8HVNbbKp1ktLAAAAAAACLHMT1GJH9MwfjBEkLDLSeVwWtc1EiHG/QSt8Os/pMCo4scpaAAAAAAAAAAAAAAAAAAAAAAAAAAAAAAAAABzN/shD8sl8e0+Y/Ai3sXupZJOyytZByqGwJGfa1h+ZtvkbCm0/Z52tmcuJslqvi1X1Enm4XeMTOAVVy34aXC/3cue/wBwuAgWqAAAACsDpBOPG28pzLRnKzj5tnV+sdzccm+dwcQ13e/VhdT5diey7sWc5NC5JPt2Mu6g3NznCYRSPkG0LIqpW0d20tspdXrCJWotb8i+VPJbWm2uV/JLhi2m9NwWxU9Mad4vbOps9STyzNsAybBZbI8odT0DhMu7bRmN5JMurIlnEySNLkrFlVUbErr7Atp4mcf2nFvj7r/RLKeVydDB7cou+rqzSxgo/WyjNMjzN1d5jTVWsb2IOsiWapWWq3U7JCyv+Xr7mgY1y14ea85k4Ohr3ZWb7qxDGrFHfm9DTm05/WLmeZP493GPYjIXMFXupeHdNHq1q8c5tuQUvonfdStU7QIz696I/jlrPSshoLG9mcrFNfLrY2vCJS/InM5Obwe7E3TZ3CWYHMrdy5xVJsq0RpVOOpbbenS6yvVS4D2Djj0d/HXjPn8ztvFk9gbA27OQlMZd7W3TnUptHYiWN9r298AyyrILLpJpELLWpqrsU1aIqqIo3X0rVO3qDyrOOiH4aZ9syd2RLwWwGDbLcvZZ7mmroDP5WG0vm2YMXqcklkGXa0apfUGdk1JBK184cvbL1F3Vblr7q3XVqB7tyV4J6B5Sx+AN88j8qxea1XS5PXGb6syl9r3PMLaqN2zRZjjuVQ1n1RjGLhszaoLtW19iaqbdKy+laWUoBnvGfixp3iVgTjXunIR7HxklLu8hyCZnJJWdyvK8gf33KPJzKMhc2WPZuVcqXqXrPXdblr71FK1u67qgSHU+tqe0u+LUCq/oqPuR5fft078+TxIC1MABFjmd971mnt4nxigU3y9/Jiv7rLG6ykp3ybNt67e8tDoc1Qsc27ayAAAAAAAAAAAAAAAAAAAAAAAAAAAAAAAAABnerfVM13+vOJ+PmBI+Du23hd6w7l/EdmvLX50Jvh6LXg6prbZVOslpYAAAAAAARY5ieoxI/pmD8YIkhYZaTyuC1rmokQ436CVvh1n9JgVHFjlLQAAAAAAAAAAAAAAAAAAAAAAAAAAAAAAAAAOZv9kIflkvj2nzH4EW9i91LJJ2WVrIOVQ2BIz7WsPzNt8jYU2n7PO1szlxNktV8Wq+ok83C7xiZwCquW/DS4X+7lz3+4XAQLVAAAABTH0m3HjNOTG7+M2uZbFtg5bx5V1/yIkM6i8SWytnj122UYzBkNOKZq9xdyzrZE2WOc0qi2lXNIxw47mqySqiSXchTR0WOl9Q4Ry64MQ+oeNuz8N5C6a1/nWuub+S5fhOxY/G4Vzj2tclxxHKmczk9t2P/VnKc9bQzVo8hrkrJKHl1lU7VU1+2qG5mAAAAAAAB8KfW1PaXfFqBVf0VH3I8vv26d+fJ4kBamAAixzO+96zT28T4xQKb5e/kxX91ljdZSU75Nm29dveWh0OaoWObdtZAAAAAAAAAAAAAAAAAAAAAAAAAAAAAAAAAAzvVvqma7/XnE/HzAkfB3bbwu9Ydy/iOzXlr86E3w9FrwdU1tsqnWS0sAAAAAAAIscxPUYkf0zB+MESQsMtJ5XBa1zUSIcb9BK3w6z+kwKjixyloAAAAAAAAAAAAAAAAAAAAAAAAAAAAAAAAAHM3+yEPyyXx7T5j8CLexe6lkk7LK1kHKobAkZ9rWH5m2+RsKbT9nna2Zy4myWq+LVfUSebhd4xM4BVXLfhpcL/AHcue/3C4CBaoAAAAKq+kJ3PyjgNp8a+PPG/OcC0fTedNhPcw5B7HxNTNoLBkMKriaUdjcbjv+IMRavMmy2uTPHMVV1k0anYjjz+lLVq3f6YcHGfjrzMwHdGP5ftjpINY78wpOyYpkessc41Q2vZrLLnUQ+QYX0y5pvXM3TSkVJKNJhWlcfkPNSbG5rW5vRarlILWwAAAAAAAPhT62p7S74tQKr+io+5Hl9+3Tvz5PEgLUwAEWOZ33vWae3ifGKBTfL38mK/ussbrKSnfJs23rt7y0OhzVCxzbtrIAAAAAAAAAAAAAAAAAAAAAAAAAAAAAAAAAGd6t9UzXf684n4+YEj4O7beF3rDuX8R2a8tfnQm+HoteDqmttlU6yWlgAAAAAABFjmJ6jEj+mYPxgiSFhlpPK4LWuaiRDjfoJW+HWf0mBUcWOUtAAAAAAAAAAAAAAAAAAAAAAAAAAAAAAAAAA5m/2Qh+WS+PafMfgRb2L3UsknZZWsg5VDYEjPtaw/M23yNhTafs87WzOXE2S1Xxar6iTzcLvGJnAKq5b8NLhf7uXPf7hcBAtUAAAAGud05sxx+U2vwcwvmTsTN8U4k5BPbNk88x7XkpncLkU1nsJZhSev5pzJ63uRytpj+PtZPKkpNVk4TTtXlmFVqXUpZW0O9wPxvoZ4/k3r11xM27t3KN5poZN/g6DyndXJLLoV0lfi0xZOVd4/sCfe4s7qhA3SKyNZFtfc3XTTcNe5dpIXWhsRgAAAAAAAfCn1tT2l3xagVX9FR9yPL79unfnyeJAWpgAIsczvves09vE+MUCm+Xv5MV/dZY3WUlO+TZtvXb3lodDmqFjm3bWQAAAAAAAAAAAAAAAAAAAAAAAAAAAAAAAAAM71b6pmu/15xPx8wJHwd228LvWHcv4js15a/OhN8PRa8HVNbbKp1ktLAAAAAAACLHMT1GJH9MwfjBEkLDLSeVwWtc1EiHG/QSt8Os/pMCo4scpaAAAAAAAAAAAAAAAAAAAAAAAAAAAAAAAAABzN/shD8sl8e0+Y/Ai3sXupZJOyytZByqGwJGfa1h+ZtvkbCm0/Z52tmcuJslqvi1X1Enm4XeMTOAVVy34aXC/3cue/3C4CBaoAAAAKduRuOdKrlu08rS13qPgtnOooubeWayd7dgpOcy5CAcJNa1vk6OMgsatXzhZKvmmjJq1TVtRQ7tOtbLa0Du8Wdf8ASLwe7cSkt86Q4KYdq9BObpkOQaZxJSL2GyvVg5BKLpCPbpd1RK1xKXs28hSqF/dxyrpP/L3XdUC3wAAAAAAAD4U+tqe0u+LUCq/oqPuR5fft078+TxIC1MABFjmd971mnt4nxigU3y9/Jiv7rLG6ykp3ybNt67e8tDoc1Qsc27ayAAAAAAAAAAAAAAAAAAAAAAAAAAAAAAAAABnerfVM13+vOJ+PmBI+Du23hd6w7l/EdmvLX50Jvh6LXg6prbZVOslpYAAAAAAARY5ieoxI/pmD8YIkhYZaTyuC1rmokQ436CVvh1n9JgVHFjlLQAAAAAAAAAAAAAAAAAAAAAAAAAAAAAAAAAOZv9kIflkvj2nzH4EW9i91LJJ2WVrIOVQ2BIz7WsPzNt8jYU2n7PO1szlxNktV8Wq+ok83C7xiZwCquW/DS4X+7lz3+4XAQLVAAAD4UurZZffSndVtsuupT/5rbStaU/8A31dQFEGuunn4zPc30ZrXdT6J05m2wcU3JK7SjJyuQpW6fyfWGQ4nEw+KzFryHQdvXOYsMlXk410wbPGdqcS7svcp17OigWM6o6QfhhvPOofWmpeQeD5znc/a+vh8Zh/qz9UH9sawcyb6qHmuJaodTZg0cuVO7Ws/00bu57q7qtqEyQAAAAAAAPhT62p7S74tQKr+io+5Hl9+3Tvz5PEgLUwAEWOZ33vWae3ifGKBTfL38mK/ussbrKSnfJs23rt7y0OhzVCxzbtrIAAAAAAAAAAAAAAAAAAAAAAAAAAAAAAAAAGd6t9UzXf684n4+YEj4O7beF3rDuX8R2a8tfnQm+HoteDqmttlU6yWlgAAAAAABFjmJ6jEj+mYPxgiSFhlpPK4LWuaiRDjfoJW+HWf0mBUcWOUtAAAAAAAAAAAAAAAAAAAAAAAAAAAAAAAAAA5m/2Qh+WS+PafMfgRb2L3UsknZZWsg5VDYEjPtaw/M23yNhTafs87WzOXE2S1Xxar6iTzcLvGJnAKq5b8NLhf7uXPf7hcBAtUAAAAFKfSEwujsO5A8eGmteDWmuR3Nza0PtVjqxTNoiHicTh8KZL4Hfs7LdhVV8xw+QNWL1zhCCDiatWmWVzpVOFkWCbySsdh+Rxs2dmuneVGq9HcruCvF/ROwdyNsqt0ZuPjtjGLIRElN45i01keR4k8UR+rGQQktdicPPPO3pMNW7xm2WQ7C+xfqqF4YAAAAAAAHwp9bU9pd8WoFV/RUfcjy+/bp358niQFqYACLHM773rNPbxPjFApvl7+TFf3WWN1lJTvk2bb1295aHQ5qhY5t21kAAAAAAAAAAAAAAAAAAAAAAAAAAAAAAAAADO9W+qZrv8AXnE/HzAkfB3bbwu9Ydy/iOzXlr86E3w9FrwdU1tsqnWS0sAAAAAAAIscxPUYkf0zB+MESQsMtJ5XBa1zUSIcb9BK3w6z+kwKjixyloAAAAAAAAAAAAAAAAAAAAAAAAAAAAAAAAAHM3+yEPyyXx7T5j8CLexe6lkk7LK1kHKobAkZ9rWH5m2+RsKbT9nna2Zy4myWq+LVfUSebhd4xM4BVXLfhpcL/dy57/cLgIFqgAAAAglzM4Ur8oJHV2xcA3FknH3fuk3U8prLbWOwyOT2xkdlVIuuT49OYutL49bPQU4rBQazxn9XI+lVIxC7urq09IPIdC9H1tiC31iPJLltyzmeUux9ZR80y1PHMdaNtSYRgTnIYp7ATM23x1HOM8ukpt/BScnGXvbnzHuG75a3s76V6qhaWAAAAAAAB8KfW1PaXfFqBVf0VH3I8vv26d+fJ4kBamAAixzO+96zT28T4xQKb5e/kxX91ljdZSU75Nm29dveWh0OaoWObdtZAAAAAAAAAAAAAAAAAAAAAAAAAAAAAAAAAAzvVvqma7/XnE/HzAkfB3bbwu9Ydy/iOzXlr86E3w9FrwdU1tsqnWS0sAAAAAAAIscxPUYkf0zB+MESQsMtJ5XBa1zUSIcb9BK3w6z+kwKjixyloAAAAAAAAAAAAAAAAAAAAAAAAAAAAAAAAAHM3+yEPyyXx7T5j8CLexe6lkk7LK1kHKobAkZ9rWH5m2+RsKbT9nna2Zy4myWq+LVfUSebhd4xM4BVXLfhpcL/AHcue/3C4CBaoAAAAKlOkI6Q2I4Eb94nvdqZnTHOPO0Gm0oHYTGOw53lmRX5KwVwVTDZ9C2Hh5WfaQUKg7yJCaqw7JK9aTjaubb+zTraHsmi+lJ4Rckdk49qTTu40crz7KU5JWEgrcbyaOUd2RMW7mX9auJKKatkat49i5XrRZWyt3Z9nbSql1ttQsHAAAAAAAA+FPrantLvi1Aqv6Kj7keX37dO/Pk8SAtTAARY5nfe9Zp7eJ8YoFN8vfyYr+6yxuspKd8mzbeu3vLQ6HNULHNu2sgAAAAAAAAAAAAAAAAAAAAAAAAAAAAAAAAAZ3q31TNd/rzifj5gSPg7tt4XesO5fxHZry1+dCb4ei14Oqa22VTrJaWAAAAAAAEWOYnqMSP6Zg/GCJIWGWk8rgta5qJEON+glb4dZ/SYFRxY5S0AAAAAAAAAAAAAAAAAAAAAAAAAAAAAAAAADmb/AGQh+WS+PafMfgRb2L3UsknZZWsg5VDYEjPtaw/M23yNhTafs87WzOXE2S1Xxar6iTzcLvGJnAKq5b8NLhf7uXPf7hcBAtUAAAAFPPSkby2xjE7p/QOgMa0xXce0MN3LsdhsXeOC27GxXCMJ04wxZxliMfiqcpjjyQyCcdZZApR1iGSRySabRyqug9pZZYmHj3FzlRlT1z0TMhKYBo9B9zS1E4k9hSWMa3YwOVw2ZttF5Bs9zO49JtH990Vjz1SEWh1mDhs8Vuq/onWSr19xeF84AAAAAAAHwp9bU9pd8WoFV/RUfcjy+/bp358niQFqYACLHM773rNPbxPjFApvl7+TFf3WWN1lJTvk2bb1295aHQ5qhY5t21kAAAAAAAAAAAAAAAAAAAAAAAAAAAAAAAAADO9W+qZrv9ecT8fMCR8HdtvC71h3L+I7NeWvzoTfD0WvB1TW2yqdZLSwAAAAAAAixzE9RiR/TMH4wRJCwy0nlcFrXNRIhxv0ErfDrP6TAqOLHKWgAAAAAAAAAAAAAAAAAAAAAAAAAAAAAAAAAczf7IQ/LJfHtPmPwIt7F7qWSTssrWQcqhsCRn2tYfmbb5GwptP2edrZnLibJar4tV9RJ5uF3jEzgFVct+Glwv8Ady57/cLgIFqgAAAAqB6XdHiTbrLBnu/8u2dhu0qSU5GaGf6FaZXI7wkJeYj0meRwuJxmGIKSsjDSDO5lTIWki4ZY6pclF1lHSd9rOlwQK6H/ABXh5iu4MTw+RzzlTNci9a61uwzQ+Ecv8ZynFXGIatjWCbR231BGvl5bC6XoxKFzaTvgJeya+ptX9HLOjSrutgbOYGDZztDWmsGCUpsvYmC68jF7+yRkc5y2AxJgsp1Vr2aTyfkI9upf1UrXuLFK3dVK16uqlQP2WuW4o9xtPMmWTY87xBWO+q6WVNZqNcY2rE9lVf6qJziTm+MvjuxpVbzba6q27KlVO17j0wMbwTb2ptpUkK6y2hrvYtIlW1GUrgma41l1I1a6t1LUZCuPych5jVurZfS1Nx2d9a2XdVP8teoOnK7w0tB5g115N7f1dD5+9vSTZ4PK5/icfmDu9elLkLGuMu5ZGacXrW3W1StSZX1UpWlbKVpWgH7ub7H15rKIpkGyM9wvX0DVS1Gk3m+UweKRFVr/APwSpJTz5gzqpd//AFs7burv+KVA/VxnKsXzSGZ5Hh2SQOWY9IWdownsZmI+ehn1npf52cpFOHTFzZ6dP8yK99PTp6fpgftqfW1PaXfFqBVf0VH3I8vv26d+fJ4kBamAAixzO+96zT28T4xQKb5e/kxX91ljdZSU75Nm29dveWh0OaoWObdtZAAAAAAAAAAAAAAAAAAAAAAAAAAAAAAAAAAzvVvqma7/AF5xPx8wJHwd228LvWHcv4js15a/OhN8PRa8HVNbbKp1ktLAAAAAAACLHMT1GJH9MwfjBEkLDLSeVwWtc1EiHG/QSt8Os/pMCo4scpaAAAAAAAAAAAAAAAAAAAAAAAAAAAAAAAAABzN/shD8sl8e0+Y/Ai3sXupZJOyytZByqGwJGfa1h+ZtvkbCm0/Z52tmcuJslqvi1X1Enm4XeMTOAVVy34aXC/3cue/3C4CBaoAAAfy6taW3VpTrrSla0p/t11pT0qdf/HXX0gNbTkc/6V7ZPJfj7yIwro38JRyLjm72PjsPTKuSGFSMDkmE7Dd4zfNPEY5CPZvIrJq/4Lg1oWR829zGoupNusgvVxbcmHqmAQ3SJcj+kH4wbj5McLsL0ZqHQzPYj+IynGt04zl+TM8myjXuVYpT6vtmiF7iax123nnDRvFR9jG9pJrspVddVNmokoF/AEB+kd0Bpvc/Ffd8ttPAITN32Cac2hO4kpN1erIwsw3wuZUbyLdmk7RZquUFKUURvdN3HZX0penS26lKgUx7cnZq7oZ+je1ezlZOCxvemacQNQ7Bk4l85jHN2B5vmOKwWURVX7RRJdsjMRD50wWUSVSVomrXs1LL60uoHtW69Ua94PdIJwrk+MOLsNaM9q6o27hux8SxSrhrj2aM8eZ4jJQWQzMJ2yjFxNRDjzWmlM2IJvlLZZxa5cLd2n3IRg1Nxs1PvPoqeWnMPZETSY5LP8v5RbRj9xuX73/G2G5Dq3Psvc4PGY7NeaaOYSKxxOGj4ysSyuRZuGzWqDtFal9/WHr+r723NzmPwkwPkpFI57gOM8Ho3aieB5H2y2LZJns0k4il8im4ntE0Jt2yRx9m8bpyNrpsio8VU7CtFgJhdGDGNdVcmekT44Yb5oQ1DrTZ2vJ/X8Ba6cuonDFM5hcjk57H4a1wqtVlH1dNkL27Cy+iLVNtRNFNOynUBO3knt/lPrZ9DNuP3EpDkbHv2qqk1Irbww/VFYNa3u6WIUa5LESSsj3dtLbu0Qustt7vqrTrtr1hDXoZZrLci03yYnM8w23XuYynNTejvIsJtn2OUW41JqJ4n28VTIY1Fuwl6IdVP/vGqKSSndf5bKdVQLhQAEWOZ33vWae3ifGKBTfL38mK/ussbrKSnfJs23rt7y0OhzVCxzbtrIAAAAAAAAAAAAAAAAAAAAAAAAAAAAAAAAAGd6t9UzXf684n4+YEj4O7beF3rDuX8R2a8tfnQm+HoteDqmttlU6yWlgAAAAAABFjmJ6jEj+mYPxgiSFhlpPK4LWuaiRDjfoJW+HWf0mBUcWOUtAAAAAAAAAAAAAAAAAAAAAAAAAAAAAAAAAA5m/2Qh+WS+PafMfgRb2L3UsknZZWsg5VDYEjPtaw/M23yNhTafs87WzOXE2S1Xxar6iTzcLvGJnAKq5b8NLhf7uXPf7hcBAtUAAAAFI/S4ZDZE5vxZidw8ic2428Nsmk89id35hrjMFcOy6VzVSzFrtYY9fIsU3cpZjb1pbmyswsxjJK9Jw2jbb2/cqd3aGJ8K9ZdGdj3IrBpjjzzU3Xt3a7dLIv8N4Jl+7sozCAmbFsblUZW97ASWKxjN7VjEqPX6FVHiNW7hskvZS+9K1O4L5AIbc1uOu6uTeqpLVuo+SSXHJtk8fMwGbS92pGG11shxeeh38RIw7Zm+zfCrIhe+x7asnI2OHlydUe48zVopW+wIW686J3MEOH7jhvv/lpKbtwbHYvEm+mskhNOxmqcn1NN4Is0eYjkzRyy2Bl31elIaSZNn6N16kRW5ZKlKKWU9MD1XQnRy5Phe8YHkJyW5M5Fyq2FgODymutVUlcAZ68x3A8ZnVI6+cVThWuXZhZLZDK0hohN3O3uGKl9jOttW1aK17gPFsp6H6YfKbH1xgnLvOtecS9v59KbB2JxvY4CzlL5B9ks6tkmYQ0Bse7NI9zjmPZVKunykpGJYm+svQeLIVvv6+7qEi+QHR5IbAntKbF497kluMG5NDYkrr7DM+hsPa52weYG5ZMmDjF8mxRzkOKIzTK5BincjW+XQogqoupandVWtAPVuGnDqL4lY9n177YE3tzaW3ctuzfa+08gjEoR/l0/bRzY0qhCoyMxZDxkam9dIx8dbKvrWyKvZ2rVpb11CZan1tT2l3xagVX9FR9yPL79unfnyeJAWpgAIsczvves09vE+MUCm+Xv5MV/dZY3WUlO+TZtvXb3lodDmqFjm3bWQAAAAAAAAAAAAAAAAAAAAAAAAAAAAAAAAAM71b6pmu/15xPx8wJHwd228LvWHcv4js15a/OhN8PRa8HVNbbKp1ktLAAAAAAACLHMT1GJH9MwfjBEkLDLSeVwWtc1EiHG/QSt8Os/pMCo4scpaAAAAAAAAAAAAAAAAAAAAAAAAAAAAAAAAABzN/shD8sl8e0+Y/Ai3sXupZJOyytZByqGwJGfa1h+ZtvkbCm0/Z52tmcuJslqvi1X1Enm4XeMTOAVVy34aXC/wB3Lnv9wuAgWqAAAAChnpc4WXiuQ3CDcF/D3PubOFa88+Fhluo8fxFlmmKM7cku15ewy6Zhpli/gFckh/qO6b4zdJoKdTaQnaIJ3VuvrQPQOI2+9W5tvjDMcxzoms54xTD9Kdua7lmdBYRhMfinmaAknSya+SQ2Jxj9hWZRSUhU6IPUqOVH9rZTu01b7LgumAAAAAAAA+FPrantLvi1Aqv6Kj7keX37dO/Pk8SAtTAARY5nfe9Zp7eJ8YoFN8vfyYr+6yxuspKd8mzbeu3vLQ6HNULHNu2sgAAAAAAAAAAAAAAAAAAAAAAAAAAAAAAAAAZ3q31TNd/rzifj5gSPg7tt4XesO5fxHZry1+dCb4ei14Oqa22VTrJaWAAAAAAAEWOYnqMSP6Zg/GCJIWGWk8rgta5qJEON+glb4dZ/SYFRxY5S0AAAAAAAAAAAAAAAAAAAAAAAAAAAAAAAAADmb/ZCH5ZL49p8x+BFvYvdSySdllayDlUNgSM+1rD8zbfI2FNp+zztbM5cTZLVfFqvqJPNwu8YmcAqrlvw0uF/u5c9/uFwEC1QAAAAQS5oaO2RuNTX92Ac2M94g2wNmRUk7MKd4o1pnVZCsRVrdIf4mQWrfWAo0Xo28ydXc/VZbtuvrTArB1hEck+NvSPcWtcZr0km0OV+s91R2yWF2r5GuHXpw8xjuvcryJGey5zAt3CjjH7fqNVGPtspFqWTysZS5ZdOlyKobFYAAAAAAAHwp9bU9pd8WoFV/RUfcjy+/bp358niQFqYACLHM773rNPbxPjFApvl7+TFf3WWN1lJTvk2bb1295aHQ5qhY5t21kAAAAAAAAAAAAAAAAAAAAAAAAAAAAAAAAADO9W+qZrv9ecT8fMCR8HdtvC71h3L+I7NeWvzoTfD0WvB1TW2yqdZLSwAAAAAAAixzE9RiR/TMH4wRJCwy0nlcFrXNRIhxv0ErfDrP6TAqOLHKWgAAAAAAAAAAAAAAAAAAAAAAAAAAAAAAAAAczf7IQ/LJfHtPmPwIt7F7qWSTssrWQcqhsCRn2tYfmbb5GwptP2edrZnLibJar4tV9RJ5uF3jEzgFVct+Glwv93Lnv8AcLgIFqgAAAA11ukVzzBN9bWV19vDogOYnJiI0dM5FD4Ns3DZ3QUfhs60nEoZaWmcdsyHckDPUjX1YxjZbSYiI91ZeyvrVC22tLrgjf0YnKLo/MY52RHGfQ3Re7o4974zCFyZvke3MgQ0bnjLAIrH4CQn14jOM21lsbOpTEbZW+MsiGcVIXtVHEq8ZtlG9KKVutDa5AAAAAAAA+FPrantLvi1Aqv6Kj7keX37dO/Pk8SAtTAARY5nfe9Zp7eJ8YoFN8vfyYr+6yxuspKd8mzbeu3vLQ6HNULHNu2sgAAAAAAAAAAAAAAAAAAAAAAAAAAAAAAAAAZ3q31TNd/rzifj5gSPg7tt4XesO5fxHZry1+dCb4ei14Oqa22VTrJaWAAAAAAAEWOYnqMSP6Zg/GCJIWGWk8rgta5qJEON+glb4dZ/SYFRxY5S0AAAAAAAAAAAAAAAAAAAAAAAAAAAAAAAAADmb/ZCH5ZL49p8x+BFvYvdSySdllayDlUNgSM+1rD8zbfI2FNp+zztbM5cTZLVfFqvqJPNwu8YmcAqrlvw0uF/u5c9/uFwEC1QAAAAat/OvZ/Su7k5PbH0wnxv39j3CDDZ+6JiJvjOhbD7H3xE1TRUXXls7yHHczj4PG1aVq2tRxqHh5mt1y16c1bSlttoTc6PfKrtb5hjGmcK6K7cHF3FJxvJ/wCIt0ZvIOMhd1cMIp5JJucwyudx+uTTbubftUmVl7/ILrKPXqV1lnc22pAXaAAAAAAAAfCn1tT2l3xagVX9FR9yPL79unfnyeJAWpgAIsczvves09vE+MUCm+Xv5MV/dZY3WUlO+TZtvXb3lodDmqFjm3bWQAAAAAAAAAAAAAAAAAAAAAAAAAAAAAAAAAM71b6pmu/15xPx8wJHwd228LvWHcv4js15a/OhN8PRa8HVNbbKp1ktLAAAAAAACLHMT1GJH9MwfjBEkLDLSeVwWtc1EiHG/QSt8Os/pMCo4scpaAAAAAAAAAAAAAAAAAAAAAAAAAAAAAAAAABzN/shD8sl8e0+Y/Ai3sXupZJOyytZByqGwJGfa1h+ZtvkbCm0/Z52tmcuJslqvi1X1Enm4XeMTOAVVy34aXC/3cue/wBwuAgWqAAAAAAAAAAAAAAAfCn1tT2l3xagVX9FR9yPL79unfnyeJAWpgAIsczvves09vE+MUCm+Xv5MV/dZY3WUlO+TZtvXb3lodDmqFjm3bWQAAAAAAAAAAAAAAAAAAAAAAAAAAAAAAAAAM71b6pmu/15xPx8wJHwd228LvWHcv4js15a/OhN8PRa8HVNbbKp1ktLAAAAAAACLHMT1GJH9MwfjBEkLDLSeVwWtc1EiHG/QSt8Os/pMCo4scpaAAAAAAAAAAAAAAAAAAAAAAAAAAAAAAAAABzN/shD8sl8e0+Y/Ai3sXupZJOyytZByqGwJGfa1h+ZtvkbCm0/Z52tmcuJslqvi1X1Enm4XeMTOAVVy34aXC/3cue/3C4CBaoAAAAAAAAAAAAAAB8KfW1PaXfFqBVf0VH3I8vv26d+fJ4kBamAAixzO+96zT28T4xQKb5e/kxX91ljdZSU75Nm29dveWh0OaoWObdtZAAAAAAAAAAAAAAAAAAAAAAAAAAAAAAAAAAzvVvqma7/AF5xPx8wJHwd228LvWHcv4js15a/OhN8PRa8HVNbbKp1ktLAAAAAAACLHMT1GJH9MwfjBEkLDLSeVwWtc1EiHG/QSt8Os/pMCo4scpaAAAAAAAAAAAAAAAAAAAAAAAAAAAAAAAAABzN/shD8sl8e0+Y/Ai3sXupZJOyytZByqGwJGfa1h+ZtvkbCm0/Z52tmcuJslqvi1X1Enm4XeMTOAVVy34aXC/3cue/3C4CBaoAAAAAAAAAAAAAAB8KfW1PaXfFqBVf0VH3I8vv26d+fJ4kBamAAixzO+96zT28T4xQKb5e/kxX91ljdZSU75Nm29dveWh0OaoWObdtZAAAAAAAAAAAAAAAAAAAAAAAAAAAAAAAAAAzvVvqma7/XnE/HzAkfB3bbwu9Ydy/iOzXlr86E3w9FrwdU1tsqnWS0sAAAAAAAIscxPUYkf0zB+MESQsMtJ5XBa1zUSIcb9BK3w6z+kwKjixyloAAAAAAAAAAAAAAAAAAAAAAAAAAAAAAAAAHM3+yEPyyXx7T5j8CLexe6lkk7LK1kHKobAkZ9rWH5m2+RsKbT9nna2Zy4myWq+LVfUSebhd4xM4BVXLfhpcL/AHcue/3C4CBaoAAAAAAAAAAAAAAB8KfW1PaXfFqBVf0VH3I8vv26d+fJ4kBamAAixzO+96zT28T4xQKb5e/kxX91ljdZSU75Nm29dveWh0OaoWObdtZAAAAAAAAAAAAAAAAAAAAAAAAAAAAAAAAAAzvVvqma7/XnE/HzAkfB3bbwu9Ydy/iOzXlr86E3w9FrwdU1tsqnWS0sAAAAAAAIscxPUYkf0zB+MESQsMtJ5XBa1zUSIcb9BK3w6z+kwKjixyloAAAAAAAAAAAAAAAAAAAAAAAAAAAAAAAAAHM3+yEPyyXx7T5j8CLexe6lkk7LK1kHKobAkZ9rWH5m2+RsKbT9nna2Zy4myWq+LVfUSebhd4xM4BVXLfhpcL/dy57/AHC4CBaoAAAAAAAAAAAAAAB8KfW1PaXfFqBVf0VH3I8vv26d+fJ4kBamAAixzO+96zT28T4xQKb5e/kxX91ljdZSU75Nm29dveWh0OaoWObdtZAAAAAAAAAAAAAAAAAAAAAAAAAAAAAAAAAAzvVvqma7/XnE/HzAkfB3bbwu9Ydy/iOzXlr86E3w9FrwdU1tsqnWS0sAAAAAAAIscxPUYkf0zB+MESQsMtJ5XBa1zUSIcb9BK3w6z+kwKjixyloAAAAAAAAAAAAAAAAAAAAAAAAAAAAAAAAAHM3+yEPyyXx7T5j8CLexe6lkk7LK1kHKobAkZ9rWH5m2+RsKbT9nna2Zy4myWq+LVfUSebhd4xM4BVXLfhpcL/dy57/cLgIFqgAAAAAAAAD8HJcqxjC4d3kOY5HA4nj7CztH05ksxHwUOys/27t3JyjhqybWdfpd0svZT/8AIGFYVvPSeypJaH1zuHVmfy7Zte9cRWFbBxLKpJBmndbao7WYwUu/dJNrLr7Lb170rUrbrraXX0rdSlQ/Qjtvanl8ocYPE7P15KZq0uVsdYhHZrjT3KG16HXVexxj7aTVlkbkaW3drao0tqn3Ne7pb1VA7WZbP1prmjK7YWw8GwS2SUqlHXZllsBi9H6tK20qmyrNyDGjpSlbraVsQ7S6lbraVp6dAMuYv2MozbSMY9aSMe8RscM3zFwi7Zu26ttLkl2zlveoguipbWl1iqV99l9taVturSvWB2FPrantLvi1Aqv6Kj7keX37dO/Pk8SAtTAARY5nfe9Zp7eJ8YoFN8vfyYr+6yxuspKd8mzbeu3vLQ6HNULHNu2sgAAAAAAAAAAAAAAAAAAAAAAAAAAAAAAAAAZ3q31TNd/rzifj5gSPg7tt4XesO5fxHZry1+dCb4ei14Oqa22VTrJaWAAAAAAAEWOYnqMSP6Zg/GCJIWGWk8rgta5qJEON+glb4dZ/SYFRxY5S0AAAAAAAAAAAAAAAAAAAAAAAAAAAAAAAAADmb/ZCH5ZL49p8x+BFvYvdSySdllayDlUNgSM+1rD8zbfI2FNp+zztbM5cTZLVfFqvqJPNwu8YmcAqrlvw0uF/u5c9/uFwEC1QAAAAAAAABX50nfF3OeY3D3ZOg9dK46jlWY0jE2N+WW1vx/qavU11bZRG1Zveu0ustrRZCxWy9Wyt1lteutAKbn+0cv6PJ1mGmdn8PuKOm9s5/wAadhSemd8cVMHbYq3yJ1g8dDsJ7H8nTcPJXJG8rctLRcsg4UeNWLtRu5UtRUuSpVMPNM24v6r0n0VXDzmzr9s5jOU10txW3DPbtbSshTOs1yPbuVYS8z2Hyeb811cz0NPpZLLxdIORudRrZBzakzaodkj2YSq03qfX/P3pA+YTnlNjDLZMPqTT2msX1vheU1WdY3h92WxU5Lz+TxUFerawQnZJw9SQpNVb3Pm/1KQtbOUbkQJc9DNNzSfH3bmqn8tLT8DofkruHUuCy8zIO5V7fhOLZI4j4COukXqq7h2nFMmybZJRVVRWttf9RS+6vWBMHknufk3q99DNdD8QpPkmwkGqykxJMNy631jSCWt7ulqF7XOHKC8hW+2lt3aNKVsp3fVX07agQ16GWcyrJdNcmJ/OMLW13l0rzU3o8yDB15uLyRbGJJRPE+3ilJ6FuvipW5v1U63bC+5up3X+SvpVAuFAARY5nfe9Zp7eJ8YoFN8vfyYr+6yxuspKd8mzbeu3vLQ6HNULHNu2sgAAAAAAAAAAAAAAAAAAAAAAAAAAAAAAAAAZ3q31TNd/rzifj5gSPg7tt4XesO5fxHZry1+dCb4ei14Oqa22VTrJaWAAAAAAAEWOYnqMSP6Zg/GCJIWGWk8rgta5qJEON+glb4dZ/SYFRxY5S0AAAAAAAAAAAAAAAAAAAAAAAAAAAAAAAAADmb/ZCH5ZL49p8x+BFvYvdSySdllayDlUNgSM+1rD8zbfI2FNp+zztbM5cTZLVfFqvqJPNwu8YmcAqrlvw0uF/u5c9/uFwEC1QAAAAAAAAB4dyG19tbZmtnuM6X3JdonPrpKJkIvP64lbnDdonHPUnTmPfY1dkGL/AFRYSaKdzN2lbNM7qoqX9ypSvUBAfBejNyzKtvV3jzV5IOeUmcROvsp1rg0XDa4S1LgGGQGbWs7cpescUVzLYS7mfkrY2OspJXzSKaNjattGl9VOuwPIcT6HjMmFmtNSZ3zAybPOG2m86hs411x2U1yjEzbauIzCU7guNZPs2ubSSeRYzicgzjKsY9PCIq9RCObI1XT7mt4Hu2/ejqz7Jt5znIXinyWccWs+z/BYnXO1m6mtk9mYzmuNwCkldAuEIe3NcGUhciirJiQTbTNX0lZS29vSrCtEOq8JY8QOLWJcP9JwmncUmJbJ728hKZHlOYTvZ0mcwzLIFrXmR5LI2p3X2pOJV9S9zch2q/Y933HbKdXdVCTqn1tT2l3xagVX9FR9yPL79unfnyeJAWpgAIsczvves09vE+MUCm+Xv5MV/dZY3WUlO+TZtvXb3lodDmqFjm3bWQAAAAAAAAAAAAAAAAAAAAAAAAAAAAAAAAAM71b6pmu/15xPx8wJHwd228LvWHcv4js15a/OhN8PRa8HVNbbKp1ktLAAAAAAACLHMT1GJH9MwfjBEkLDLSeVwWtc1EiHG/QSt8Os/pMCo4scpaAAAAAAAAAAAAAAAAAAAAAAAAAAAAAAAAABzN/shD8sl8e0+Y/Ai3sXupZJOyytZByqGwJGfa1h+ZtvkbCm0/Z52tmcuJslqvi1X1Enm4XeMTOAVVy34aXC/wB3Lnv9wuAgWqAAAAAAAAAAAAAAAfCn1tT2l3xagVX9FR9yPL79unfnyeJAWpgAIsczvves09vE+MUCm+Xv5MV/dZY3WUlO+TZtvXb3lodDmqFjm3bWQAAAAAAAAAAAAAAAAAAAAAAAAAAAAAAAAAM71b6pmu/15xPx8wJHwd228LvWHcv4js15a/OhN8PRa8HVNbbKp1ktLAAAAAAACLHMT1GJH9MwfjBEkLDLSeVwWtc1EiHG/QSt8Os/pMCo4scpaAAAAAAAAAAAAAAAAAAAAAAAAAAAAAAAAABzN/shD8sl8e0+Y/Ai3sXupZJOyytZByqGwJGfa1h+ZtvkbCm0/Z52tmcuJslqvi1X1Enm4XeMTOAVVy34aXC/3cue/wBwuAgWqAAAAAAAAAAAAAAAfCn1tT2l3xagVX9FR9yPL79unfnyeJAWpgAIsczvves09vE+MUCm+Xv5MV/dZY3WUlO+TZtvXb3lodDmqFjm3bWQAAAAAAAAAAAAAAAAAAAAAAAAAAAAAAAAAM71b6pmu/15xPx8wJHwd228LvWHcv4js15a/OhN8PRa8HVNbbKp1ktLAAAAAAACLHMT1GJH9MwfjBEkLDLSeVwWtc1EiHG/QSt8Os/pMCo4scpaAAAAAAAAAAAAAAAAAAAAAAAAAAAAAAAAABzN/shD8sl8e0+Y/Ai3sXupZJOyytZByqGwJGfa1h+ZtvkbCm0/Z52tmcuJslqvi1X1Enm4XeMTOAVVy34aXC/3cue/3C4CBaoAAAAAAAAAAAAAAB8KfW1PaXfFqBVf0VH3I8vv26d+fJ4kBamAAixzO+96zT28T4xQKb5e/kxX91ljdZSU75Nm29dveWh0OaoWObdtZAAAAAAAAAAAAAAAAAAAAAAAAAAAAAAAAAAzvVvqma7/AF5xPx8wJHwd228LvWHcv4js15a/OhN8PRa8HVNbbKp1ktLAAAAAAACLHMT1GJH9MwfjBEkLDLSeVwWtc1EiHG/QSt8Os/pMCo4scpaAAAAAAAAAAAAAAAAAAAAAAAAAAAAAAAAABzN/shD8sl8e0+Y/Ai3sXupZJOyytZByqGwJGfa1h+ZtvkbCm0/Z52tmcuJslqvi1X1Enm4XeMTOAVVy34aXC/3cue/3C4CBaoAAAAAAAAAAAAAAB8KfW1PaXfFqBVf0VH3I8vv26d+fJ4kBamAAixzO+96zT28T4xQKb5e/kxX91ljdZSU75Nm29dveWh0OaoWObdtZAAAAAAAAAAAAAAAAAAAAAAAAAAAAAAAAAAzvVvqma7/XnE/HzAkfB3bbwu9Ydy/iOzXlr86E3w9FrwdU1tsqnWS0sAAAAAAAIscxPUYkf0zB+MESQsMtJ5XBa1zUSIcb9BK3w6z+kwKjixyloAAAAAAAAAAAAAAAAAAAAAAAAAAAAAAAAAHM3+yEPyyXx7T5j8CLexe6lkk7LK1kHKobAkZ9rWH5m2+RsKbT9nna2Zy4myWq+LVfUSebhd4xM4BVXLfhpcL/AHcue/3C4CBaoAAAAAAAAAAAAAAB8KfW1PaXfFqBVf0VH3I8vv26d+fJ4kBamAAixzO+96zT28T4xQKb5e/kxX91ljdZSU75Nm29dveWh0OaoWObdtZAAAAAAAAAAAAAAAAAAAAAAAAAAAAAAAAAAzvVvqma7/XnE/HzAkfB3bbwu9Ydy/iOzXlr86E3w9FrwdU1tsqnWS0sAAAAAAAIscxPUYkf0zB+MESQsMtJ5XBa1zUSIcb9BK3w6z+kwKjixyloAAAAAAAAAAAAAAAAAAAAAAAAAAAAAAAAAHM3+yEPyyXx7T5j8CLexe6lkk7LK1kHKobAkZ9rWH5m2+RsKbT9nna2Zy4myWq+LVfUSebhd4xM4BVXLfhpcL/dy57/AHC4CBaoAAAAAAAAAAAAAAB8KfW1PaXfFqBVf0VH3I8vv26d+fJ4kBamAAixzO+96zT28T4xQKb5e/kxX91ljdZSU75Nm29dveWh0OaoWObdtZAAAAAAAAAAAAAAAAAAAAAAAAAAAAAAAAAAzvVvqma7/XnE/HzAkfB3bbwu9Ydy/iOzXlr86E3w9FrwdU1tsqnWS0sAAAAAAAIscxPUYkf0zB+MESQsMtJ5XBa1zUSIcb9BK3w6z+kwKjixyloAAAAAAAAAAAAAAAAAAAAAAAAAAAAAAAAAHM3+yEPyyXx7T5j8CLexe6lkk7LK1kHKobAkZ9rWH5m2+RsKbT9nna2Zy4myWq+LVfUSebhd4xM4BVXLfhpcL/dy57/cLgIFqgAAAAAAAAAAAAAAHwp9bU9pd8WoFV/RUfcjy+/bp358niQFqYACLHM773rNPbxPjFApvl7+TFf3WWN1lJTvk2bb1295aHQ5qhY5t21kAAAAAAAAAAAAAAAAAAAAAAAAAAAAAAAAADO9W+qZrv8AXnE/HzAkfB3bbwu9Ydy/iOzXlr86E3w9FrwdU1tsqnWS0sAAAAAAAIscxPUYkf0zB+MESQsMtJ5XBa1zUSIcb9BK3w6z+kwKjixyloAAAAAAAAAAAAAAAAAAAAAAAAAAAAAAAAAHM3+yEPyyXx7T5j8CLexe6lkk7LK1kHKobAkZ9rWH5m2+RsKbT9nna2Zy4myWq+LVfUSebhd4xM4BVXLfhpcL/dy57/cLgIFqgAAAAAAAAAAAAAAHwp9bU9pd8WoFV/RUfcjy+/bp358niQFqYACLHM773rNPbxPjFApvl7+TFf3WWN1lJTvk2bb1295aHQ5qhY5t21kAAAAAAAAAAAAAAAAAAAAAAAAAAAAAAAAADO9W+qZrv9ecT8fMCR8HdtvC71h3L+I7NeWvzoTfD0WvB1TW2yqdZLSwAAAAAAAixzE9RiR/TMH4wRJCwy0nlcFrXNRIhxv0ErfDrP6TAqOLHKWgAAAAAAAAAAAAAAAAAAAAAAAAAAAAAAAAAczf7IQ/LJfHtPmPwIt7F7qWSTssrWQcqhsCRn2tYfmbb5GwptP2edrZnLibJar4tV9RJ5uF3jEzgFVct+Glwv8Ady57/cLgIFqgAAAAAAAAAAAAAAHwp9bU9pd8WoFV/RUfcjy+/bp358niQFqYACLHM773rNPbxPjFApvl7+TFf3WWN1lJTvk2bb1295aHQ5qhY5t21kAAAAAAAAAAAAAAAAAAAAAAAAAAAAAAAAADO9W+qZrv9ecT8fMCR8HdtvC71h3L+I7NeWvzoTfD0WvB1TW2yqdZLSwAAAAAAAixzE9RiR/TMH4wRJCwy0nlcFrXNRIhxv0ErfDrP6TAqOLHKWgAAAAAAAAAAAAAAAAAAAAAAAAAAAAAAAAAczf7IQ/LJfHtPmPwIt7F7qWSTssrWQcqhsCRn2tYfmbb5GwptP2edrZnLibJar4tV9RJ5uF3jEzgFVct+Glwv93Lnv8AcLgIFqgAAAAAAAAAAAAdV8/YxjRd/JPGkexap3LOnr5wi0aNkbKdd6q7lxemiinZT07r1L7bbaenWtKAY5i2fYLnKblXCs1xLMEmd9E3auLZHD5Am1Ur19Sbm+JeO7UL69VeqxWtt3pV9L0gMqU+tqe0u+LUCq/oqPuR5fft078+TxIC1MABFjmd971mnt4nxigU3y9/Jiv7rLG6ykp3ybNt67e8tDoc1Qsc27ayAAAAAAAAAAAAAAAAAAAAAAAAAAAAAAAAABnerfVM13+vOJ+PmBI+Du23hd6w7l/EdmvLX50Jvh6LXg6prbZVOslpYAAAAAAARY5ieoxI/pmD8YIkhYZaTyuC1rmokQ436CVvh1n9JgVHFjlLQAAAAAAAAAAAAAAAAAAAAAAAAAAAAAAAAAOZv9kIflkvj2nzH4EW9i91LJJ2WVrIOVQ2BIz7WsPzNt8jYU2n7PO1szlxNktV8Wq+ok83C7xiZwCquW/DS4X+7lz3+4XAQLVAAAAAAAAAAAAAp26ZuVmn+ktH6fZTkzjuOcgOS2rdRZ9JQkk9hnimFZPIqozUdbKxy7V4z83I2URreg4RvrZW63u6UrUCO92l9dcGulN4jYnxkx1trHAuQmtM4xDZ+vcXvVZ4jNL460aTsRmDrHrFPqYlkLZWLqxUnUmqci5SkHCbl0rVa6lwWhco+cuqeJshBxOw8G5F5a5yRoq4Yq6T417v3mybWWdpbWyVfapwbLGsQtdWytbEZFVsrfSttbbK0utrUKYOA/Sa6i0ZjvIhhsTQnPONc7B5UbZ2fjVjLgLy6l7XWI5TZj9sO8XvjNQOrGblarBz2rB1VF637m3t0E+7t6wnp6NPxf8AxLdIB/67uZv0LAPRp+L/AOJbpAP/AF3czfoWA8I5J9LboLZGoclxHFNF8+3s5JXMKtG63R8cxGSd9G7xJZTunDvTaKFnVZZWtO7Ut66+lTrr6RXHKvw5vTitgfeu5FzKnJr94bVjs2KpVWsVyq1CVMoq1dlzpv2q1XZ0iry/sy4aaaPtzIftU0dyju00pVwWvTY1zMQ7FvDb9YmVWy6nDW6KxOlVedWY4KZ1XjlwdyTV4Jk2LuxRUUU/Zgp7n+6fwVRd+HEeDZzs/oX5VfRSaX/u7sqPzPsf+YXW+rL799Dg7u/XuIbZ7Ed+HEeDZzs/oX5VfRSPu7sqPzPsf+YXW+rHfQ4O7v17iG2exHfhxHg2c7P6F+VX0Uj7u7Kj8z7H/mF1vqx30ODu79e4htnsR34cR4NnOz+hflV9FI+7uyo/M+x/5hdb6sd9Dg7u/XuIbZ7Ed+HEeDZzs/oX5VfRSPu7sqPzPsf+YXW+rHfQ4O7v17iG2exHfhxHg2c7P6F+VX0Uj7u7Kj8z7H/mF1vqx30ODu79e4htnsR34cR4NnOz+hflV9FI+7uyo/M+x/5hdb6sd9Dg7u/XuIbZ7Ed+HEeDZzs/oX5VfRSPu7sqPzPsf+YXW+rHfQ4O7v17iG2exHfhxHg2c7P6F+VX0Uj7u7Kj8z7H/mF1vqx30ODu79e4htnsR34cR4NnOz+hflV9FI+7uyo/M+x/5hdb6sd9Dg7u/XuIbZ7Ed+HEeDZzs/oX5VfRSPu7sqPzPsf+YXW+rHfQ4O7v17iG2exHfhxHg2c7P6F+VX0Uj7u7Kj8z7H/mF1vqx30ODu79e4htnsR34cR4NnOz+hflV9FI+7uyo/M+x/5hdb6sd9Dg7u/XuIbZ7Ed+HEeDZzs/oX5VfRSPu7sqPzPsf+YXW+rHfQ4O7v17iG2exHfhxHg2c7P6F+VX0Uj7u7Kj8z7H/mF1vqx30ODu79e4htnsTHGPPTXcpkM1iMbpPmZIZXjaLFzkONMuF/Jp1PwTeUS7eNXmIdHWN8hGoyCH+syUeN0bHSX+ohW+z0x93dlR+Z9j/wAwut9WO+hwd3fr3ENs9iZH34cR4NnOz+hflV9FI+7uyo/M+x/5hdb6sd9Dg7u/XuIbZ7Ed+HEeDZzs/oX5VfRSPu7sqPzPsf8AmF1vqx30ODu79e4htnsR34cR4NnOz+hflV9FI+7uyo/M+x/5hdb6sd9Dg7u/XuIbZ7Ed+HEeDZzs/oX5VfRSPu7sqPzPsf8AmF1vqx30ODu79e4htnsR34cR4NnOz+hflV9FI+7uyo/M+x/5hdb6sd9Dg7u/XuIbZ7Ed+HEeDZzs/oX5VfRSPu7sqPzPsf8AmF1vqx30ODu79e4htnsR34cR4NnOz+hflV9FI+7uyo/M+x/5hdb6sd9Dg7u/XuIbZ7Ed+HEeDZzs/oX5VfRSPu7sqPzPsf8AmF1vqx30ODu79e4htnsR34cR4NnOz+hflV9FI+7uyo/M+x/5hdb6sd9Dg7u/XuIbZ7Ed+HEeDZzs/oX5VfRSPu7sqPzPsf8AmF1vqx30ODu79e4htnsR34cR4NnOz+hflV9FI+7uyo/M+x/5hdb6sd9Dg7u/XuIbZ7Ed+HEeDZzs/oX5VfRSPu7sqPzPsf8AmF1vqx30ODu79e4htnsR34cR4NnOz+hflV9FI+7uyo/M+x/5hdb6sd9Dg7u/XuIbZ7Ed+HEeDZzs/oX5VfRSPu7sqPzPsf8AmF1vqx30ODu79e4htnsTKsF5sY5BZth83I8cOdyUfD5TASj5W3gnytVuTZx8q0duVLUk9T3qKXWIpX3UTTtuvvrSltttbq0oezw5yBspS7uINxbwWpdOyZNmWHfC7Vr2jOgvZdqdHKqNm2zUq5W5kMmTakc2bFBIkzIoZcuCKZHTRRDBDTFTRQ/hXpyk8JrUuzeKzKnbldmVu0bCteo1WXFYlry4Y6xW7PrFXkwxRx1OGCCiKZMhopijiohhop7sVNFFFNK6r0afi/8AiW6QD/13czfoWN/bWgejT8X/AMS3SAf+u7mb9CwD0afi/wDiW6QD/wBd3M36FgHo0/F/8S3SAf8Aru5m/QsA9Gn4v/iW6QD/ANd3M36FgHo0/F/8S3SAf+u7mb9CwD0afi/+JbpAP/XdzN+hYDwjkZ0tugtia2eY3i2i+fb2WWkotymgt0fPMRlZVJq7TVWuqu600kjSttlta0trfSt3+1tK19I9fci16jYtuS67aEyKVVoZE+XFHDLmTaaIo5cUMNH2JcMUVPdppoo7tFHco/3T+CPMT7vWpee6s+yrIkwT65MrVUmwwTJ0qRD9iTPhjjppmTo4IKKaIaKe5R3e7T/qhXv39uIeDnzv/oQ5Y/RITPnHul+fnew1z5KtWZW/+5tV4zqHaDv7cQ8HPnf/AEIcsfokGce6X5+d7DXPkmZW/wDubVeM6h2g7+3EPBz53/0IcsfokGce6X5+d7DXPkmZW/8AubVeM6h2g7+3EPBz53/0IcsfokGce6X5+d7DXPkmZW/+5tV4zqHaDv7cQ8HPnf8A0IcsfokGce6X5+d7DXPkmZW/+5tV4zqHaDv7cQ8HPnf/AEIcsfokGce6X5+d7DXPkmZW/wDubVeM6h2g7+3EPBz53/0IcsfokGce6X5+d7DXPkmZW/8AubVeM6h2g7+3EPBz53/0IcsfokGce6X5+d7DXPkmZW/+5tV4zqHaDv7cQ8HPnf8A0IcsfokGce6X5+d7DXPkmZW/+5tV4zqHaDv7cQ8HPnf/AEIcsfokGce6X5+d7DXPkmZW/wDubVeM6h2g7+3EPBz53/0IcsfokGce6X5+d7DXPkmZW/8AubVeM6h2g7+3EPBz53/0IcsfokGce6X5+d7DXPkmZW/+5tV4zqHaDv7cQ8HPnf8A0IcsfokGce6X5+d7DXPkmZW/+5tV4zqHaDv7cQ8HPnf/AEIcsfokGce6X5+d7DXPkmZW/wDubVeM6h2g7+3EPBz53/0IcsfokGce6X5+d7DXPkmZW/8AubVeM6h2hjN3SQ6gtyuzBLtO8zbc3ViLp9LD7uFXKC3J1IK1xVpdNJwNdW0lL4q11bc2rIWtatKOKVRqt2lK2jOPdL8/O9hrnyTMrf8A3NqvGdQ7Qybv7cQ8HPnf/Qhyx+iQZx7pfn53sNc+SZlb/wC5tV4zqHaDv7cQ8HPnf/Qhyx+iQZx7pfn53sNc+SZlb/7m1XjOodoO/txDwc+d/wDQhyx+iQZx7pfn53sNc+SZlb/7m1XjOodoO/txDwc+d/8AQhyx+iQZx7pfn53sNc+SZlb/AO5tV4zqHaDv7cQ8HPnf/Qhyx+iQZx7pfn53sNc+SZlb/wC5tV4zqHaDv7cQ8HPnf/Qhyx+iQZx7pfn53sNc+SZlb/7m1XjOodoO/txDwc+d/wDQhyx+iQZx7pfn53sNc+SZlb/7m1XjOodoO/txDwc+d/8AQhyx+iQZx7pfn53sNc+SZlb/AO5tV4zqHaDv7cQ8HPnf/Qhyx+iQZx7pfn53sNc+SZlb/wC5tV4zqHaDv7cQ8HPnf/Qhyx+iQZx7pfn53sNc+SZlb/7m1XjOodoO/txDwc+d/wDQhyx+iQZx7pfn53sNc+SZlb/7m1XjOodoO/txDwc+d/8AQhyx+iQZx7pfn53sNc+SZlb/AO5tV4zqHaDv7cQ8HPnf/Qhyx+iQZx7pfn53sNc+SZlb/wC5tV4zqHaDv7cQ8HPnf/Qhyx+iQZx7pfn53sNc+SZlb/7m1XjOodociPO/D7Fkr7uOnO+ltqid11e8Q5Y16qW3UrWvVTUnXX0qf8HzFiPdOmGKiivzqaaYaaKKP+DXPxp7n/uT3H3LwWv9DMgips2q9yGOGKn/ALnUP9URUU0/+QtxY9NFxiQZtEVNK8/6KJNkU76U6O/mZWlL7E7bbqUrTS3VXqrStOunpV/4K3zYqIpsyKH8aIpkcVFP+u7RTFTTR+H/AMpXQkQxQSJMEVHciglS4IqO7RT3IoYKKKaO7RTTRT+NH+6KXa9Gn4v/AIlukA/9d3M36FjGyno0/F/8S3SAf+u7mb9CwHj3HLkfBctulfZ7Z1zqzkhiuv8AEuC+W6/lcl3Xxv3Xo2NUyyT3bhU+zh41xtbCMTTlXKkUzcu62x9zjuE0b+76q21pQL2wAAAAAAAAAAAAiXzR4nY5zH0rIaqmcjlcKmWkrHZXgucwliSsphmbQSlXEFkTRBalLHNzBxXu7m/aIVWsrdZRZOtaXUCMXGzo/wDbuJ8gI/k7y85IsOS+2cMwt5r/AFZfjWt19W4jhOPybpk6lX90A9zLPHklk8hWObIuJe2ZZtuwUdWWRlnb0qmFp1yad/8A52WX9X+3dW23dX8aVA+KNm9vX3KCNvXXrr1JWU661/3rXqt/3/8AyB/ewQ9ZS9zs+YB2CHrKXudnzAOwQ9ZS9zs+YB2CHrKXudnzAOwQ9ZS9zs+YB2CHrKXudnzAOwQ9ZS9zs+YB2CHrKXudnzAOwQ9ZS9zs+YB2CHrKXudnzAOwQ9ZS9zs+YB2CHrKXudnzAOwQ9ZS9zs+YB2CHrKXudnzAOwQ9ZS9zs+YB2CHrKXudnzAOwQ9ZS9zs+YB2CHrKXudnzAQ11bxsnsG5gcl+Qr+SinWObpxzVcPCRCCFbX8YvgsB9SZBR3fdfdZfY6W/1Ee4TsrS2vp1ur6YEyuwQ9ZS9zs+YB2CHrKXudnzAOwQ9ZS9zs+YB2CHrKXudnzAOwQ9ZS9zs+YB2CHrKXudnzAOwQ9ZS9zs+YB2CHrKXudnzAOwQ9ZS9zs+YB2CHrKXudnzAOwQ9ZS9zs+YB2CHrKXudnzAOwQ9ZS9zs+YB2CHrKXudnzAOwQ9ZS9zs+YB2CHrKXudnzAOwQ9ZS9zs+YB2CHrKXudnzAOwQ9ZS9zs+YB2CHrKXudnzAOwQ9ZS9zs+YB2CHrKXudnzAOwQ9ZS9zs+YB2CHrKXudnzAOwQ9ZS9zs+YB2CHrKXudnzAOwQ9ZS9zs+YB2CHrKXudnzAOwQ9ZS9zs+YB2CHrKXudnzAOwQ9ZS9zs+YB2CHrKXudnzAOwQ9ZS9zs+YB2CHrKXudnzAOwQ9ZS9zs+YB2CHrKXudnzAOwQ9ZS9zs+YB2CHrKXudnzAQnd8Yshcc94rlZbKRNMSYcenOo1IGqFfqndMrZgvkNJC1Tu+z8yUbKWo9z2PddpSte7pT0qBNjsEPWUvc7PmAdgh6yl7nZ8wDsEPWUvc7PmAdgh6yl7nZ8wDsEPWUvc7PmAdgh6yl7nZ8wDsEPWUvc7PmAdgh6yl7nZ8wDsEPWUvc7PmAdgh6yl7nZ8wDsEPWUvc7PmAdgh6yl7nZ8wDsEPWUvc7PmAdgh6yl7nZ8wDsEPWUvc7PmAdgh6yl7nZ8wDsEPWUvc7PmAdgh6yl7nZ8wH9tSSsu7qxJO27q7nurbLbbu56+vq66UpXq6/T6uvq6wOQAAAAAAAAAAAAAAAAAAAAAAAAAAAAAAAAAI3cs+TuA8P9FZpvfY1r91A4k1To2h4hDzTMZDNPbqoxEBEt63WWKSEq87hq2oqokjRS+2qqqdnXdQIH6+5RdKZmUDjW1HnCfTsdrLJ1ImQa4JZtp/5/LPGZhRG9B++jnFtmt7Hzdium8dMrMzvvspaolZbetbROoSFynpOOGmA58lq/P8AZ0xiWaWSLGDkrZLVm3K4dET729FCkTJbMbYM41uzXTdrUa3qL5ZYhRX/AHW6q0qBnu8eevE7jjP4hi24NtscZyDPoKSyTCotnjmYZQ5yiIikm6zxaEpiePzlsg4ok6QvbR7a5SQfUv6mTVxW2+lofu6Z5o8Zd/a6yja2sdqRUng+EKSCWZyc/F5Dgj7ElYu1S98nkuP53EY3kUEojalfWlknFNbleqnY0Urdb1hgWk+kY4iciM+u1pqLZE7k+Udk9XbXuNT7fxvGJRCPpW52vCZxlGCQ2FTiCVtK30WiJ96kpZ1XJ3X23W1qH4Ul0oPBuI2ZdqZ9u5FPKbJy3GlZJHBNlO9eoz96tULIlxthph6+r2725enYWorZfZdcvWiVOtStLQP2d1dJBw24+5w/1ntHbl8XsGPx1lld+GwGBbJzrIXkBI0suZyETGYLiGRuZqxSxS1W9KJTeroI9azhJJO266gTMx+djcng4jI4dRwrFTkczlY5V0xexrlRk/Qsctr3EfJN2kgyWuSUtqo1etm7pC6tU10U1LbraB+uAAAAAAAAAAAAAAAAAAAAAAAAAAAAAAAAKSMY6XCRp0nmbcDtj6siMR14wURhMD3ShMPnP1ezZwyQdNMVmWCqdrSMeyV63YxtbK3WOLrertKVA98150kGIq7G5rw28bcU1RrfiXlGDQKGb3yUrIOckRy6Ffyd17qLTZrOLn6SzOxsxj4VB84eVV7mxK5Tubah7toHn3xQ5Of4oS07tC+bf4ZFKzmRQeRYTsHXmSsoVFO9a+XRxnYmK4tPyEbVJO++x9HRrtsrbSlU1L+6t6w8fiOl26PSemMfhYnkG1eKZLNXY5Gy1mvtqWYqlPWv7oz6kTGZK4RZiePyFz62rexrOzMctffW3uLLqX2VuCx6103vbUe2LJ3tKoeabXFl9LkrkO47Ttbb6VrbWzuP81LqV6ur0wKc69INyg5D7l2jrbgPx/1xsPCtLZG5w3Otz7vzSbw/BJHL46ltZXH8OtxFnPT8q5YX3URWcuIZuwotXuaOq0pdWgS4xvlVkuuNMy+yeaev7tCyeNytYqSb4onM7RiZql3V5nkMTY4QzyXLn7Rz19Sbd1BtpG2taUUZ21qBleiecHGLklE5hMai2OpN2YAxXksxiZ7Dc7wHKsfjm6CrlR8/w3P8ZxjK7GlUUFb0nFsNek4rZW1C9S6tLah4ZA9Lp0e2TzeMwMHyCavlsul7YCElrdf7TRxO+dUe/U5OHks1cYSliMHKKPuprYwm5qPdXrXW2WpVrfb1h7XyF51cWeLTuAi90bPsg53J0LncFjGM4lnGyctkGNvV3Uinietcby3I7I2ndUp9UVoxNl3XXb2/XbWlAZFzq4tYlpuC33kmzvqPrXKFE0MdevcQzpPJpt4rS66yOi9e/wCGa7BeylbbL63RbfGFJCyid9b21tLLq0D8zBOkD4jbJ1ZsncuKbbQXwXUEQ/n9lrTOJZ1i2TYdDxjOsg8fzOB5RjMPnSCNjO2rhKtuOX3ObPSbWq3f5QO9x953cXeU82tA6F2I/wBgrIw6M99VmWAbGi8Vcxji1O9JWPzKexOLxSTWrapZ3bOOmXTxGta2rIWXW3UoEvQAAAAAAAAAAAAAAAAAAAAAAAAAAAAAAAAAAAAAAAAAAAAAAAAVWdMVovZO9OG8yy1Pj73Mc019m2F7QZ4UwtvVdZYzwqXSmH8K1bJ23qOnrpu2qmzb2WX3qLX0ttturXqAwnV3TNcI5rCMTxtvm8iluyyKhoJ5x7sgnVdwR2T2tkGTiFXwWl9JpOjN9beksrVtS1NBO5ettLKAa6vOTlFnG8NOc1Yva3KrYGm9tY9P7FZYfwd1fqPVicrL4nCKOb8dzHI1Mw13ludvkZSOTTmpPIYSbh/MlKKqNVW16VL7Qs7wbH47PObfQ9uMzh2+R+Y+IOYSlPq2ysfJJS7fFcL7B8rY4TvSo+RrdfcmrdbS+y+++tvV11AwDd2o86z7KOmw1xpuCeqSTl7x7yhPE8aa3Nr8gjox7CZPnLJk2Zp2XLu5uBjZVFdNClVHt6tUb+67WttQsX4480eHPIHTsPxy415fhsXyFZ6ikoBhr1lFR7DMNbT7CA8yO2s8yTssfwDhJ3ZcndVe1K9zfZXuuuvWBr8aLwPTjTQzLify36SnkToDZSGT2xGccSn+C8cWMw7n2+Vpv2imJqT+i32y5ti4eJNV22Q0yhzLXoXXV+qV1lbusLpOOurcOQ6XzLaO2SuY0w3hXrGKxrJMxj2ryauQSqybfVBeqjVNu3lXretfNqjZBC6vd3p9zbZ/loGwDbbbZbbZZbbZZbSlttltKW2220p1UtttpSlKUpT0qUpSlKU/2A+gAAAAAAAAAAAAAAAAAAAAAAAAAAAAAAABq/T3Fm/lLyT6UjGoVVWF2ZiWQYHn+ocrbp1sfwGf4qzZSkK6Yr0tpfWrhZvVmonbdWxS1xWl1ta9XUFTmlthZ/vdHlXvTYeusjVjtL8v+Pzrk3hKcQ9dqWN8KxSWjJ6QXib07lJGJjXlEpRbtbVUrU6Xq317m3rAuUg9uah5m9IXjm7uGyjLKtR6o4z7chNwbHw+NTaYm+fZDiTtni2Ju3rCy1g9lYl91qXsb77l2N1tadxZ3IEcsf1xh8Z0CmznzHD4ZtMONhTOQKPk4dtbK3TNuz0FbJKjvsPNlrqy5O2qatilLrKU6ra0pWtKhctgnGPfewmGodpxfODf2FYYrr3FVJDRcLEaZca+l+uCSTctpCQndUy2eUSf3X1udXt8ybuKddaorI16uoK5eDHJfVfRWTnIrjBzdmrtIrTW+s62ZrTaWZoXRGB7LxfMX31QYXxWRPKpMXEuhS+5u4aWOFVO7sttpbaB79z86QZbIeLuE7T44z0jh2q8n2swxHNuROQa7Tl43X+I1tRuWzzG0Z9s+gXDLtL70m84/Zvo1O6yl9yN9tK0qFanCnL0Mg6RXfUhhvJ7ZvLDC8k4c5Yopt7McX1xjkJkrxlDP7km+Nr6wwPBYWfjGV193YSDpCSddd1bKuq1pUDMGOucQiOgMmX0biEM0mbtissi83oRDayVpN+e40XpJ2u6IebbXdL7LbrVqK91bSnVbWlnpAe1YttnVfDbnS73tzXuQx3XG5ONOsYjUO6s4j7HuGQUnE3LuJ3Ebp+RTqwx+Wc2uEXdUaKpuH1iltl1LrbaAfj9KFNQ248v4PcrNU7l2BqXiLjjjKUso3ZpzC8DyBph0tMdvfBZrIxudYVnGJNYDsqKN759xCUuQ81WXJu0+66rg8fhcB43ZDobpLN66f53bY5sZrlPD7LMWy2Zn4jUbPCWzRnHSq7SrdbUutsCjXmR07eqC9Xlrt3Y0sRT66WUpQC/zo0MIxXCOD/GyKxjHouBao6rxW/sWDBu0uqqvFtlVr1bk07FL1FFLq3X3KXVuuur11qBPAAAAAAAAAAAAAAAAAAAAAAAAAAAAAAAAAAAAAAAAAAAAAAAAACtKVp1VpStK/70r6dK/wD6A/Htx6Ascea7IOHsd913fmq2MZWuO76+vuu2ohRTuuv0+67rr6/+QPpWAgll1HK0JEKuVba2KuFY1moupZdTubrVFb0aqX21pWtK23XVpWnpVp1Adu1gxsUQVsZNLVWydUmytrZG1RuldSlKpIX0spcknWlKUrYnW22tKUpWnpUA+7GbRNRdZNq3sWc0pRyrYglao4pbTubaL3220uVpbb/lpRSt3VT0qekB020HCsnFztnDxbR1f1925bR7RBxf1/790skjYpd1/wDPXdXr/wCQPlaAgnLnzY4hYlw87ql3mpaNZque6p6dLu3vRuV7qlfTpXuuugHetZtLF6urGrexzcnRK5xaglavclb/AOKdVaW0Uqnb/wAWVu7mn/FAOwAAAAAAAAAAAAAAAAAAAAAAAAAAAAAAAAAHAm1apKqrpNkEll+qq6yaKdiq1aU6qVVUttpep1U9Knd1u6qf7AdZOIikrXViUZHp2Pb+0e2psm1lru+tK0re6ttSpRxf1VrTulaX16q1p1+mAZRMVG2KJx0ZHsE1evtU2TJs1sU6/wDftLUE07b+v/nuqV6wOT6nR9G1WVGLPzHdWtbmnmVDzNdWt3dVrVDuOyrWt3+ata2f+Xp/7gdqyyxO22yy22yy2lLbbLLaW2220/2pbbSlKUpT/ilKUpQD899DREnW26Sio2Qus/8AC58xau62e1qukpW3/wDXUB93RUXe08wXxrC5j1dXmK5m3uadX/x5mqnVHq//AOAPhtDRDOvWzio1pWidUqVbMWqFaJXU6qp9aSVn+nWnpVs/8a0/3oBzfU6P8zVZeYWfmOteurTzKh5mrXuu666odx2Va91/m6+4/wDL0/8Af0wON5ExUgmmi/jI98il1dkk8ZNnKafVTqp2diyd9tnVSlKU7mlPSp1AfV0XGXNKMLo5jcxpb3NGVzRvVpS2n+1tG1U+xpbT/wCO46gOFvCQrNFZu0iItq3cW1scIN49ogivZWnVWxZJJG2xW2tPSrbfbdStP96AfopJJIp2JIpppJJ20tsTSstTTstp6VLbLLKUtttpT0qUpSlKAfYAAAAAAAAAAAAAAAAAAAAAAAAAAAAAAAAAAAAAAAAAAAAAAAAAAAAAAAAAAAAAAAAAAAAAAAABVFyH53buv5WU4RcLNTYfs3d2P4M32VtXMdoychF6r1ZikisybQaUzWIlIaXl52fWfpqR8XDPVndGjOQcKNapt770wjXzF5YdJZx60pDzGy8a05rfIHfI3ithMZtDTV6WQ4rk+ObL3Ri+H5zh6mKbGfZTPRT5XH5B9b9WlGrXsrF7FIx0i9TtVtCfG9+kZ49cY56Jw3ayW4n2QK4vD5NMO9d6L2lsyBgYuTRU7OUyefwXF5mGxtnfe2dX3rSzpmikmirfddbZZdWgZRsnpBOKmrtIYJyEndkWTWuNoXRqGuVsGh5XO8kzp/Kt7XTWJxPEcVbSmRZBM2N7rlnUVFx7p80sRcXOEE6IK1sDFYvpLOLDzSGW8gZmX2NgOA4VJ2Qsy22fqPYmt81Ul1kk1WkZE4HmOPw+VzL+QtVtsjmkbFuF36vdJNU1VLbraB6Jxm5q6c5YKT7fWUVt+Ed42kgvIMdt6V2bpx+q2c3dyi6jWex8bx5xKNbq1t/+4YprpUpfZWt3Vdb1hLcAAAAAAAAAAAAAAAAAAAAAAAAAAAAAAAAAAAAAAAAAAAAAAAAAAAAAAAAAAAAAAAAAAAAAAAAAAAAAAAAAAAAAAAAAAAAAAAAAAABr155l7zo6+lN3ryW3Ph+XO+L3LHVeCQ7bcOMwjjI2Wt9ha9rajWBzNu27l1Gw86xkZN1HvWtrutq0ZYhe1r29FUwwjpLuYuqeZPGrEofj5HZ9m8JifL7hRNvM6Sw2SaYfId3yFwyjqOiXjitJF0/jG1KPpO1SLbtmrOvbXOa0pdSgeUcyt9bAccrd36j3zv8A3xxk1nC6awSvHzGdD4cwumN9SkvH5QlkjWRy2Wh8jaOlmCrOAaowl8Wxtb2SjlWr6+qlLbA8J4vY5olXomuKkly4zrfuhMw1/wAmd+S+pdpsIWxzmetcsjs5zdqyc5s0vhXbfzI6gPNEQ8TaxSTd1e7qkwUZ2KJLJh7pie2mPJXixyFx/m9nec5VxowPb+INtD8wNaa0WwDNZ+RRZN3jLKHkHIOMro7riL9W+rvILmtEXdqlE7YZCiFblAmV0WXInc2zd47f12js9fk7xixLDYl/g3I6Y1w6wPJK5So8aN7sGlXriQcWZUr9T73jy+SbxkEmhfHdxRkpRelyQXtAAAAAAAAAAAAAAAAAAAAAAAAAAAAAAAAAAAAAAAAAAAAAAAAAAAAAAAAAAAAAAAAAAAAAAAAAAAAAAAAAAAAAAAAAAAAAAAAAAAAAAAAAAAAAAAAAAAAAAAAAAAAAAAAAAAAAAAAAAAAAAAAAAAAAAAAAAAAAAAAAAAAAAAAAAAAAAAAAAAAAAAAAAAAAAAAAAAAAAAAAAAAAAAAAAAAAAAAAAAAAAAAAAAAAAAAAAAAAAAAAAAAAAAAAAAAAAAAAAA//2Q==;" vertex="1" parent="1">
          <mxGeometry x="168.77" y="310" width="245.78" height="190" as="geometry" />
        </mxCell>
        <mxCell id="fSu_uZtvP68bl21nm0Wx-2" value="" style="shape=image;imageAspect=0;aspect=fixed;verticalLabelPosition=bottom;verticalAlign=top;image=data:image/png,iVBORw0KGgoAAAANSUhEUgAAA1sAAAKhCAYAAACmQrTOAAAAAXNSR0IArs4c6QAAAARnQU1BAACxjwv8YQUAAAAJcEhZcwAADsMAAA7DAcdvqGQAAGmVSURBVHhe7d0HmBXl3ffxPyIdpIgVRRRFJYgNG6KIYkdQsGGLvSVYkpAYffJqTNNYEo0xMdh7ezRi72AB1IgKNsSCYqEoUqSD++739gzPSgAL3uie/X6ua67dPWfOnJk5s2fu39xlalVUCkmSJEnSd2q50k9JkiRJ0nfIsCVJkiRJGRi2JEmSJCkDw5YkSZIkZWDYkiRJkqQMHI1Qkqq5zz//PD744IN4+OGHo379+tG5c+do06ZN6dnqjVPUjBkz4tlnn43XX389Pvnkk6hVq1baxo033jhatGhRmlP65gYPHhyjR4+OVq1axe677156VJK+O7XPqlT6XZJqJArwr776ajz33HPx9ttvpwJ8vXr1Yrnlvlz5P2rUqHjllVdi0qRJsdpqq5Ue/f7Nnz8/rdsFF1yQ1v9HP/pRrLXWWqVnq7e5c+fGf/7zn7juuuviscceS4Hr3XffjTXWWCPWXnvtWGGFFUpzftm4ceNi0KBB8dlnn0WjRo3S56nyxkWHmTNnxjvvvJOOk9deey1Nb775ZowdOzamTp2agjrHQu3atdNrbrjhhrj99ttj9uzZseuuu6bHJOm7ZDNCSTUeAYqg0rt37zj44INT6Jo+fXrp2f9z6623xi9/+cv429/+VnpEuVGrde2118ZTTz2VAtbxxx8fv/jFL2K77baLZs2aleb6b3yGBx54YPqs3nvvvdKjKlcELcLUyy+/HFdccUX8v//3/6Jfv37peDnhhBOif//+ceGFF6ba3w8//LD0KknKz7AlSSUU2Cjc/+///m+qIdL3j5qtl156KQWtnj17pgC1yy67xLrrrhsNGzYszaWabsqUKXH33XfH0UcfHZdddlmqle7Ro0eccsopceKJJ8ZWW20VL774YvzpT3+Kq666qvQqScrPsCVJJfR3olBP8zOaHxG89PXMmzcv5syZU/rru0MA/vjjj6Nu3bqpyWCDBg1SM7Dll18+NQlTeeO4InAvCcfI/fffn2pAaUZ42mmnxRlnnJFqtQ444IDo27dvnHTSSan2mppr/sclaVlxgAxJNd4TTzwR//jHP+LJJ5+MXr16pT4c1KAcccQRsckmm5Tmivjd734X99xzT7Rv337B1XGaGw4ZMiT1+dphhx1igw02+FL/IPqCXHrppbHqqqvGFltskWpkKEDSzI2+SGuuuWbqYzV8+PAYM2ZM6n+1+uqrR8eOHWPTTTdNfY6Yl/D36aefpkDI4wwO0bJly/QeLI9lUcikad2Pf/zjNB/9Vlg/Qsr6668f22yzTTRu3PhLfdEoqI4fPz5d9advy+TJk9PjK6+8cmy22Wax3nrrfam53siRI9N78Z577LFHPP/886mPDNvZrl272HvvvUtzLhqFYfrPsE3vv/9+eh19quhjxnbxkyBFnyv2Cc2+aBa2yiqrxOabb57Wh22gtqJJkyalpf43ajkoZO+3337x85//PDp06JDCM+t61113RadOnaJp06ZpYBEGSCAost95Dz5fCvhDhw5NfeHYJ6wj+3D77bdPNWpF0ON17Oc33ngjNU+bNm1a+gzZ5yyH92W5VXHanThxYto+mrCyXmwL+2/DDTeMe++9N+1zjhfes8B7sa58BvRbY1+yLgyGwvvw2qoBlNoe1uuFF15I/QzZpjp16qQ+iczLMcY+WJyiad5tt92Wjqd11lknfV7UNHJcss6s35ZbbpmWWfW92QccrxwfHFe8P1ZcccX0OfO6qoObsF38H/GeDH7Ca9566620DezHPn36lOb8b8xHkOIiCcf46aefngLVwv302H5qrHkPth9/+MMfUlBjG2hmWGA+/ufYz3z+HO8cA+xr/vfatm37pe3ls+G4Zns5rvm/4/+M19C3kP8l/tcLNHfks+c1fP70IeOY4Rhge6vOK6l6c4AMSTUeBSoCBAXlI488MhWyKAxTMNxoo40WdKYnlFF4XWmllRaECgqDN998cxrAgaBFIaxqIY+C1LHHHpsKmxRWeZ6CGWHgX//614LC3yOPPJIK34QQghuFWQqMjMLHcxREKcgNGzYsPvroo/QcAYTCM6+noM98FPJYX+ZjWYQoCsdsIwVzXkctEQVF1oNQw7oQIgkXvDcBY8SIEWmdeQ3vw2tAgZag+fjjj0fz5s3jwQcfTPuOEEOBvGvXrmm+RaGwSyHz3//+d+r/xnsUg46wX9n/BBMKqBMmTEjbTDBie3ktBX8KsoRDmhQy3+KwPJqDEmQpvBMeeT3rSq0HnwvL4m8m9i37iUI1nx/Bl/cu9iOfDdvI58d2F58xnxOfP/uFedh/TCyLgjT7jf1HQCywbQT7q6++Ou1HggafD48zEc75XCikU/gG4YX1HDhwYAoHfK7sO96LYMK+YxsJMBTyWS/W4frrr4+HHnpowXxMHHM8T+BgWxaH96RW8Te/+U3aPxwPvO8zzzyTls32st5sI+vKschxxWfFZ3TfffelfVgcV4RSPnP+tziuuFhATSXYx5dffnkaHZDjl/3Je/I6Pudu3bql+Rbl0UcfTe/Fehx11FEppBbHa1Usl/fk/7fA58A+YTTCqgNkEPLvuOOOtI18H7AehFyCHf9jbC/rzjLZXkL7TTfdlP6XWG8+02Lif5OQxsT/HMfdjTfemD7HYl7WgZ8cl3zvsHxJ5cGwJanGK8IWV7Cp0aLmgUIWBSmuSBdX/xcVtigcUSCnQEatB1fsF67ZIlQVNTMU1inQU8hiouDL+xLEunfvngpaFOh4jvkIJRQ2t9566xT8CAwUBClYUyCj8Fg1bLEeFJBZd2qeeA0F6yI0UGilgE3tEfNREP/jH/+YlkG/Fgqc1HhQ6KcQy2upTSpGXyQYsW4UPtlv7Au2mxoFrsizHYtDAfyaa66JAQMGpEBALSIDXRBEWB6FT/YTtVvsB7aNK/wUwNlvzE+zsC5duqT9zDYszqLCFjVBhCiCJdtHoZlwt9tuu0Xr1q1TEChqqShYs/+33XbbFErYDxTMQahm3cDjNF+jlofPl+2hNpTXMqgHQZF9VNSksJ8ZVZHaOkIIy2fIcbaPz5BwQqih8E9oIGwRehgxk/5GfMYcj/RH4rNkPVhnQjnHIscJQYPjihop3oeaGN6jOD5ZV445aveK7VgU1pUQx34kDLAOBAuCLtvI/uSY4nhg2dTGEbhYf/5Xfv3rX6f5qTUqjiuWx/HLcUzwL25RwPI5Rtnv7AeO+R133DEdk7zXko4r/kcIgNQaH3fccel4qlrrtCSLC1tcRCD8sD+pseaz5WICxz+fK+vNsUloZF8+/fTTaeAW9gGfC8viu4Pjmf3BMcP6Udt35513pv8Bvid23nnn9NmwjXyuRSBkfkllgmaEklSTVRbmKypDVkVl4aiisvBYUVnorthrr70qKgtaFZVBqTRXRcXZZ59dUVlwrDj88MNLj1RUVBbaK04//fSKysJRxfXXX18xZcqU0jNf4O/KsFLRp0+fisoCXHqsspBacdFFF1VUBoGKyjBUUVmIrqgsfFZUFpYrKgtuFeeff35FZTioqCx0VZxyyikVlUGworJQn55j3VheZUCouOOOO9LyKgu0FZUF94quXbtWVBakK3r37l0xduzYisqCbXod2/Tzn/+8YoUVVqioDFYVlQXx9LohQ4ZUVBYiKyoLkxX33XffgnWoDCEVlSGh4rDDDkvb+9vf/jbNj5tvvrmishBcseqqq1YceeSRaVnMz+sqg2VprkW77rrr0jpWhoiKypBXUVl4T6+tDH0Vt9xyS0VlAbaiMrBVVAaKisqAkbarMhxVVAaitL2VhdS072bNmlVRGQRKS120gQMHVlQW2NNnVVmAT4/xPrfffntFZZCrqAx0aT9XFoTTurOv2M4OHTpUVBaiKw499NCKyjCZ9h9TZRBM+4rPedCgQWl5qAxVFePGjauoLESn+Yr9x2fFPmf/nXTSSaW5K9Ljv/rVryoqg3Lav3xOzF98TieccEJa78pCeMXdd9+dXsMx9Pe//72iskBeceqpp1ZUBuoF78V6s02VASitW2UYSPuHz5PjgGOMz6jquvEalsn+XRKeZx9UhtWKygBXsffee1eMGjUqvZ7l8F5nnHFG2p+VQaPirbfeSq+rDFoVlUE/HdvsN/ZN8d78fvTRR6d9edppp6X5wXyVAaWiMphW7L///hXvv//+gnX+quPqmGOOSZ8ny+W4+SZ+//vfV1QG3rRfq+JzGj9+fNpW1oGJda8M1hWVoTFt36uvvprmrQy7aT9UBs2KyuBXMXHixAWvYRtYFp8JOJ779u2bvmsuv/zyLy2f35mKeSWVBwfIkKQqqHHhijVX1Cu/I1PtDlejqV3IgRoNamqobaBZEv02uMpOjQu1YjvttFOahyv9PMfj1AhUFsrSei2MWiHWnZoorvDzOq6SU/PE8qmFoBkXr+WKPrVTXL2nTxk1GdREMHHVnRotUHPCvqiKmiKuyPOTq/sse1FNt6qiVoAaDWqbqO2gFoDXUtPGOlKTQY0T68R81FyxHtRS8LlQa0LtQvHY0qC2h/VgHVh39hU1D9SoUcNAc0hqGNh/TNRQ8DzrV1kwXrA/qImg5orXMB/7gOdYP/Yf60pNTfEa9jlD0dPcj5pH3oN9wGtZPjVWbGdV1CDR3JB5qOFhHTke+Zz4zPjMeW1loT410+TYYL3YZ5UBJzV/ZH62k/diWzmWllQzuDBq/qh94b14PcthXXiMfUMtHe/PMUvzSWoqOeY4PoqmhdT28Ts1oLw3nzPHYdVji+O7qLFje7/OccW+Bfuabf4usH9YB7aVdQDL5rOmVovtK963ODbZDmpOOXY5Tnkd28CxwbqB7WfeyhCW/g/5yXxMvBdTMa+k8mDYkqSFUFCiWRSFZZrl0eyrKFh91yjQFU2pQGGMAhqFcQqZNBUkiBXP8RjhhL4fi1onCrcUgilsFyjAEb4oKFLQp4BHXzNCAAVDmlAyQMhvf/vboGU5PxkMhKZg9EWhGdSsWbO+VChmnQgrX1UQroomdUU4oABaFIz5yTYxyAOhgEDD+uVEeCiCQIF1YF+xbXz2VcMIBWA+K/Y74YfwANaX/Uhfqr/85S9p/5155pnpJ/2I2N8EniJssQ8IGGw/+6/qexTvy+dfNTTwngRePguat9GckOUXE81Uac5HmGEePiv2MU1IeU8+2z//+c+pSSEXDwgEfA7fBPuKfVY1CPB/wuMcWzRbZBsJenx+TASSqscVE7+zDqwnxx4BrepxRfilqWPV4/erFPN+021aEoIQTQwvueSStN7FZ0rfTJr50iS2OAb4X6WJJPucprAcB9zfjb6JNE3l8y9wfBEm+axpwnveeefF3//+93T88F3D/pNUXgxbkrQIFJ7op0EBjj4h9G/6NrVbVQuSi0LhlQJYVRQeCTFcAeeK98IFT55jXShcL4wCcBHOqmJZFPAp+FFIJDBQ2GU51ERQKKTAXnViHsIetU7MV3VbWB7hpGoo+Cq8N/Mvav3YpmJwB+ajhiQnAs3CNQhsE/uan9RsVA1irBfryD4g/BT7n0I5Aylce+21aRRL+lRRy8P+o1BO4ZljiO3htWwbYaj4PKq+B+9d1IhU3a+8noDG50WoWfhzopDOsqktpNaLZVPwp1aUe5Ix2AYF+xtuuCENysGAHvRxYnlfV1EjtjD2CfuK7WR/ELgI8xxjBMtFHVcEaS4wcFxV3X6wPALXwo8vSRHceW/27dJi/bjQwGfKQBYPPPBA6pNFvzgCJH3XeJ8i3PF/QP+6gw46KH12zHfLLbek/olMHBOESz4jjn36ae25557p+KP/F5/HlVdemYIc70t4l1Q+DFuStAgU4GhqxsAGFJboLF/1CnWBQl5RMF74yjp/U+isGlIWRqFyUQVLHmO5Syp0Lmq5vOeiQiHz8jgF+uI9WT4Fvn333TcNl02NyaKmo48+OoWAquvCaykYL2n9FlaExkWFRNa7eJz5in2aS7EPFqXYN0vC/qRwT7M99hFN4mgOyiAJDCfOY4cddtiCppjFZ1VsG38vvB94bHGfH6+hxvLQQw/90mdTdWLUQGpNCCt8XjTjO//881MtJQOL0FSUYeCpeTnnnHNSGFz4mF0c1mlxxxXbURxXrCcTwYxAwSAZi1pXpiOOOOK/ahd5LWFxcZ/NotDsljBIDSxB5etu0+IwyiMhi6abNHk8+eSTU60WA8n89Kc/TRdhFl5nmvYyD9vF/b1oXkntHiN3UptHiCKks22sb7FfjjnmmFSjSxjjZsx//etf04AwxfEiqfozbEnSYtAMi341XMWm9oK+LwvjSjaBhYIoV/SrFvQoXFGrsKhwkQu1FRTyFkYtFTUN1B6xztRG0KyQQiMFVUIlfb0WNVEDQXO3b1IAXhRqANhPi1s/atjYV0Vzvh86ajioISKEE0gplNPnqnPnzmm/sX8X7hfF/mfbCGpFs8oCwZxalaKWqMAy6MvE/icwLfz5FBMhgPkIwSAEUJPC+pxwwglpSPmLL744jZhIkPgmzdZYL2p3F8a283nSb4v/Ay5SsI1gvQkri1pXJpoLciwu7XHFRRHCDkGLULO0YYt+jXw27Ldzzz039tlnn9SHj76NSxoVkf3N9jKiKWGWWkTCGSGQGj2abxbYV4QsbrLMezBkPIGYeQhbRRNFSdWfYUuSFoMaAvrVMDw3/TconFJIropCEwVarkQzAETV5m80MeMGtYuqEcuFQEgzJsJLcXWcEMNQ9hSYaR5JYZiJgTf4yVDczAOuvFedKLh+V036KFxT40JTLIZXLwqUBAvuPUQNIkGEvkEErh869i/hkZ+EhqJpIvuNbaPQTrO/qhjIgkBEnx/2O4G8QAGf5n4LN4Vjn1FrRjCiJo1+YAt/TgSWqrWofGYcAzxO+CJQczzz3nzu7HPe5+teCOC4oklg1QEtOL7pS8axw42KCfC8D8GHQWbom8Xnyj5aeH15jG1f2qAFhlgncHGhgeZ77KOF/0/BPuHebcUQ/ovDPmEbWU8+U/Y/+5DXE4a411ixD8B+L/7HCZgcC3wnUGvHBRtey75me/l/KpqWFvOy35iXJrv8/U0+F0k/fIYtSVoMCkMUGvv06ZMKchQcF+7nQvMpCpdMFOLo6M4NWSlI00Gevh4UepcVCmqEQpokUXtBgZebrRL6KGwz4h+1IxQgKfhz1Z7CO/1FuAEuV9UJa7yWplT0OWF7vgs0a6MGjQDCoAD0haEmglpD+q3wOP1ZqD0gtPzQURCngMy6MogKA2JQmCc0sn0Lh28UBXBCLvOzz3ktr+H+SwyAwXFXNLkE78M9xuiHRU0any3HGX3DOL4YlIHmatRaEYYoyBc3NKZ2hWORe1hxfPJZEpoY7IOaNwr3XwfLJFgVxxXL4fjguOJY2muvvdLyWG+aTnIvruK+aqwH87Pu/CQQcQNjtvm7wLbQN42aKJoA0kyS/lZsN+/JfmI9GbSCvlEMCLMk7GcCEBcE2Eb2Hf8XLJN9TVCsiho1aqaKgS74THhP9hPbyPzU/PGZUxvKPbb4vHgN87L84ubgfPYEYoKepPJg2JKkJaCAVAQACk2LqqWimR03PqUZIaGBghQ/KTzRP4MC1LJCoY5aIWpIKChSuORGuRTyaOLGIApFrRHrRjMmmkcR0JifwjkT4YtCMYVM+pN8F2g2RaGYmhUKoRRe2Vf8ZF9RO9G3b99Us1Ud0GSOvjmESGpTGICCcMFnT8jlecJVVQQT9jehl2OJbeczYt/T1IwaEQIQhe2i1ocwR7M7AhfL5DPhfficeD2vJagR9Ah31LoQdCjIs07Mw/z8JCxwLNA8llD0dcMWAYBaR96b8M46c9Nk3of/D/qKFccVFyh69+6dBujguOI4qnpcsX8ImFWb1S0Nmu8xQAXN9/gsqHniRsxsc7Hd7CPCDdvOPlwSjlOaZFITVexn9iOfKaMncpGiao1cUePIdhYBl/e89dZb04WLYrAdwig1bjzGBQb2BfPyHvxO7SFBnG0wbEnlo/ZZ9OiUpBqMAiODBRCmdttttzSiWxGQuFJP0ygKacU9cYrQUCCQMfw1BSlqZxgsgcIYhabjjjsuFXqpAaGpFVfNeR8G3GC+du3apWaKVWtyqEFjfSjsUYCsWjikeRFXzflJQZ8mVNQ6sH7UZlCAppaBgjGFdwpwFIIJWvQpovBf1JrQvIlaLkIOj3GFntoL3pttZZtYN4bBp6AICshMLJ9lst5ftykY70eQImxRaOW9WD9eT5hgYAFqJ1h2gVpBaiXYf506dUo/vw72IeGDfVSM0kcQ4bMm2FE453PksyvQjI/PhfUkDPEaCvKgCSb7hSZzBBW2gWOBz4aR9dgenmd7CDvMw/vyWTMfxwvbxbayz4tAyfHC/uTzZJ3ot0MooKaU1/M+vIbPh4I4AZntoNaF5pj0CeTzL+7RxWdZHEs8Tn8q7u3F/PxO7eauu+4aJ554YgpFS7oQwOsJEgQXwhbbwP7n+GNbCYZsJ/3BWN/iuCIocLwQKtl/rCOhi/VgeTxHvzH6QbEvQKBn37OPuHDBvv+6xxXYZv63OI6oCeT/gXWkpotjgfXg/5GLC927d1+wj0aOHJn6orFdHOfg/6X47Fnn4p5abA/rTK0Xy+R/k/0Ctp1aRY4PtoPaYvYfxyzfAXy2fI+A/cPxwjzMy+fPccL7s340GV2WF2gk5VWr8qTgkDeSajT6XFCApcBDQY2CU9WCHl+TFPqLWgMK41UDAXgt8xT9ZiioMR+FOgqYLJNaDQpaPM+yaPLH3xTCqr4fy2BZLJPCfFHgB6+lRoTnWDbLBIV1CoQsh/flb5ZDga9YF+atuqwCy2J9mJ/fURTwWT+movBHAGS9QWH7mxSIwfqzbkW/FP5mGbwH28P7VF0m60/Q4XGeZzu+DtaTwMj8hB22hfdiG3mcfcHyeLzAc6wX8xXHQYH9wnPsJ55juaznoraHfcyyeZ5l8hjHS9V9XyyP9Sxew/wEcGqECDGMVEfBu8B8LI/XFMsFry0+q+J9WX4xH78X8xbzLe5YqIrtIYBT20gAYRAQAhfLLY6rYllV91WBedjGYh3AuhXrwFQcV8xTNLddeN9/E4vb7mJd+dyqHmO8J/PzGO9bYNv5rHmOZTA/r2W9WC7bxf8mr2M7i/l5jr/BexbHbfGeLItlMn3VvJLKg2FLkqRlqAgBFKqrImjR9Ozss8+O/v37p/s2UWP1fVk4bFFDQ62pJOnrW/JlLUmS9J0iwNBnif5qDKJAc0cGC6FfEH2vaCpIk0H630mSqjfDliRJyxDNShkRkEEbGEiBQRIYcILRCWkKygiRhC2aaUqSqjfDliRJyxCDLzC6JYNzMDz8U089lQZKYOCIww8/PH7+859/7YFAcqOpI4NAUMtWDPAgSfr67LMlSdIyxKAIDODAgAr8XpyGi4EjGCThqwavWFZYPwYUYcAGBsJg/SRJX59hS5IkSZIysBmhJEmSJGVgzdZSYvdxvwz8UJp9SJIkSVr2yAbc4qNoEm7YWgrsOu5Dwh3qucEhbdm9EaEkSZJUM5ENCFvt27dPN9U3bC0FdubEiRPjiCOOiGHDhpUelSRJklRTMers7bffHhtuuKFha2kwStOUKVPSPVG4CSU/qTKUJEmSVLMw0uwzzzyT7p/IzevXW289w9bSKIbE7dWrV2y//fZx6qmneh8SSZIkqQbilh733HNPygSDBg2Kdddd17C1NAhb06dPj549e0a3bt2if//+qW2mJEmSpJqFsDVw4MDo169fDB48ONq2bevQ75IkSZKUg2FLkiRJkjIwbEmSJElSBoYtSZIkScrAsCVJkiRJGRi2JEmSJCkDw5YkSZIkZWDYkiRJkqQMDFuSJEmSlIFhS5IkSZIyMGxJkiRJUgaGLUmSJEnKwLAlSZIkSRkYtiRJkiQpA8OWJEmSJGVg2JIkSZKkDAxbkiRJkpSBYUuSJEmSMjBsSZIkSVIGhi1JkiRJysCwJUmSJEkZGLYkSZIkKQPDliRJkiRlUKuiUul3fUOff/55TJ8+PXr27BndunWL/v37R4MGDUrPfk/e+HvEZ2+V/pCkMtO0fUTbo0t/SJL0wzF79uwYOHBg9OvXLwYPHhxt27Y1bC2NH2TYeqRbxIRBpT8kqcy06hHR9e7SH5Ik/XAsKmzZjFCSJEmSMjBsSZIkSVIGhi1JkiRJysCwJUmSJEkZGLYkSZIkKQPDliRJkiRlYNiSJEmSpAwMW5IkSZKUgWFLkiRJkjIwbEmSJElSBoYtSZIkScrAsCVJkiRJGRi2JEmSJCkDw5YkSZIkZWDYkiRJkqQMDFuSJEmSlIFhS5IkSZIyMGxJkiRJUgaGLUmSJEnKwLAlSZIkSRkYtiRJkiQpA8OWJEmSJGVg2JIkSZKkDAxbkiRJkpSBYUuSJEmSMjBsSZIkSVIGhi1JkiRJysCwJUmSJEkZGLYkSZIkKQPDliRJkiRlYNiSJEmSpAwMW5IkSZKUgWFLkiRJkjIwbEmSJElSBoYtSZIkScrAsCVJkiRJGRi2JEmSJCkDw5YkSZIkZWDYkiRJkqQMDFuSJEmSlIFhS5IkSZIyMGxJkiRJUgaGLUmSJEnKoNqHrfHjx8fAgQPjvPPOi/79+8fPfvazOPPMM+Oaa66J9957L+bMmVOaM6KioiLmzZsXjz32WJr/1FNPjZ///Ofx97//Pd54442YPXt2aU5JkiRJWjplEbYeeuihePXVV9Pvn3zySbz55ptx7733xs033xxjx46Nzz//PM1LmBo2bFjccccdMXTo0Pjoo4/i/fffT/PeddddMXr06DSfJEmSJC2tah+2qK1q0KBB9OjRI37xi1/Eb37zmzjkkEOiUaNGqcbq5ZdfjlmzZqX5Jk+eHFdeeWUKZp06dYpf/epXccopp8Sqq64a//73v+Opp55K80qSJEnS0qr2YWvjjTdOTQL79OkTHTt2jHXXXTd23HHHOOmkk+Kzzz5LtVUff/xxaj7Iz/vuuy+6dOkSvXv3jk033TSFrl//+tdRq1atGDFiRGp6KEmSJElLqywHyCBYTZ8+PdVmUcNVr169mDZtWgpeNCVs165drL766mne5ZdfPlq3bp3+Zp7FhS2WNXfu3JgxY0ZadtVp/vz5pbkkSZIk6QtlF7YIRfTTogaLALXWWmtF06ZNU/PAiRMnphqsFi1apBAG/iaMNW/ePIW0SZMmpccXNnPmzHj44YfjrLPOip/+9Kdp6tevX2q6aF8vSZIkSQsru7D17rvvxuOPPx7PPPNM9OzZM9Vi1a9fP9U+EbgIV3Xq1InatWuXXvGFunXrpqBWdfTCReH1C0+SJEmStLCyClsTJkxItU+PPvporLLKKnHUUUelJoIgFNFkEASvYoTCAo8xz8IhrMAgHDvvvHMaVv5vf/tbmi6++OLUX2y99dYrzSVJkiRJXyibsEWt1G233ZaGe6cm69xzz402bdqkGivQVLBZs2YpVNHPauEarKlTp6aw1aRJk9IjX8Zz1Ig1bNgwNUGsOi0uoEmSJEmqucoibE2ZMiXVNDF8+yabbJKGc6dmq2oIIkRRA0Xooo8V99gC/bTo4/Xhhx+meejjJUmSJElLq9qHLYLSjTfemGq16J+1ww47RKtWrdKAFoQw+mlRm0UNF/fT6ty5c+rPRXNDQtfrr78eV1xxRRqlkDBWNDuUJEmSpKVR7cPWmDFj4tprr42XXnop9dl67rnn0t///Oc/0zR06NA0wuByyy2XRhw86KCDUv+rJ554Iq666qo077Bhw2LLLbeMrbfeOo1cKEmSJElLq9qHrWKwiw033DDdI+vBBx+MO+64Y8HEjYqp4QL9q3r16pUm+l4Rsl588cVo3759HHLIIbH55pun+SRJkiRpadWqYGQJfSuEPAbbYIj5bt26Rf/+/VOt2ffqkW4REwaV/pCkMtOqR0TXu0t/SJL0w0G3pIEDB6Z78Q4ePDjatm1bPqMRSpIkSdIPiWFLkiRJkjIwbEmSJElSBoYtSZIkScrAsCVJkiRJGRi2JEmSJCkDw5YkSZIkZWDYkiRJkqQMDFuSJEmSlIFhS5IkSZIyMGxJkiRJUgaGLUmSJEnKwLAlSZIkSRkYtiRJkiQpA8OWJEmSJGVg2JIkSZKkDAxbkiRJkpSBYUuSJEmSMjBsSZIkSVIGhi1JkiRJysCwJUmSJEkZGLYkSZIkKQPDliRJkiRlYNiSJEmSpAwMW5IkSZKUgWFLkiRJkjIwbEmSJElSBoYtSZIkScrAsCVJkiRJGRi2JEmSJCkDw5YkSZIkZWDYkiRJkqQMDFuSJEmSlIFhS5IkSZIyMGxJkiRJUgaGLUmSJEnKwLAlSZIkSRkYtiRJkiQpA8OWJEmSJGVg2JIkSZKkDAxbkiRJkpSBYUuSJEmSMjBsSZIkSVIGhi1JkiRJysCwJUmSJEkZGLYkSZIkKQPDliRJkiRlYNiSJEmSpAwMW5IkSZKUgWFLkiRJkjIwbEmSJElSBoYtSZIkScrAsCVJkiRJGRi2JEmSJCkDw5YkSZIkZWDYkiRJkqQMDFuSJEmSlIFhS5IkSZIyMGxJkiRJUgaGLUmSJEnKwLAlSZIkSRkYtiRJkiQpA8OWJEmSJGVg2JIkSZKkDAxbkiRJkpSBYUuSJEmSMjBsSZIkSVIGhi1JkiRJysCwJUmSJEkZGLYkSZIkKQPDliRJkiRlYNiSJEmSpAwMW5IkSZKUgWFLkiRJkjIwbEmSJElSBoYtSZIkScrAsCVJkiRJGRi2JEmSJCkDw5YkSZIkZWDYkiRJkqQMDFuSJEmSlIFhS5IkSZIyMGxJkiRJUgaGLUmSJEnKwLAlSZIkSRkYtiRJkiQpA8OWJEmSJGVg2JIkSZKkDAxbkiRJkpSBYUuSJEmSMjBsSZIkSVIGhi1JkiRJysCwJUmSJEkZGLYkSZIkKQPDliRJkiRlYNiSJEmSpAwMW5IkSZKUgWFLkiRJkjIwbEmSJElSBoYtSZIkScrAsCVJkiRJGRi2JEmSJCkDw5YkSZIkZWDYkiRJkqQMDFuSJEmSlIFhS5IkSZIyMGxJkiRJUgaGLUmSJEnKwLAlSZIkSRkYtiRJkiQpA8OWJEmSJGVQ7cPW1KlT49lnn41zzjknjjvuuNh3333j5z//eQwfPjzmzZtXmiti9OjR8cc//jH22Wef6NGjx4Kpd+/ecfrpp8ebb75ZmlOSJEmSll61D1uzZ8+OcePGxfvvvx+ff/55vPXWWzFkyJD4+OOP09+FKVOmxMiRI2PUqFHRsmXLaN++fZo23HDDaNOmTTRo0KA0pyRJkiQtvWofturUqROrrLJKdOnSJfr27RubbLJJ6Zn/tvzyy0fbtm3jyCOPjF//+tdp6t+/fxx00EGx6qqrluaSJEmSpKVX7cNWs2bNYquttooDDzwwdtxxx2jVqlXpmUWjtovasFmzZqVmhrVq1Uq1Wsst99W7oqKiIk0sg6n4XZIkSZIWVu3D1jcxZ86cePHFF+OEE06IPffcM9VwXXLJJTF+/Pgv9e9aFILV3LlzY8aMGTF9+vQ0ffbZZ+nn/PnzS3NJkiRJ0hdqTNhq3rx5dO7cOU488cT42c9+FocffnhqUvjoo4/Gb3/723jjjTdSoFocQtWdd96ZXt+nT580MRjHIYccEi+//HJpLkmSJEn6Qo0JWyuttFLsvPPOsd9++8Xee+8dvXr1ShNNEB955JEYMWJETJ48uTT3f6O/1+qrr576hPGaYurUqVOssMIKpbkkSZIk6Qs1JmwRiBh9sF27dik0rbXWWrHNNtuk2ilqrRj6nREMF6devXppfpogFoNrMDHMfOvWrUtzSZIkSdIXalSfrYURoFq0aBGNGzeOadOmpf5Yi8NAGtRu1a9fPxo2bJgmBtbgZ+3atUtzSZIkSdIXanTYYlTCiRMnpuaDjRo18l5bkiRJkr4z1T5sMRIgowKOGTMm3dD4008/TcO6f/TRR/H222+nn9zQmAEwrrvuunRjY26ATLPBe++9Ny6++OJo0qRJbLTRRrHaaquVlipJkiRJS6fah62ZM2fGa6+9FhdeeGH86U9/iiFDhsSHH34YN998c/z5z3+Om266KUaPHh0TJkxIA2H84x//SI9fdNFFKWxRu3XsscemgS+o3ZIkSZKk70K1D1vcVJj7Z1GjxbTOOutEly5dUl8qarToi0XtV9OmTdOgGMxL08GpU6emEQr32muvOOqoo9IgF1/nxsaSJEmS9HXUqljSzaW+Ayye2ifUrVs3DTJBQCIEMQogz9NXijBU3QaaYDvYhp49e0a3bt2if//+33+/r0e6RUwYVPpDkspMqx4RXe8u/SFJ0g8HLeYGDhwY/fr1i8GDB6d7+mavyqH/1MMPPxyPP/54vPfee+kx+lgNGDAgDjzwwOjdu3ecf/75qZkfNVCSJEmSVA6yhy2GU7/lllvigw8+SH9To8UNhG+//fZo06ZNrL/++mkgi2uvvXZBDZgkSZIkVXfZwxZ9pF5++eV0nyoGoJg0aVIMHz483a9q5513jj59+qT+UoMGDUpVb5IkSZJUDrKHraLPFn216tSpk8LWiy++GJtvvnlsscUW0blz51h33XXTcOz0gZIkSZKkcpA9bDHCH4NfELIYkp1+W6+//np07NgxmjVrluYhkBG0Mo/VIUmSJEnLTPawxQiEm222WTzwwAPxu9/9Lq6++ur4+OOPU81W8+bN03DtkydPjlVWWaXajUYoSZIkSYuTPWw1btw4jjvuuNhqq61Sv62WLVvGySefHGussUZqVsg9r+jXte2226ZgJkmSJEnlIHvYIlB16NAh9t577zj44IPjgAMOSDcSbtKkSWpiSOjiHlW9evVKg2ZIkiRJUjnIHraozapXr160a9cuNthggzQi4dixY9PNgLmvFv251l577VhnnXVsRihJkiSpbGQPWwx6wb22Xnjhhbj55pvj3HPPjbPPPjsNlDF37tx455134oknnkjP87ckSZIklYPsYYt7Zz311FPx+9//Ph5++OH095tvvpmGg2cEQvprjRo1Kt342JsaS5IkSSoX2cMWtVoEqQ033DBOPPHE1DerqpVXXjk1JWQ4+Hnz5pUelSRJkqTqLXvYouaKJoLcuJgbGK+55pqpH1eB0QobNmwYn3zyiTc1liRJklQ2llmfrQYNGixytEGaFc6aNSsNjlE1hEmSJElSdZY9bBGiWrVqFRMmTIiPPvpowSAYjERIHy36bzE6ISMSOhqhJEmSpHKRPWxRm7X77rvHkCFD4q677kqjENJckGaDPHbdddfF888/H3vssYf32ZIkSZJUNrKHLe6rtf/++8dOO+0UI0eOjAEDBsS4cePif/7nf+Kss85KvxPGuNEx9+OSJEmSpHKwTJoRtm7dOgWqfffdNw444IA44YQTYrvttosePXrEwQcfnH6uvvrqNiOUJEmSVDayh60CQ7/vt99+ceqpp8Ypp5wSJ598cvqdWq/27duX5pIkSZKk8pA9bDEQBoNj0FyQn9OmTYs6deqk5oWMQvjxxx/H+PHj03OTJk1Kg2bwGkmSJEmqzmpVMDZ7Rp9++mnqnzV16tTSI/+N5oMMDc+ohV27do0f/ehH0aJFi9KzP1wM9DF9+vTo2bNndOvWLfr375+243v1SLeICYNKf0hSmWnVI6Lr3aU/JEn64eCWVgMHDox+/frF4MGDo23btsuuGeErr7wSzz77bBrqnftuMY0ePTqee+65NHAGNVyPPvpoCmZXXHFFGrVQkiRJkqqr7GGLGxU3a9Ys1lhjjdhll13i2GOPjUMPPTRNxx13XHTv3j09R60W/bdWXXXVeOmll+LJJ58sLUGSJEmSqp/sYYumdhMnToxNN900jTx4+OGHx957750mfucxnpszZ0707ds3BS5aNlILJkmSJEnVVfawRdvFp556KtZcc81YZ511Uk1Xgd9py0htFvPMnTs3OnXqFCuttFJqVihJkiRJ1dUy6bNF7RajEU6ZMqX0yP9hAA1GI2QearSWX375NGBG1VAmSZIkSdVN9rBVr1692H777dOIHAMGDIgHHnggDYjBdP/998e//vWvVKvFPMz7zjvvpCaFK6+8cmkJkiRJklT9ZA9b3E/rkEMOiQ4dOsQbb7yRwtU555yTJsLX22+/HR07doyDDjooDZvOYBoM/85gGpIkSZJUXS2Tmq0uXbrEfvvtF9tuu20KU/TjYmrevPmC5zp37hx169aN1q1bp3tWMa8kSZIkVVfZb2q8sHnz5sWsWbPS79Rk0T+ruvKmxpK0jHlTY0nSD9T3elPjAgNg0LSQqToHLUmSJElakmUWthgQ4+qrr47TTz89TjzxxHRD42OOOWbB9Ktf/SqmTp1amluSJEmSqrfsYYuRBZ955pm49tpr45FHHkmh66GHHooPPvgg3nrrrfTc888/HzNmzEhDv0uSJElSOcgetghRtF1kJMJVVlkl1ltvvdTPiQExdtttt9hkk03STY2ZbFYoSZIkqVxkD1t0FHv00Udj6623jmOPPTZ22mmnaNKkSXTv3j1++tOfpuaEnTp1io8//jjmz59fepUkSZIkVW/ZwxYBasKECbHaaqulGxVTe1WnTp00IiHPtWvXLtZcc800YgdNDiVJkiSpHGQPW8stt1w0bdo0DZM+d+7cdN8t7rU1evTomDZtWmpSOHny5PScJEmSJJWL7GGLod7XX3/9VLs1fvz4WHHFFaNDhw5x1113xYABA+Jf//pXDBs2LDbYYIM0ryRJkiSVg+xhi5v89ujRI9Zaa60UpmhOyMAYGD58eLzwwgtRv3796NWrV/opSZIkSeUge9ji5sUHHXRQ7L///qmGa6WVVoo99tgjTj755DRIBkHs6KOPjgMOOCAFM0mSJEkqB9nDFui3xcAY/AQ1WN26dUsjETJC4fbbb58GzZAkSZKkcrFMwhbmzZsX48aNixEjRsSQIUNSP63nnnsunn322fT7f/7zHwfJkCRJklQ2alVUKv2eBSFrzJgx8eCDD8Yrr7wSn3zySbr31sJatmwZ559/fhqpsLpghEVGU+zZs2eqqevfv//33xTykW4REwaV/pCkMtOqR0TXu0t/SJL0w0HGGThwYPTr1y/d1qpt27b5a7ZmzpwZd999d9x///1puPdatWqlmxovPDVu3Dg9J0mSJEnlIHvYoubnpptuSjc0PvXUU9Nw79ddd91/TX/961/T/bgkSZIkqRxkD1s0tfv0009j2223jS233DLVYEmSJElSucseturVqxedO3eOzz77LCZOnGhTQUmSJEk1QvawxX22Dj300Jg6dWrcc889cccdd8SgQYPiiSee+NL0zDPPxJw5c0qvkiRJkqTqLXvYWn755aN169bxzjvvxJ133hlXXXVV3HjjjakfV9XprrvuilmzZpVeJUmSJEnVW/awxWiEDzzwQLz++usxadKkNPQ7wevNN9+Mt956a8H07rvvxvz580uvkiRJkqTqLXvYYjTCq6++Otq3bx+XXHJJPPLII2koeCbGoS+mK6+8slrdY0uSJEmSliR72OKeyTQP3HjjjWODDTaIhg0bRv369f9rYiANB8+QJEmSVC6yh606deqkoDV37tw0SIYkSZIk1QTLJGytu+66MXLkyLj33nvjsccei2effTb+85//fGkaMWJECmSSJEmSVA6WWTPC4cOHxzXXXBMXXHBBXH755XHFFVekflrFdMstt6TBNCRJkiSpHGQPW/PmzUujDzZv3jxatmwZM2bMSCMRjho1Ko1QyMTvb7/9tqMRSpIkSSobtSqoesqIpoEM7U7oWhKaG7Zt2zbdl6u6+Pzzz9Noiz179oxu3bpF//79o0GDBqVnvyePdIuYMKj0hySVmVY9IrreXfpDkqQfjtmzZ6dR1vv16xeDBw9O2WaZ9NliFMIOHToscVp//fWrVdCSJEmSpCXJFrZoOvj4449/7Wno0KExZ86c0qslSZIkqXrL1ozw1ltvjdtuu63011dbccUV49xzz42mTZuWHvnhsxmhJC1jNiOUJP1ALdNmhHXr1o3GjRt/7alRo0be1FiSJElS2chWszVp0qQ0fV3011pzzTWjdu3apUd++KzZkqRlzJotSdIP1DKt2WrRokW6mfHXndq0aVOtgpYkSZIkLUn20QglSZIkqSYybEmSJElSBoYtSZIkScrAsCVJkiRJGWQJW7fffnsMGjQojcgxa9aseOyxx+LDDz+M+fPnl+aQJEmSpPKWJWzdf//9MXTo0BS0ZsyYEddff3289dZbMW/evNIckiRJklTesoStzz77LNVkvfvuuzF27Ni477774uWXX06PjR8/fpHTxx9/nO5bJUmSJEnlIEvYWmONNWLkyJFxzjnnxA033JBqtx5//PG46qqrYsCAAYucbrzxxpg5c2ZpCZIkSZJUvWUJW3379o2dd945pk+fHsOGDYu5c+fGq6++Gk888UTqv7XwRBCj2eGcOXNKS5AkSZKk6q1WRaXS798ZQtaYMWNSM8L3338/TjvttDj00EOjU6dOUa9evdJcX9awYcPo3r171K9fv/TIDx/NHtnWnj17Rrdu3aJ///7RoEGD0rPfk0e6RUwYVPpDkspMqx4RXe8u/SFJ0g8HgwMOHDgw+vXrF4MHD462bdvmCVtVTZ48OX73u9/F/vvvH5tsssliw1Z1ZNiSpGXMsCVJ+oFaVNjK0oywqmbNmsUFF1wQm222Weq79d5776WRCZn4/dNPP03NDCVJkiSpnGQPWwVGG2RUwrPOOitOOOGENJ199tnx4IMPxieffFKaS5IkSZLKQ/awxaAXzz//fOq3demll6bQtc4666SJId8vueSSOOOMM+LFF1+0hkuSJElS2cgetmg6eOutt6Z7b9Gv6bjjjovDDjssTccff3x07do1pkyZErfddptDv0uSJEkqG9nD1qxZs9LQ7uuvv37su+++seeee0bnzp3TxO99+vRJnccGDRrk0O+SJEmSykb2sMWIffTJat26day22mqlR//P6quvnm6CzDzMK0mSJEnlIHvYWm655aJp06apf9aiBsKgD9fEiRPTPMwrSZIkSeUge7rhJsW77757GmuewTD+/e9/p8EwmO64447429/+FkOGDInddtutrO7BJUmSJKlmyx62GjVqlG5ovO2228a4ceNiwIABafh3pssvvzzVbHXp0iX13SKYSZIkSVI5yB626tSpEx07dozevXvHLrvsEuutt140b948Te3atYtdd901PbfRRhuleSVJkiSpHCyTTlK1atWKTTfdNA31fsEFF6TmhEz8fuyxx6YwxjySJEmSVC6W+YgUtWvXTk0LmfhdkiRJksrRMg9bkiRJklQTGLYkSZIkKQPDliRJkiRlkD1szZ07N95+++2YPHlyzJs3r/SoJEmSJJW3rGHr888/T/fR+uUvfxmPPfZYTJ06tfSMJEmSJJW3WhWVSr9n8dFHH0WPHj3i1FNPjT322CNatGhReqb6I0xOnz49evbsGd26dYv+/ftHgwYNSs9+Tx7pFjFhUOkPSSozrXpEdL279Ie+rofGfhYfzrB1iaTy1KrR8rHzGo1Lf31/Zs+eHQMHDox+/frF4MGDo23btvnD1ieffBKnnHJKtG/fPnbffffYZJNNSs9Uf4YtSVrGDFvfys1vTokx0+aW/pKk8rL2CnXigLZNS399fxYVtrL32Vp++eWjTZs28dJLL8Wdd94Z99xzTzz55JMxZMiQGDp06ILp+eefT/27JEmSJKkcZA9b1P7MmDEjXnvttbjlllviL3/5S1xxxRVxzTXXfGm6/fbbY+bMmaVXSZIkSVL1lj1szZ8/P959991YccUVY/XVVw9aLb733nsxevToeOONNxZM77zzTppXkiRJkspB9j5bDPdOuPqqIEVzw9atW0ft2rVLj/zw2WdLkpYx+2x9K/bZklTOanyfrXXWWSfWW2+9VLNFGCGkrLHGGmkFeJxp7bXXrlZBS5IkSZKWJHvYouKMlMcgGDfeeGNcdtllcf3118eECRNSrRfNB0l+DpAhSZIkqZxkD1sEKvpnEbSuuuqq9PPqq6+O8ePHp+dGjRoVd9xxRxo8wwEyJEmSJJWL7GHrs88+S7VZ9Ns67LDD4swzz4x69epFrVq10vPrrrtu6qtlzZYkSZKkcpI9bM2ZMycFqe222y4NItG06Zc7r/F348aNU7NC+nJJkiRJUjnIHrYIUJMmTYrmzZun4d8ZMKMqnmekQn5mHhhRkiRJkpaZ7GFrueWWixYtWqTA9emnn5YejQXNCMeOHZsmRip0NEJJkiRJ5SJ72KJ/1rbbbhtvvvlmDBkyJD744IM0MAY/X3vttXj88cfTc126dIm6deuWXiVJkiRJ1Vv2sNWoUaM4+uij0+iDF110UQwYMCAmT54cV1xxRZx44onxj3/8I9V+HX744dGwYcPSqyRJkiSpessetuijtdZaa8Uf//jHOOmkk2KLLbaIrbfeOvXR6tChQ/Tv3z/OOOOMWG211VLokiRJkqRykD3d0Derfv360a5du9h5553jiCOOiF/+8pcpeFHjteeee8b666+fmhAW/bgkSZIkqbpbZlVJjDRYjDZIqKpTp06q9WJQDGu0JEmSJJWb7CmHgMWNjUeOHBn33ntvXHfddXH11Ven6frrr4/77rsvPcc8Dv0uSZIkqVxkD1vc1HjEiBGp6eBZZ50VTz75ZMyYMSNNTzzxRPy///f/4te//nUKXHPnzi296pshpHGvLiZGOuTn4oJbcV8v5vuqeSVJkiTp28oetqZNmxZ/+9vfYoUVVkjB6uabb47zzz8/TTfddFP8z//8Txqx8NJLL43p06eXXvX1MbIhAe60006L3r17x3bbbZdGNhw6dOh/hbepU6emGrVDDjkkdthhh9h9993T60aNGhWzZs0qzSVJkiRJSy972CLwvPzyy7HxxhungMNAGYxOyMTAGDy20UYbpXmoafqmqDkjcPHaddddNz3GfbsWbpY4bty4uOeee+KGG26IJk2axE477RQdO3ZMQevCCy+M0aNHp1ovSZIkSfouZA9bDIbBSIMrrbRSCjlVRxzkd2q8VlxxxW89GmGDBg2iTZs2aaTD/fffPw0nvyjvvfde3HXXXWlADuY99NBD48ADD4wtt9wyHnrooXjhhRdi0qRJpbklSZIkaelkCVuzZ89e0C+LPlGbbLJJqll6/fXXY8KECalpIRO/v/baa+kntUyMTvhNEeB47R577BFbbbVVrLLKKqVn/g+1Xu+//34MHz48zbfNNtukWrBNN9009t133zQyIjVrzLMkVfuGVZ3s8yVJkiRpYVnC1tixY1OIYiLA7LLLLjFs2LD45z//Gf/+97/jP//5T5ruvPPOuOyyyxaEIO7HlQN9tQh7hD+CX9OmTdPjhLtmzZrFhhtuGB9//HFMnDgxPb4oBCr6dbGsTz/9dMFUNGGUJEmSpKqyhK0///nPcdBBB6WJ5nq/+tWvUth69NFH43e/+10cc8wxafr9738fjz32WDz99NNx3nnnpX5WORCyqEnjfl7NmzdPNVmF4rGZM2emaXF4/Y033hh9+/aNrl27pqlbt25pkI0XX3yxNJckSZIkfSFL2CKAHHvssXHcccelqV+/fnHmmWemkQdPOeWUOOGEE9LE7zzGKIVHHHFENGzYsLSE71Yx3Dt9wqjNWrjfGI8xz5IGyKhXr15sttlmcdhhh6XtYfrJT36StrNVq1aluSRJkiTpC1nCVvfu3VN4Ygh2fn6dab/99svWjJCaLMISTQGpvSJ4FQhYPEbgqlrjtTAG8GDUxD59+qTtKiaGkV911VVLc0mSJEnSF7KELQataNGixZcmRh0kzBB0GEBj4Ykh3HPhPl70zaIW68MPP1xwTy3CF+/70UcfpXVu3LhxenxRihowQhuhsOpEU0RJkiRJqmqZpARqjxiAguHVudfVrbfemm5uXHUaOHDgUt1YmOBUTMXfvC8/CVLUPhGmWAcGteA5ghbDvXOvrZVXXjlNkiRJkvRdyB62CFDcx+qnP/1p6qd1wQUXxHXXXZduLlxMDDzBKIXfJmxRU8bgFdzImND0ySefpGaBjILIjYr5OX369GjdunXsuOOOcfvtt8f999+fBrVgcI6LLroo3aurU6dO6UbLkiRJkvRdqFVRVAVlQvg59dRT04iA7du3T8Os0/9pYQyOQRiimd43wVDsI0aMiL///e8pVHEvL2rR1l9//XSzZAa12GuvvaJdu3ZpvssvvzyFM1C7RRPA7bffPvbZZ58UyKoOnvFVeD3v2bNnzzQyYf/+/VNw+1490i1iwqDSH5JUZlr1iOh6d+kPfV03vzklxkybW/pLksrL2ivUiQPafnFrp+8TXaNorcdAeoMHD462bdvmr9maO3duqkXq0KFDHHDAAXHggQemQSYWnhjB8JsGLRCW6JNFUFp77bXTchhufsstt0wbSPNBAhD31tp8883Tc507d4711lsv3QyZIMaNjVdbbbVvFLQkSZIkaUmy12yNHz8+jTRIyOHGxeU0TLo1W5K0jFmz9a1YsyWpnNXomi3CB7VNjPhHvyoGpaC2a968ef81SZIkSVK5yB62aOJ35JFHpoEsLrvssvjZz34W5513Xhoo48ILL1wwDRgwINUSSZIkSVI5WCZ9thhufdiwYfH888+n35977rl49tln45lnnlkw0a+LeSVJkiSpHGQPW4xCyH21ateuHTvssEP06tUrjTpIH6eq0zbbbLPIUQolSZIkqTrKHrboKDZ06NA0OiBDwP/yl79Mnca471bV6fDDD0/Dv0uSJElSOcgethhOvX79+tGmTZto2bJl6VFJkiRJKm/ZwxajEXLD4LfeeiteeeWV0qOSJEmSVN6yhy1u4zVlypR48skn4+KLL44zzjgjjT540UUXfWm68sorU/8uSZIkSSoH2cNWceNffn7wwQdpFEJGJqQfFz+Lafjw4Y5GKEmSJKlsZA9bderUifbt26cbGxcjEW666aax8cYbR8eOHRdMG264YSy//PKlV0mSJElS9VargnZ++laKWruePXum4ev79++f+qh9rx7pFjFhUOkPSSozrXpEdL279Ie+rpvfnBJjptl6RFJ5WnuFOnFA26alv74/jMI+cODANPL64MGDo23btvlrtiRJkiSpJspes8XgGAyIMW3atNIji9asWbN0H64mTZqUHvnhs2ZLkpYxa7a+FWu2JJWzGl2zNX/+/Hj//ffj3Xff/dL0zjvvxAsvvBAPPvhgmniMeSVJkiSpHGQPW8V9tvr27btgOvDAA+OAAw6IvfbaKw2UsdZaa6VBNBwgQ5IkSVK5WCZhq0ePHrHvvvsumPbbb78UuH72s5+lpoNdunSJsWPHWrMlSZIkqWx87wNktG7dOlZcccV4+umnY86cOaVHJUmSJKl6+97D1oQJE+K9994LR6CXJEmSVE6yh60ZM2bE7bffHtdff/1/TZdffnlcffXV8eqrr8aWW24ZdevWLb1KkiRJkqq3ZRK2br311rjmmmv+ayJo0XxwhRVWiN69e0f9+vVLr5IkSZKk6i172KpXr14aAGPHHXf80tS9e/c4+OCD4/e//3386U9/Sn8zryRJkiSVg+xhq1GjRnHIIYfEscce+6Xp6KOPTiMSbrPNNrHyyiuX5pYkSZKk8pA9bC233HLRokWLNOLgwlPz5s1TGPP+WpIkSZLKTa2KTMMADhkyJIYNG1b666vRb+uggw6Khg0blh754fv8889j+vTp0bNnz+jWrVv0798/3Vfse/VIt4gJg0p/SFKZadUjouvdpT/0dd385pQYM21u6S9JKi9rr1AnDmjbtPTX92f27NkxcODA6NevXwwePDjatm2bL2xdeuml8c9//rP016IxeMakSZNi2rRpscYaa6Rwtsoqq5Se/eEzbEnSMmbY+lYMW5LK2Q85bGVrRsiAFwx8sfD0xz/+MQ2KceaZZ8aPf/zj2GijjVJTwiZNmqQmh5IkSZJUDrKlmzZt2sQOO+zwXxP302rZsmU88sgjcdNNN6WaoWOOOSYGDBgQTZt+/4lUkiRJkr4L2cIWNyimxqqYaK34wgsvxGWXXRbnnntufPDBB7HPPvvEr371qzjyyCOjY8eOUadOndKrJUmSJKl6y9pujz5N9McaOnRouoHxDTfcECNGjIiVVlop9txzzzT0++677x4bbrhh6utUq1at0islSZIkqXrLFramTJkSr732WmoueP3118edd94Z48aNi6222ip+8YtfxFFHHZX6azVu3Lj0CkmSJEkqH9nCFk0GzzvvvHQD40GDBsVOO+0UZ511Vpx44onRunXrmDNnThqNsJhmzpyZmhpKkiRJUjnIFraeffbZNPQhTQlXW221GDlyZFxyySWpVmtREyMUfvbZZ6VXS5IkSVL1li1s0S9r4403js033zz9Xrt27VR7NXXq1EVO9O0imEmSJElSOch2U+OXX345Xn311dJfX61hw4bp3lz169cvPfLD502NJWkZ86bG34o3NZZUzn7INzXOFrZqAsOWJC1jhq1vxbAlqZz9kMNW1qHfJUmSJKmmMmxJkiRJUgaGLUmSJEnKwLAlSZIkSRkYtiRJkiQpA8OWJEmSJGVg2JIkSZKkDAxbkiRJkpSBYUuSJEmSMjBsSZIkSVIGhi1JkiRJysCwJUmSJEkZGLYkSZIkKQPDliRJkiRlYNiSJEmSpAwMW5IkSZKUgWFLkiRJkjIwbEmSJElSBoYtSZIkScrAsCVJkiRJGRi2JEmSJCkDw5YkSZIkZWDYkiRJkqQMDFuSJEmSlIFhS5IkSZIyMGxJkiRJUgaGLUmSJEnKwLAlSZIkSRkYtiRJkiQpA8OWJEmSJGVg2JIkSZKkDAxbkiRJkpSBYUuSJEmSMjBsSZIkSVIGhi1JkiRJysCwJUmSJEkZGLYkSZIkKQPDliRJkiRlYNiSJEmSpAwMW5IkSZKUgWFLkiRJkjIwbEmSJElSBoYtSZIkScrAsCVJkiRJGRi2JEmSJCkDw5YkSZIkZWDYkiRJkqQMDFuSJEmSlIFhS5IkSZIyMGxJkiRJUgaGLUmSJEnKwLAlSZIkSRkYtiRJkiQpA8OWJEmSJGVg2JIkSZKkDAxbkiRJkpSBYUuSJEmSMjBsSZIkSVIGhi1JkiRJysCwJUmSJEkZGLYkSZIkKQPDliRJkiRlYNiSJEmSpAwMW5IkSZKUgWFLkiRJkjIwbEmSJElSBoYtSZIkScrAsCVJkiRJGRi2JEmSJCkDw5YkSZIkZWDYkiRJkqQMDFuSJEmSlIFhS5IkSZIyMGxJkiRJUgaGLUmSJEnKoMaErblz58Ynn3wSY8aMiXfeeWfBxN/vv/9+zJo1qzSnJEmSJC29GhO23n777bjggguiS5cu0alTpwXTVlttFXvvvXe89NJLpTklSZIkaenVmLA1f/78mDNnTjRu3DhOPfXU+Mc//pGmSy65JM4+++xo27ZtaU5JkiRJWno1qs/WcsstF02aNInOnTvHnnvumaY99tgjdthhh2jevHlpLkmSJElaejUqbH3++ecxY8aMGD58eAwaNCiGDh0ab7zxRqr1+jp4/bx581L/r6pTRUVFaQ5JkiRJ+kKNCVu1a9eOunXrpmB1zTXXxJlnnhl/+MMf4tJLL43nn38+pk6dusTQxOs+/vjjePPNN+O1115bMI0aNSqmT59emkuSJEmSvlBjwtYKK6yQBsM4/fTT48ILL4w//vGPsfvuu8crr7wS/fr1S7Vd1FItzrRp0+LGG2+Mvn37RteuXdPUrVu3tIwXX3yxNJckSZIkfaHGhK0VV1wxtt1229htt91iyy23TNO+++4bp5xySgpSzz33XLz33nuluf9bo0aNokePHnHeeeelmjGmq6++Ov75z3/GBhtsUJpLkiRJkr5QY8IWTQhbtmwZK6+8cjRt2jSaNWsWbdq0ScO/E8Q+/PDD1ExwcerUqRNrr712bL/99rHrrrsumLp37x4tWrQozSVJkiRJX6hRA2QsrFatWrH88sunIEYTQga/WJKi31e9evXSVPzOKIeSJEmSVFWNSQncY2vSpEkxc+bM9DvT5MmT4913341x48al2i76dUmSJEnSd6HGhK3Ro0en/lXDhg2LMWPGpL/vvvvuNFDGrFmzUnNCmglKkiRJ0nehxoQtarReffXVOPfcc+O4446Lk08+OW699dZYaaWV0mNbb711NGzYsDS3JEmSJC2dGhO2WrVqFX369Im99947evXqFT179kyjER5yyCFp+PZVV1019cmSJEmSpO9CjQlbq622Wuyzzz5x/PHHp+HeTzrppDj88MNjl112SbVbDJQhSZIkSd+VGhO2JEmSJGlZMmxJkiRJUgaGLUmSJEnKwLAlSZIkSRkYtiRJkiQpA8OWJEmSJGVg2JIkSZKkDAxbkiRJkpSBYUuSJEmSMjBsSZIkSVIGhi1JkiRJysCwJUmSJEkZGLYkSZIkKQPDliRJkiRlYNiSJEmSpAwMW5IkSZKUgWFLkiRJkjIwbEmSJElSBoYtSZIkScrAsCVJkiRJGRi2JEmSJCkDw5YkSZIkZWDYkiRJkqQMDFuSJEmSlIFhS5IkSZIyMGxJkiRJUgaGLUmSJEnKwLAlSZIkSRkYtiRJkiQpA8OWJEmSJGVg2JIkSZKkDAxbkiRJkpSBYUuSJEmSMjBsSZIkSVIGhi1JkiRJysCwJUmSJEkZGLYkSZIkKQPDliRJkiRlYNiSJEmSpAwMW5IkSZKUgWFLkiRJkjIwbEmSJElSBoYtSZIkScrAsCVJkiRJGRi2JEmSJCkDw5YkSZIkZWDYkiRJkqQMDFuSJEmSlIFhS5IkSZIyMGxJkiRJUgaGLUmSJEnKwLAlSZIkSRkYtiRJkiQpA8OWJEmSJGVg2JIkSZKkDAxbkiRJkpSBYUuSJEmSMjBsSZIkSVIGhi1JkiRJysCwJUmSJEkZGLYkSZIkKQPDliRJkiRlYNiSJEmSpAwMW5IkSZKUgWFLkiRJkjIwbEmSJElSBoYtSZIkScrAsCVJkiRJGRi2JEmSJCkDw5YkSZIkZWDYkiRJkqQMDFuSJEmSlIFhS5IkSZIyMGxJkiRJUgaGLUmSJEnKwLAlSZIkSRkYtiRJkiQpA8OWJEmSJGVg2JIkSZKkDAxbkiRJkpSBYUuSJEmSMjBsSZIkSVIGhi1JkiRJysCwJUmSJEkZGLYkSZIkKQPDliRJkiRlYNiSJEmSpAwMW5IkSZKUgWFLkiRJkjIwbEmSJElSBoYtSZIkScrAsCVJkiRJGRi2JEmSJCkDw5YkSZIkZWDYkiRJkqQMDFuSJEmSlIFhS5IkSZIyMGxJkiRJUgaGLUmSJEnKwLAlSZIkSRkYtiRJkiQpA8OWJEmSJGVg2JIkSZKkDAxbkiRJkpSBYUuSJEmSMjBsSZIkSVIGhi1JkiRJysCwJUmSJEkZGLYkSZIkKQPDliRJkiRlUCPD1qRJk+L111+PZ555JoYMGRIvvPBCjB8/PubMmVOaQ5IkSZKWTo0LW/Pnz49BgwbFWWedFfvtt1/06tUrjjvuuLjnnnti3LhxUVFRUZpTkiRJkr69GhW2Zs6cmYLWv/71rxSqTj/99Pj73/8eG2+8cVx11VVx1113xfTp00tzS5IkSdK3V6PCFkHqzjvvjLp160bXrl1jzz33jB133DGOOeaYaNSoUYwYMSJGjhxZmluSJEmSvr1aFTWk3RybOXbs2Nh7771j2223jYMPPji23nrrBc+dcsop8eGHH8buu+8eRx55ZHp8YTRB/Pzzzxc0NeT3zz77LPr06RM77LBDnHrqqdGwYcP03PfmsZ0jxj9R+kOSykyrPSK2v7P0h76uW9+aEmOmzS39JUnlZe0mdWO/tiuU/vr+zJ49O3VNIhPQmm7dddetOWFr3rx5MXr06FSjddJJJ0Xfvn2jbdu2pWcj/vKXv8TQoUNTk8Izzjij9Oj/mTt3bgprTDRHBGGL33/729+m1+27775Rr1699Nz35oVfRXw6ovSHJJWZlltGdPxt6Q99XYM+nB7jZ8wr/SVJ5WXVhstH19Ublf76/jDYHgPwXX755fHYY4/FeuutV3PC1qxZs+Kll16KPfbYI37zm9+kwTFatWpVejbSTnnwwQdTAv3Tn/5UevT/TJ48Oa688so0vfPOO6VHpZqtGMGTprmSJMFzg2q6li1bpq5L7du3N2wVvips0YRw4sSJaaKKsMDuoy/Y8ssvH/Xr1y89KpU/anX5X+G4p7q8QYMGpWckSTUV54Y///nPsdxyy8UvfvELzw2qcWhNR+u3jh07pu5FNaoZ4ahRo6Jbt26pf9aBBx4Y66yzTunZiIsuuiiefvrp2GijjVIYWxR2XNU+W+B3ll2rVq0UuKSagv6KP/nJT9LgMuedd176KUmq2bgATXeN2rVrpy4anhtU0xR5ga5FXHSoMWGLzXz33XejR48esfPOO6cBMjp16rTguV/+8pfp+e7du8exxx6bHpe0eISt448/Pp1IL7zwQk+okqQUtrgQR9i6+OKLPTeoxqsxQ79T80RV3hZbbJEGuXj11Vfjk08+ialTp8abb76Zar14no5skiRJkrS0atR9tho3bpyGaf/oo4/ivvvuS6OEDB8+PDUhHDNmTKy//vqx2WableaWtCRF01muXkqSVODcYNcK6Qu1z6pU+r3sUShkUAw69FObdccdd8Tdd9+darcOOuig1MRw9dVXT4VISUtG81uai9D3sUOHDoYuSdKCc0ObNm1SP3jPDarpakyfraref//9VJM1YcKENLjFCiuskGq1Vl11VUfNkb4mOn9+8MEHqfPnaqutln5Kkmo2zg0ffvhh+p0L2J4bVNPVyLAlSZIkSbl5uUGSJEmSMjBsSZIkSVIGhi1JkiRJysCwJUmSJEkZOECGVIZmzpyZbm/AxKibM2bMSLc8aNq0abRu3TrWXXfdNPqmJOmHhRGT//Of/8Rbb70VG2+8cRo+fZVVVik9GzF27Nh49tln071Dd91119Kjy9asWbPivffei1GjRsX48ePTOYYh3lknzjHrrbdeWuc6deqUXiHVXIYtqYww5O7s2bPTifjRRx+NV155JSZPnhxz5sxJJ0Fuc8CJcJtttonevXuXXlX9FF9b3hNPUrl58skn4/zzz49777039t577/jJT34S22+//YL7VQ0ePDjOOeecdN/Qyy+/PD22LHFvUkLW/fffH6+++mp8/PHHMXfu3Khbt240adIk1lxzzejWrVtstdVW6bYg1ZnnGn0XDFtSGaFG65133okTTjghnQA5Qe+zzz7pxsPcU44T42OPPRbTpk2La665Jp0gmQhpfBVwQuGEztXIqnf/57UEtuJ5fmd+7p/CvExVT0Ysr1h28RVTzMsJGTw+f/78tCx+gnl4X+Yr7s3CexfL4Tl+5zUsp1GjRmkeSSoXhK0LL7wwXTDj+/bMM8+MI444IrVMwKLCVvE9yXdp8V1efJcWIQ3UQPEc36/MW3z3Ft/jVeddFL7bhw0bFpdddln87//+bxx00EGx8847xwYbbJBaT1DrNnDgwLSuO+64Y3Tt2jW9hu9s1rHq+YDvcNax6rmjWD8mXrek9WNZVbcbxXaz7OIcwnPFfCyTx1kOy2PeAudPlslzxb5hecxXr1690lzSN2fYksrI22+/Hb/97W9TzdYxxxwT++23X7Ro0SKdLECt15QpU9LPtddeO50UH3744Xj55ZdTAOOq5BZbbBH77rtvbLbZZumExcnp8ccfj+uvvz6dQLfeeuu46qqr4pNPPkkn+7322iv69OkTzZs3T+8Bmi8+9NBDcffdd8dHH32U3p+mi5yUjzzyyDQPJzZO2rfffntqMsOJkOUxT69evWKttdZK87F+LOvTTz+NnXbaKW677ba0nWzbGWeckeaRpHJB2PrnP/+ZmueNGzcuNt988zjggANijz32SM8vKmzxXXrnnXfG0KFD03c838fM37NnzxSECscff3xq5UATvzFjxsTTTz+d/iYY8V3O9/+S0MSRC3XXXXdd+g7u27dvqsniXEEwIdR89tlnKVw1bNgwLZtzAOcMvufZJsLOGmusEYceemhqZVE0keRcc+yxx6Zz1korrZS+59keltG9e/e0fuyLAtvJ+t9xxx3x4osvpnMIr+M8wTmMpozgIuODDz6YJtaf5VPrtueee8Z22223IMCddtpp6fkuXbrE8OHDY8SIEQvOh4RG6duqfVal0u+SqjFONG+88Ub8+c9/TkGJwEJbf67IcTJh4ndOXIQmTozPP/98euxHP/pReg0nQE5aBCnmo8kh12MIY5yoWH6DBg1iyy23jA033DCdRN999920rI4dO6b1oOkiVzwJSOuvv346cdHvgJMgYW6TTTZJ891zzz2pGQpXMmly0qlTpxTKeI/Ro0enUMdVx5EjR6bCxQsvvJDWhdczcRIkMEpSOaEvFIV9vu8II3zPTp8+PX3nUXvEd+5TTz2VmoXvtttuaX6aHdI/l+/8zp07p+cIIoSelVdeOVZcccW07H/961/pu5TzRbt27dK8BCW+Z2keyOuX1GKAC3mcC7g4R40brSaYn+/qoraIv5lYV8IXgfHDDz9MoYywRAjie/+JJ55IoZALa8WFPdaPcxCv4/zBeYBlEnx4TYcOHVKIY7tuueWWFDC5cEfAIkBxziK8MXHOIVByofC1115L5yFae7Rp0yb1h2M/so7FeeSGG25IFxZZHuc3zkmbbrppulBIQJO+LUcjlMoEJwiuGnJi5komA2AUzSiq4rGi6Ub79u1TTRI1UwceeGC6Uklooj0+J/uqaFLBSY5l04+A+TlRUwjgSmxhyJAh8dxzz6UT3f7775+ufHJVlquSnLgoQLCenGgnTZqUri7yPBPrwes4oRPa6IQNauLAybJHjx7pvTkRSlK54juaGif6PdFagNqrhRsjEXqo/ed5vpv5vmXiO5KQRbDi+7gqggzPMbgG37s0BeTiGt+51CYtCc0EJ06cmMIMYW1xzeuKC3ycawgqhBzOG8V3PbVFNHUn5H3wwQelV32Bcw3nL9aP7WD9uMhXrB/7gAtyBCNqtziHFNvMOYSA2rJlyzQf8xCqCIU8x3yc57hgx3mIfVcVr+FiJCGW8xc1WtQgSkvDsCWVCYIJg2GAkxtX7JaEEzlX7JiPgEbA4uojJylOppyguNJYFSdXmqVQA8YJiKuUzE8/MXC1lKuSrAsnwG233TbNu/rqq6dgR1gqTpRMzN+sWbN0lZErj4QqTt4UICggECDBSZsCx8EHH5yuirI8rtxKUjkjJNCSgO/ru+66KzXRq/q9TG3UAw88kL4faRLHBS2+m7kYxYU0vksJNFVDGjVJLJPWDHx/UyPEuYDaouK7nBYGNOGjVQEX05555pl0YY3l8b1NIOF7mfVaEsIWwYz34fWEwqJGiYlmewS4qqh5Yv3YFl5H7Rbrx/mBmiq2hYuB1OTRKoNQxGsIkMxXXGxkP9FHmRoxzhe02KCVBu/HhUPOU5yvCHcFzi20xmD/sQxq3gh60tIwbEllpDjxcZKpenJdFE4wnLAuueSS6NevX/z4xz9OV/3+8Ic/pLb1Rbv7Ak05OMFy8itwNZSTKSdg3o+f1FZxIqMJyKIwHyc75rvvvvtSgCqudjLRB4HlcGIsToIsjxNpcYKXpJqCWiECBKGHi2JFjT/4jqYZIRe1Fm7q1rZt29SSge/aqucDWg8wFThv0OyP73jCGwYMGJD6d/GdzHc05wi+t4tzzFedXwp8h/P+NNH79a9/nfrsFrVQBDiaGBbvWVjc+vHdz7kBrAshiGDJ+WFRinMNA4386U9/+tJ5hh40tK4gwLEPiwBLuKIpovRdMmxJZYLgU9w7ixoqwtLicHLhiiLBiiuZ9O/661//mjo9cxKiKSEnH5qbFIoRnBaHE2LVEaCWhMICJ0qaddx0001fmmiHT7t9TvDUeoFAt7jmKpJUzujrRE0LtS6XXnppCihLY0nf5QQUpqOPPjq9F9/J1157bVx00UVpPQh0fBfTBI/zw1eFLtaVcwsX1giM9PO68sor48Ybb0w1cYSoqjVLYP0Wdx4p3u+bnGuoqTr77LO/dJ65+eab0+BM9HEuBveA5xrlYNiSygQnCJprEJRogkfb9qphqcBjNDekmQhX/TiJ036eJn90wGYQi+IkVvVEWpyMloRmIVwZ5GohTQMXheVQaChOajT74H2LqWg+wpVarrQWvs77S1K54XuQgSFoFkgtDU3h6KtUPEftDk3Bi2bkBZrr8R3Od/I3/f6kWV4xEBHnCM4rXCCjxQJNGwlRDJSxcK1UgQt6TFz0ox8vTRd32GGH1AeNZotsDyGLeRa2pHUtzkmcQzjPsB5Fc/OFsRyaV3JeIiQufJ5honk757uq7+m5Rt81w5ZUJrhSWfRr4gTHlURG+yN0MWw6zfIIWMWQ7KD2qriqSAijOQpNCGkL/20QoBjNipMb70MzRa6A0geM8EUTGE5kXOHkKiknStrU01Gaky5t61kHhuql4LDwFU9JqokIFwz8QHDiO5oLZeDiGAGG1gw0y+O7k+9cAtmgQYMWDGr0TQMEF8KodaLFBBO/E0qKPmSMbkhTQwIX/W05Z9BckIDHoBM0eeS7HHyP08+LdWDi+/6RRx5J68nj3xTLIPwRoDincK5jkA3en/ektQbnHOajCSahjAuQnP+o6eJv1qHoO/xN9430TTn0u1RGOEFyMuSEx4mFzsRceeRERNihMzAnHU6MXCVldCueJ9gQfHieIXY5YTEYBqNB0cSCZfE6as522WWX0rtFuppahLOjjjoqPUbQ4kTGsPJcfeV33vv1119PgY9BMuh7xfuynhQOOAHSrJETJ6NncbLkai3NCOlQzcmcEz2jWUlSOeP7l+9PLkDxPU2woQaL7+JiyHS+06l56t27d/pe5ruc72O+Y/nJ4BYsg2DEdzZ9XkETOgIYF8U4VxRYJoGNAYgY+GhxAYTaLb7juTjH0PKcOwg2vCfnG0YMJGgRaLj4RyBiuYQatof5ORcUYYz1Ijgx0AW1Vqwfg1mwflVv7UFwJJwV68dyOe9wfmB5vB/LI2SyPgRE9gvnGt6bcxD7honXcJ7jvMKFSfYjGICEQTxodljc51H6Lhi2pDJC7RYnKpppcEIlJHHVj5MIVz050dB8gw7C3EeEkzcjVd17773pxMkVSIa8JQhxouLeJZzkCT+cxAhA3BOrwMmOkyuhihtUgpMnfcc4GfPe1KJxTxhq1ziB0YSDEznNUegEzUmQm1IyHwUG5qPWi2HlOWHy3kwESUY4lKRyRpDiIhT4DiZYgO9rml0TPAgtjCbILTV4nu9cwk7RooELWbvvvnsa5pzv/AI3sieA8BhNBQvcboPzA2GGZtxLwvc2AYnXc46hdQLvy8iFfFfz3U5I5D2oeeNcw4U0hmGn1osLe9xwmfDFujM/tW/gXEXtHa+tGng4N7DNzMsFOy6+MQAI5zsuEnKze1pTsD5cpCNAsZ6cjwhtvBfPMx/7j/MO68Y+ZJvBunHe4tzDOUj6rtSqqNopQ1JZIDRxBZSrdFzxo7kgJyeCE1cmCWKEF67qMboT8xCAeIzneR3zckWV17EsAhXPFyd+8DqCGU1BaOZS4MTGMlh+0RSQggJNUTjRg68earR4f9rcF+tIU0TWgZMo4bHYDtav6ghVklSO+F7ke5XvSL5v+S4Gf/N9Sg0P372EheI7ke9Qvm/5yTx8d/J9yzx89xYIOjzHhSy+ZwsEGd6XcwPfvV+F7+viPYtzDIrvb96b8wVYHy6iFd/zbA/rxd98rzMvExa3frye8wrrx2vBcllGcQ4Dry3mKba7OB8xFc0ZmY8aOt6X+UGNGMskrPGc9F0xbEmSJElSBg6QIUmSJEkZGLYkSZIkKQPDliRJkiRlYNiSJEmSpAwMW5IkSZKUgWFLkiRJkjIwbEmSJElSBoYtSZIkScrAsCVJkiRJGRi2JElagptvvjlOO+20ePHFF2Pu3LmlRyVJ+mq1KiqVfpckqcaYM2dOjB8/PkaOHBnvv/9+TJs2LZZbbrlo3LhxrLTSSvGjH/0o1lhjjTjnnHPigQceiLPPPjt22GGHqFevXmkJkiQtmTVbkqQah6A1atSoGDhwYFx33XXx73//O+6///546KGH0nTvvffGPffck8KYJEnflmFLklTjfPTRR3H99dfHX//615g0aVIcdthhccEFF8TFF18cJ598cqy//vpx1113xQcffFB6xZfRnJCasE8//TQ++eSTtIypU6fG7NmzS3N84fPPP0+PTZkyJc3HxGs+++yzmDdv3oJ5Zs2aFZMnT/7SPNOnT18wjySperIZoSSpxiFY3XnnndGqVavUTJBmg3Xr1o1atWrF/PnzY+bMmTFx4sRYffXV47zzzvuvZoRPPPFEev3zzz8fH3/8cTRp0iQ23njj2GOPPaJHjx6x/PLLp/dhGU899VQKdqNHj07Lbt68eWy77bZxxBFHxLrrrptCFjVphDvmIWC1bNkydtttt+jVq1d06NAhLUuSVP1YsyVJqjG4vkiNESGpdu3a0aVLl2jdunXqp0XYqlOnTtSvXz+aNWsWa6+9djRs2LD0yi8jEBHQ9t9//zj11FNj3333TQHtjjvuiIcffnhBDdeTTz6ZHmvQoEEcddRRcdJJJ0Xv3r2jXbt2KXiBoDVo0KBo2rRpHH/88Wl5e++9d6y11lppfSVJ1ZdhS5JUYxBwqG2iLxbhhtBD6FoYNVwELwbMWBSCWPfu3VPNU58+fVLY2mKLLVLgeuSRRxaErbfeeiveeeed6NixY+yzzz5pXsLWdtttl8Iay2eADmq3qMFiOUzMs/XWW8cqq6ySliNJqp4MW5KkGoP+UfSHYoCMRo0apcD1bdDMj4lRDEeMGJFCFcumJuqll15a0NeKGi1qyqhNe++991J/LN6XWquVV145hS3+JtjRB4x5aJa4wgorpBo35pEkVV+1z6pU+l2SpLJGICLM3Hfffanp4JZbbplCzZLQxO/NN9+Mbt26RZs2bVKtFwHrtttuiwEDBsStt96amgo+/vjj8fbbb6fgdOihh6YmiNRwjR07Ns376quvpnDGYzxHPy/CVhHQ6BfGzw8//DCFNYIa67iomjdJUvVg2JIk1RhF88C77747jQC44YYbpmlJFg5b7777blxxxRXp8d133z0OOeSQ1HeLATIIThMmTIgf//jHqcaKZoCbb755GhCDv2lSyHs/88wz6R5eDMDBT5ogMjH4BrVkBDh+MpgGTRYlSdWTzQglSTUGYYumgwztznDsw4YNSzVNCw9Ewd8zZsxYMIhFVQQm+n1RI9a3b980yEanTp1SHyyGhK+6LJoQEqi22mqr1F+LATIIaCz3scceS80ZmWfNNdeMbbbZJoW2U045JXbdddfU3JFQJkmqvgxbkqQao6jZYnALAg5h65prrknNArn3Fn2q6Df19NNPx1VXXZV+XxTCEk39mAhXzMcyCGIF5uHGyQQm7sHVokWLNNQ8YY/XEeYwfPjw9FruvbXiiium9aL5IPNQ+yZJqr5sRihJqnEYeIJaKMIRQYfBKbiBMX2u6FvF0PD0n6IJIIGpajNC+n3RxI95CUzjxo1L877yyitpGQS6ww8/PA0lzz22GAqe0Q95L+bh/Zhnxx13jPbt26eh33k/+nMxD+9PAGP4eWq7fvSjH5XWWpJU3Ri2JEk1DoNPMOw7zQlpEsj9sAhF1GiNGTMmDV5BXyzCEEOzE6i6du2aap1WXXXVVDvGQBb33HNPGhiDWizmJYxRO0bzQt6DmxSzzIceeigNyvHCCy+kmq0999wz9ttvvxTIXn755VTD9uCDD8b999+fghfvwVDxNCdkHklS9VSrYuGG6pIk1QCc/ugzxbDs9NuixgqM/keYYkALgg61XjTnIyQxgAW1UvzN6/jJcpiPid9ZVjGsOzVfzEctGsvntcxHEGP5/E3zQe7PtfA8PM98/C1Jqp4MW5IkSZKUgQNkSJIkSVIGhi1JkiRJysCwJUmSJEkZGLYkSZIkKQPDliRJkiRlYNiSJEmSpAwMW5IkSZKUgWFLkiRJkjIwbEmSJEnSdy7i/wOU5ZLJ1S/17QAAAABJRU5ErkJggg==;" vertex="1" parent="1">
          <mxGeometry x="428.36" y="310" width="242.76" height="190" as="geometry" />
        </mxCell>
        <mxCell id="fSu_uZtvP68bl21nm0Wx-3" value="ORAL cancer Macroscopic&amp;nbsp; Dataset Distribution" style="text;html=1;whiteSpace=wrap;overflow=hidden;rounded=0;" vertex="1" parent="1">
          <mxGeometry x="270" y="280" width="280" height="30" as="geometry" />
        </mxCell>
        <mxCell id="fSu_uZtvP68bl21nm0Wx-4" value="" style="shape=image;imageAspect=0;aspect=fixed;verticalLabelPosition=bottom;verticalAlign=top;image=data:image/png,iVBORw0KGgoAAAANSUhEUgAAAs8AAAIvCAYAAACLNjY1AAAAAXNSR0IArs4c6QAAAARnQU1BAACxjwv8YQUAAAAJcEhZcwAADsMAAA7DAcdvqGQAAHESSURBVHhe7d0HnBT1/f/xDwJSRDoqYkdFRbE3LGABO2LHronmF01M1JifLSZGbIklyc8YsQuKBbEg9o5dEbGiIqKAIkqTKtX73+ubHf7reegcEXK393o+HsNxu7Ozs7N7O+/97Ge+U6esXEiSJEn6UcsVfkqSJEn6EYZnSZIkKSfDsyRJkpST4VmSJEnKyfAsSZIk5WR4liRJknIyPEuSJEk5Oc6zpKVu4cKF8fnnn8djjz0WTZs2je233z7WWGONwrU1G2+hs2fPjtdeey0++OCDmDx5ctSpUyc6d+4cm222WbRo0aIwp5aW/v37x9y5c2OrrbaKTp06FS4tbXPmzIn33nsvHn300dhuu+1i8803j5YtWxauXbaGDx+epsaNG0ePHj3ST6mUGZ6lGmDixIkxevTomDBhQjRs2DC23XbbWHHFFaNu3bqFOf5txIgRaV4CW3UKEQSbYcOGxRlnnBGrrbZa/Pa3v40ddtihcG3NxmMjOPft2zfef//9WLBgQTRq1CiOPPLI2HvvvaNdu3aFOb+L5/L111+PVVddNdZdd930oUJLhsA2ffr0+MUvfhFHHHFE4dKf1scffxxjx46NadOmFS75vuWWWy79ba688sqFS5aer7/+Ou655544/fTT09/TscceG+3bty9cu+SIBPPnz08fdr/88su0XXmNg9c17y0rrbRSrLLKKlGvXr30QfGWW25JU6tWreLaa6+N1q1bp/mlUmXbhlQDvP3223HJJZfEgQceGD//+c/T7998803h2v/vtttui9///vdx3XXXFS7R0jZr1qwUnF944YVYffXV46STTorf/e53sdNOO0Xz5s0Lc33f0KFDo1evXnHVVVfFmDFjCpdqSRDWCHQrrLBC4ZKf3uDBg1NQPeyww+KEE0743nTiiSfGL3/5y/S3WVN9++236X1l5MiRceedd0bv3r1TMOdxMfHh969//Ws88MADKVzzjZJUGxmepRqEnRuVr7vuuivGjRtXuFT/TVTp3nzzzRScqYASrrp3756qyX59vWwQ6K6++uro1q1b4ZKlg296OnbsmEJlxemCCy6I888/P9Zff/3C3DXPjBkz4pVXXkkfBv7xj3/ElClTYvfdd4/TTjstTXwg/Oyzz+Kf//xnXHTRRakqLdVGhmepBiGM8ZUwvcNUhyqrPqtytFPMmzev8NtPhw809Dkvv/zyqfWCr7YbNGiw6CttLX30+tIywLZfmng+acPZf//9K53222+/ZdKysTTwt/HWW2+lDyJUlY8++uj0YeDXv/51+kDI9Ktf/SouvPDCFKRpv+I1LtVG9jxLNcBTTz2Vvt7nK2EqQXfffXfq72QHt/HGGxfmijjnnHPiySefjG222SZVhzBz5swYMmRIfPLJJ9GlS5fYYIMNon79+uk6UD265pprYu21146tt946/aTHkbYCpvXWWy9Nb7zxRnz66acpLLLj3HTTTVNfNct/9dVX08FyVMUJ+Bwox5QdwFSx5/nwww9PYZPbcLBds2bNYsMNN0z9ok2aNEm9oxm+Gqb3kgOS6Dul15MQw9f0W265ZVo3bp8hALDezLPHHnukvmIeO+GAx07I+SF8IKG3lWVQZWPdaQdYa6210kFZa665ZgoNX3zxRdomjz/+eNx8880pNLE+VJzpR6d944f6mGkDYDsccsghqR1gk002SduCdb3//vvTwW+0fRBk+KDE+tMfzX1stNFG6cPAyy+/nLYh24Tt3qFDh/Qcs75ZcKcyzjwffvhhjB8/Pj3f3Dbb5txvxb5sdguTJk1Kzxl99LSmsEyqqrzeHnroofTYsnXJsI6jRo1Kr1NaUdiWBFq2Gbejalv8gYJ14bFRuef+uD2vTfpqWTdeX3kOuLz11lvT88Trl9clstcBr6W99torvQ54/VBd5fnhdbPzzjunx1X8elucv//973H77benx8Lf34/hdct98RrhOeUDFtuD107btm3T87vOOuuk13sx/r44boFtwrbhb4rng+3N3w4H27Zp0yY9J8U9zxygyt8ij5GDCfkwwbw8zjz99NyOb7R4nLvttlucfPLJ6fmt+O0JzxHPFX8b/I3zd1xZz3P2OPi75bUwderUdFvm5/HzHsW2rLh83mPefffd+Oijj9L2A89R9hribxgsn3l5rbHuPHaeR7Yn826xxRYGfC01dcs/WZ5f+L+kaoqdLwelscMgcBFo2BmzEyJkZAcOErI5sJAwxMFqIFjRk3vfffelHQ/hrjg8sxy+pmWHy3WERHby9DWyIyS8EUyefvrptCMkhHBgHPNw0BBf83K//CRssZ6ENEbTYCfPfREkCJsETZaFbH5CDhOBlR0pt+M2hCx2tiyLdXnwwQdTSOe+CYPsNNkhcxuCKztlsJ6E2eeffz6FBu6TAMMOnHn56nlxCJrvvPNO2lYEJP5P6GRUg2xnToBlZ04wILyybjw2bksYJFRwHVVI5lscghHhh0BJyOExcHu277nnnpuCNNue35nY9mwn7ofKNo+H+2abZNfzOiGQETiZByyH/tVnn302bQdeO2xDth/bnHDBfReHuK+++ir1cBOInnnmmbSuzMuHGIJTnz590vNCSMnCDM8xy+dDwcMPP5zWlW3Hc8W2IwTygYd14/VK+GP70qfPc8R6EbyZeA0ThgjreQ4+O++881JQ5rXDhwEUvw74EPfEE098ZzsSuJifwMdBuD+G1yvry2vqgAMOSI+34sTfJwGO1y6vc7YZ68DfBIGQbcHj5P55LfEBhr+h7O+XkMzzyrrynPH64rliXZlo1eL5ZZ3BdWxrngdeK/w98Rh5bnld8DfNNuf9oPhDS2VYRz60sZz//d//TR9Eij+UZlhXPnywzGy9CfpM/H3xuucnH9B4rDfccEO6Lnvd8ZPtyGud1x0fEHkNsu14L2IdmHjs2euBib8pPohlB0KznXjs/A3xmHmNZfOyHJ5ztkvxe530UzE8SzVAFp4JTuy42RHyO+GMSltWWaosPBNSCBDsbAiOBJLiHQo78euvvz6FZipN/CS0siNmorrDPBzJTy8vOzvCFAGAAD1gwIAUiAiAVCEJ6wyfRchkWezoCRZZeCZQsXMj7O67776pmsSOlHDCMnfZZZd0H+yYCWu0qHCwJKGE+6CvlYDEdTxewiGhnw8SYMfMerOjJmwQHqjGUtUmqFJZXxyWSdi56aab0g6dKjXVSYIlO33WheWxU+ZxEeyobj333HNp+/Ts2TMOPfTQNJIIVeAfqnpVFp7ZnmxvPigQYHnu2I5UTgl6PDYCGLfl/7weuC8+QLEdWA8QaPngApZBQOUx8PzyeKigE1ZeeumlFIJ5LKwHuJygfeONN6YATUVzzz33TBVMtg/BJvvgRvWU++I29MfylT/PPa9HnlueS9aDYEOY43XE80AI4jV97733pm89eA1wH127dk2PhXDGvFQ22S4/5o477khhlceXhefsdcDrjUDIY+Sxc19sZ7YVP3nN5rkPXp+EUl6H/M0R5oontgnPAY+Nvy+WzWNke2TfCDCkHM8jAY8PJcxHGMz+frkNrwm+NeI5ZtvzemebZdVmbs9rgr8PXuN8gOJy1oHXNvOzDbmODxQ8bp6nHwuRrA/fKPCh6+yzz06v8x8L3JnKwjPvIawDr2Ve32x7qs38zfBBgA9Z/O3wHsHfO88f2/hvf/tbep3tuOOO6e+PEJ/9bbNcfgfbiSEKef3yXsffCNVmthOPgfdGtkP2oVr6SdG2Ial6e/LJJ8vKdyRl5eG37PXXXy8r34mX7bbbbmXlO6SyW265pTBXWVn5Tq+sfOdS9qtf/apwSVlZ+Y6o7Le//W1ZeRApu+uuu8rKd7SFa/6tPFiUle+Myw4//PCy8h1ouqw8zJZdfvnlZeVBu6w8aJVdccUV6bLycFA2bdq0sgsvvLCsfOdatsoqq5T9/ve/LysPvWm55cG5rHyHXVa+gy8r36GVle8g0/LmzJlT9uKLL5aV70TLyoNCWa9evdL9zpw5M92uPFildWzZsmVZeQArKw+Q6XblIa6sPBCVlYeqsieeeGLROnCbCRMmlB155JFl5cEirU+mfIdaVh5U0mM68cQTy8o/NKT5y4NJWfkOujBX5fr27Zu2aXnISfdXHgjT/ZUHo7I777yzrHxHX1YetsqefvrpsvIPBGXl4bWsPCCVle/cy8p33mXlwTI9Vu6nPFAWllq58tBTVr6DLzvuuOPS84lJkyaVDRw4sKw88JSVB/T0HGTrwLbq3bt3WXk4LCsPHemxs514bFxXHuzTtioPs2n9Mqwnr4GpU6em+VhW9jz+7//+b1l5oPnO64Xn8Nxzz033X3wfTG+88UbZr3/96/Qc8vq777770m3Kg25Znz59yspDWrq+PDQt2ubc56BBg8rKP/SVlYe7tAwuL/8gVVb+QaOs/INPmp/5uJx1Y3k812zfPMoDW3rOee4z2euAbXXKKaeUjR07dtHj4HVV/kEwPZ+sRx7loS79DZWHsfQ6rTjxGujRo0f6+8SCBQvSY+K1k71us+1eHuzLdt999/SaKQ+BaX6wXoccckhZ+QeZsiuvvLKs/ANnWl9ux7K4LduI55Tn84YbbigrD/Pp9dKvX7+y8g9caV5eMyyX18PRRx+dtvmP4e+u/EN3WfkHnvR6qYryD5xpWx944IFl5SE+XcY6su4si+cze/ysN+8R/B3xmigP7Gl+Hhuv7/IPN2XnnXdeeh3yWLPXULaMzOmnn57eD3nP47rstZPNy+8/9jcoLSkPGJRqGCpOVD6p5vC1LP3MVHup/i0NVKq5L6qBVNX4ScWIr5upKFPponpEVYgKGlUxRp4oDwxpvSqiOkYFimof1SFuR/WPqhxfn1NRp4rJRIWONgiqq1TCeIxUtKi4UlGiGsplVBfL388K9/BvLJ9qJpUo7oNl/1gVivaM8h1vqsJmX1vzmKmMUWGlkkpVjOowj4/KMsukQkdFkuoeVa/ssv8E1U3Wg/tmHdhWVNipJLJeVGmp4vHYuI7tw/agAlkeWhZtD9aL+bgN87Fu2WuF5bFsKrPlwSPdhqog31LwbcI+++yzaPsx0TLAiCI8xuLtTdWQajWXU4EvD5PpOeJyvr7n9cK6sc3Yxvzkdcw24n6p0DI/zxHrQ5Wc19kPVe7z4nVa/Dpg4jK2bXlgS883950H25IqMsNBVpzoPWbowaxKyrw8FrYjj4XHxmNmu/Fc8XdSHvDSts7wzQvflvA3wrCU2Tpnzz9/XyyHZWd4PqlM83fKa4N5mY8qPM85f4O8Jn4MzxXbgW1fvPwllT1+XnssM1tvnnPWi9ceLUD8PWX4++E9hfXlmxduw8RjZxksL8Nrg9cO85UH5nTbbDtl9/ef/g1Ki2N4lmoYdgjsJHbdddf0FS5hhADNzm9pYEdPWM9w/+ygCAXsoAhL/J5dx86c61gfwkFFhFrCAUEiw86OQMPOnzBB+GOnz1eyBBwCNV9l02WWTQwNRjsK4ZreZz5IFAc6AgShvCoBjPtjGWxXdvBZiOAnj4nAxc6dHTYBcGniAwjhqTgAEKTZVoQxwlLxYyO4ElT4cMF2zwIh68vj4mtyvhL/05/+FH/84x/TT75SZ3sTQrLAzclb+ODC9qPFofjrfu6b0MPP4uePgEybASGc1hzabIqfK3qkadtgPtaF9WMb8wGB5dA2RMsHP+n3pfWIeX8KbCs++BRvK1632YcxHjfbLA9eBzwvhOSK08EHH5w+XPEaBs8bzwH9uLQBMbQb253twfahrYTXLa/vDMGZvxs+bHA/xdt4cXhc/A1WfL3y98TjZFvzAeHHcBvWmddL8d/Rf4K/Ef52ef4ZpYPH/+c//zmuvPLK9CGNvyNee+D1y4dqXhf0pV9++eVp4iBG2m9oiylGiwYfQLiObcuBjgMHDkztI2xXaWkyPEs1FH2rTOxs6R0lbLLjq0xxAKvox3aU7NSycJxhh01Izqo9FXfyXEf4qayix/yEr4q4DYGNKhK3Y6fP/3lMhIqsh7V4IvQQ5qgGVnzsLI+wmQWKPNiRMz+BqyKWR0WV65mPsL40sc0JP8XY3mxrtj/rWPy8sl6sI9h+bH+2CaGDAyD79euXwgUH0mUHGRJSCTjMx+uI1wJhkv9zX8WBDNw3zx/rVfycE0IJLCyLqnzF54k+bebhGww+ELBswiEfAOlXJazTv85oFhykSA8z/a+VfXNRVdwXr6vix8H/eQxsv+ybjDyYn0ow37RUNhFY+XsBgZVKMtudx0M/MX3WbHe2CdVVXkPF9822R8X1/SHMx/zFHw5YT9aD54jXQZ4PB9nzyvPI6+E/DdB8KOAA0uz55OA+eujpw2a78Jzzd5R9SOJ5ojebnmk+PNBfzuuV7ccBz4888kjqnc/QD06fM68jXiu8BzIf89NnzntGxfcE6adieJZqKIIh1RequBzsQ4tDZZVedq7sTNkZZl/XZ/idnfcP7Si5LVNFXJZ3B1+M+6xsp8bl7EjZ4Wf3yfLZqXMQHiNQXHzxxZVOxx9//KIwlOG2hMnK1n1xuA3bItuhF8su5yfzLcljrwqWv7h1z7bN4q7Pnk/CCd9M/OUvf0mtEbS/cPZDqoBUPzmlMx88kN2G7c+ys+cjuxz8n+eO64ovB7fjtcjpsSt7jpiodjMMGh9CCHe0xlBd5CQjjCJDaGJUCqqIl156aWrH4b7+E9m2WtaownOgJqNm8K3FUUcdlSqv2bbgueADUPF2zD6QVNzuP+bHXgt5lkXFnOeFbwb40FLZ30BV8H5EoCU4U00+7rjj0qgoPHZ+8tzzITpbNx4D2+N//ud/0nN/6qmnpoMM+YDBcq644oo0Ak62XoRm/u65nHn5YMaH7QEDBqRvMfiwUtn7ofRTMDxLNRjhmZ5jqlzsNKi2VET4JKiw02HnUrwjZcfEV6f/aUCpCipSlfVgsqOj/5HWA4Iw1TR26IQCqn0cOU9vZ2XTj41skRfhgXDINqmIIJpVs5ivsup0dUPVmaocFc2f/exnKWQwCgbBje1GFbjidiPoEWp4bRCkij/o8Bri+aPCXByuCH30+vJc0ZZT8fnJJvpwGQkmq84SmKiw0+/OuOW05jBRkX7xxRdT8C9ua6hJeI1T4ee1SSBk+/O4eKxsC17jFSvCvN75++TvoLIPmEsTrVn8jfFeQoWYfuT/BN9q8OGHx0+ryjHHHLPo8TOKCip73+H1yIcwRq7hwwaBmXGseY3RplX8muR1RB/+QQcdlO6DoH7KKaekggAfXPiblZYGw7NUgxF06EsllHByFL7WrFhtYSdN0GOHw9BRxV8Ts5PmK86l3YJQjIoUX12znlmQp++WPkd23OxYeVyEaFoyaB1gHankEc74erd44nHRZvBTYEfPDpntxLbMAiI/Cc60FrAtqaRR+a/u2L6sOz/5EEVQ5fERUHgd0D5A72kxtjkBlw8QDM1X/NqgH5rnovi5A8skkBNWaK/h+az4PPHcERaz2/GcMX/2nPIBieeaEJ4dCMo8xSG9JuFx8tpkW2cH/fFNCJez3Wlvydo0Mvwt04vN3wjbvrLKafF2/ynRF06ll+eCVgv+Rivr6+f1QH87rUCVrV+G54+J0Ju1IPH4eU55zfE3xof5DI+L33m+uQ2vKT7E8UE1G7uc++b2zMtrh9cT87Js5mXb8drlb5P3kmVZFFDtYniWajB2dNkICFQZCXjsNIqxc6GqxI6FnkvG6eUAQ3bO7ACpTP5U4TMPdoB8NX/dddelERoI/fS6EsrYUfK1PuvKDpGD4nhstBzQz0g1iXWnokfvLr9zeTa+8X+KPkqqb4QXKqD0WbJsxpTl63cCD2ctZJuzc6/uCC0cTEZoobWHAwQZ25ltfvXVV6fnoeIHJ6rRjJXMhxceP2Pp8qGB2/B64Xki8BZXrHmuqGhTMSQYMnbzoEGD0n1RQWY5BDIOWKQiS6jkvlk2B9PxWuSkGFQ8WU96ZQlL2WgT1QWhjZYGPugtbuLvkMdHmGN78KGPgyCZqJzy98eJQ/jgyt9vMT4EMxGqOUERlVRe59k25PVOv3DFv/GfAlVvqsKc8ZKDcBnvnAM4uV8O+mPi/1zG88s6/dD7Bs8d30IwvjvVY55X/nbpY+bxE3yL22kI4rxmeD0wD/Nyn7z22G5sd3rKeY/gdrRycCAir0muZ14OVuW9gWDNh4GK21f6qRiepRqOnRRfh7KjpmpT2VeVVLQ4QQpfgbMDZsfIUewclEOlhoC9rFBZpCWDHR2hmZ0lI0FQ5eJgIY64pwIJ+hrpoaWfka/wmZ91J4jdeuutaadM4OKr3J8CoZETwRCO2Wlz8BHrx08CHQdo0pvLetUEbGdGtKAqTKWPsMq244MAoYzrCSTFCMK0FbAdCNZZwOUnwYTbEGgJJln4IZzTw8pJLQjdPCd8qOG54ie3JeQQprOqNSGawMxzyvZlvZiXXlWq3nxI4ZuA6hSeqWTyAYrHtbiJqizBkOBISxWvZV5LXMffHic1IWCzHSu2/nDQIaffZ/vzgTF7vbNd+D9/JwTbiu0ePwU+DPGtw/HHH5+2Pd8ysK7Z88jzw/PIOvCtDH/HP/S+wfsRYZzHz99p9vj5u+fvlW9v+HCX4ZsQ2jx4/rMPxdnfOVVw7o/hGbPwzDccrAvzZq8dXkdczt8nbR9U+6WlwTMMSjUAOzK+6iSwZAdcZTsudnoEHo6Sp2JFxYvAxLBZGQIN1VyuZznsgAk8BOqjjz46VZGo1NAywUFbhHB2kFSyCd7szJk/w+X0NIKD+Yp3glSjCFkEJKponEGN0MHR9VTNGO6NERYIRRx5zymMqXpRYT755JPTumaPjeouO01CK9VOqljsYAkWfEhgqCrORMbj4HbgOtoG2GlzND7L4LZ58Bip0hOe+aBBEGJZrA8Bnr5cfrKNM6wHFTluw+MlAOXBc0DVn21O8GT92XYER4I6Iw+w7XmuMz/0OqAamT23jGtMECI8sB14TDwetg3hj+eGefigwv95/RCYeB4JJgQ/wg3/5/EzEW54fBz4RsAhdLPetFiwfVkP1pfgQrjj9cNzRYWV+6ACTnWax8t6cRteF4Ro1otqP4+d9SV0nnTSSSmAFVe4F4cPAjwGjgEgcOOHXgc8Z2wn1o/tyGP4sW8S+PDB65715bEtbmKb8FrgNc1P7jN73ugjZrvxOs8wDx9uwLxsP/4W2Z7cH9sla1niWxECJH/LbFOuJyzymmTb81iLVbZdfgivf557voHJWh/4O2e0FLYl68DfMz3G2d89l/HYWBdew4R/nl++OWBZbFduyzy8Bvk2idcQj4/XFK+H7O+b55r7JFzzuJl4rrhPPrQy7jiPB7zG+CDGtmG7s57Z8g477LBF45FLS0Od8j/ApdNAJeknQ5ilCsifK6EzC0wZLmdHws6D/7MTrFixYxmEM34yD8GI+Qhi9Bqy42Jnw0+uZ152UFzPDoudW4b74Xq+nqZ6llUgwW3Z4XEdy8t2YNwv68i83AfXZ+vLZdwP8xYvK8O8rAvzZ32MrA/bgWVx22ybMB/rxvXZzr0qWJ9sW3G//J7t2Fk/7qd4mawPO3wu53rWJQ8eCx9msu3L7bkvLmf7sSyen+xx4YdeB9k2Yr25juWyntnj4bri557r+Zk9B1lwzmTLY8puA0InAYlvO0488cR02ulMZfcFbsu6sg15TKxX9vxnz2nxvKzb4l4LlckOhM22GbJtwX1VfB1wf9wvr8esF7n4+sqwrOw18UPY9tnyWCduw7pwn1yWvU64f5bFNqlYIc22fbZtwLbIXoPZdmEeHgOXVba9KtsueXCb7P5Zl+LnhvXn+cleX8i2Ndfz+LPLWXcuzx4Hl2d/r7w+mLJ15z74nXn5mT3ubJux/hXvM1u/4nmz5Vfl8UpVZXiWJH1HFkgIIcX4loB+VIaWY1QDKohUEiWpNjE8S5K+g+ryiBEj0lfxtKFQGacnnbO30WdKixBneKTVg95dSapNDM+SpO+gx5UzwtHLTV85X4HTr0ovKq0A9EszbrFVZ0m1keFZkvQdHLjHSBiMysGBdwRmAjRVaA7OPPLII9MBccU915JUWxieJUnfQb8zB21xUBb9zxkOCMsOxqp4cJok1RaGZ0mSJCknSweSJElSTlael5FsPEp7BCVJkqqnbNxw2tOyccUrMjwvA/QOMuQTZ5mqeLIJSZIk/fcRiSl2crIfzsrJSXcqy2yG52Vg8uTJccUVV8TVV19duESSJEnVEafBv/baa6NNmzaVdgwYnpcBTt174YUXxlNPPRX/+7//m07FavVZkiSp+uB08gzRSW674447olmzZpWOLGR4XgZmz56dTmc7fPjw6N+/f6ywwgoO8yRJklSNkNcuvvjieOedd2LAgAHRpEkT2zb+W7LwzKltf+jJkCRJ0n9H3rxm+VOSJEnKyfAsSZIk5WR4liRJknIyPEuSJEk5GZ4lSZKknAzPkiRJUk6GZ0mSJCknw7MkSZKUk+FZkiRJysnwLEmSJOVkeJYkSZJyMjxLkiRJORmeJUmSpJwMz5IkSVJOdcrKFf5fLcyYMSNGjx4dEyZMSP9fuHBhNGzYMFq3bh0bbLBBNGvWLOrVq5fmnTt3brzyyivx5Zdfpv8Xa9euXay//vqx2mqrFS6JmDNnTowdOzY+/vjj+Prrr6Nu3brRtm3baN++ffpZp06dwpwRM2fOjM8//zw++uijtB7LL798rLrqqrH22mvHKqusUpgrn9mzZ0fv3r3jzTffjAEDBkSTJk2+c1+SJEn678qb16pdeP7ggw/i5ptvjvfeey+F4gULFqSVX3311ePQQw+Nzp07R5s2bdKDmTRpUvzP//xPDBs2LM23wgorFJYSsdNOO8WRRx4Zu+yyS+GSiBEjRsSgQYPi8ccfj6+++irq168f6623XhxwwAGx5557RsuWLdN8LOvtt9+Ohx9+OB555JEUtBs0aBAbb7xx7LXXXtGjR49o3Lhx7gBseJYkSare8ua1ate2MW3atFTtJcz+9a9/jeuvvz4F5MmTJ8fZZ5+9KCgX22677eKiiy6Kxx57bNHE71yeoYJ93XXXxUMPPZRC8A033BAXXnhhur/+/funkJyZMmVK3H333WnDdenSJa3DaaedFlOnTo0+ffqkdZg3b15hbkmSJNUW1S48b7TRRin4HnTQQbHlllvGhhtuGLvttlv86le/iunTp6dgTcW5GG0drVq1Sm0V2cTvVItB0OVTBNVsgvOJJ54Ym2yySeywww5x2GGHpZaM559/flEof/nll2PMmDHRqVOnFNz5SZhnatq0adx///3xzTffpHklSZJUe1S7to3KEFQJvvvuu2+ceeaZKfASkLO2jYkTJ6a2DnqXCbf83GabbVJvMn3Ns2bNioEDB8Ytt9ySAvCpp566KFi/88478Y9//CP1N1ON5jZXXHFFDB06NLbYYotU7c48++yzcfvtt6fWEpa30korFa75/6hwM3377beFS/79NcAll1wS77777rJt2xh1fcS09wq/SCpJ654Y0axj4RdJ0pKqsT3PlSHYDh48OIXaP//5zylEE5LpReZ3rgcHEhJaeUjdunVL/c4EaSrWBGQOLqS/+YQTTkjzg1YMKt1c9/e//z1Vmc8666y0zL333juOPfbYwpyRwu9tt92WNuhzzz2XDkqsuFFHjRoV77//fowfP75wyb8r3/RPY5mG5yE9yjfe4MIvkkpSlwci2u1X+EWStKRqbM9zRQRfHsR9990Xm2++eXTo0CEFZ1A9pqWD6vM555wTv//972P//fcP+qMJuQRcWjEI1IyYwQGCWcU5w4F/XMZ83BfBm43HT64rxny0iDBqB4G4uLqc+fDDD1NVmiCeTVdffXWqZEuSJKlmq/bh+cUXX4x+/fqlg/gIx/RAZxo1apRGv+jatWuqGG+66aYpPP/hD39I4ZYRMyr2Ry9thHmq3EOGDFk0cQAjI39IkiSpZqvW4ZkD8+64445UBaa1gqozld9i9DQzLbfccmni+o4dO8aKK66Y2joIz1zevHnzNBY0VeNijOfMZVSlW7RokcrzWZme64rRe01VOqtWs9yKuJzKOAcsZhND4BH0JUmSVLNVy/BMSH3wwQdTqwYjYTDyxvbbb58CcWWBtVjWojF//vwUqumDZlpnnXVS8GV85+KRMj799NPU5sHJVzgIkdvQy8xBf5xQpRi3JYxzohTWq7I+GC5jHbNQn02VzStJkqSapdqFZw7ge+GFF+LWW29No2QwVvPOO++cAjAVYkIxAZkeZSrLjMLBwX2M18xtOTshwZt5CcOcmZCqMm0dhG+GunvttddSGwgH9dFWwXI4GyFVYoIuw9lxwhVG4qDfmnBNyGZ8Z07cwhB3FXunJUmSVPqqXXgm/HKA3dNPPx1rrbVWCr8chPfqq6+mifGXqSDT0/zZZ5/FPffcE48++mgap5kDBDkJCkdIMowcBxhm4ZlTe2+99dapesxwc88880zqRX7yySdTUKZvOjvtN0PUMT9BmX5r5uXMhIzIQcV5n332+V77iCRJkkpftRuqjqpxz549U3WZKnDFNo1TTjkljj766FQppor8pz/9KVWIqTozP9XmHXfcMc1Dtbm41/iLL75II2FwRkHGaiYAcwbBY445Jrp3755CNtgkhHiC+I033pjaN6haczBgr1690jB4P9Y+Uizv0Cc/OYeqk0qfQ9VJ0k8ib16rduGZEEywXZy2bdtGmzZtUiimNWPcuHGpvYM2Dh4glWEO2KPyzDzFIZeWD1owOKkKG4jr6HVmXn4WbyAOLmRdqD5zP1SlOeiQSjbzVoXhWdJSY3iWpJ9EjQ3PpcjwLGmpMTxL0k8ib16rdj3PkiRJUnVl5XkZsPIsaamppZXnuQvLYtq8hYXfJJWquuV5qUWDurHcMohNtm1UI4ZnSUtNLQ3PH0+bF/d8Mr3wm6RS1aT+cnHM+s3Tz6XNtg1JUsmi6vNt+T9OTk6lP1U3hmdJkiQpJ8OzJEmSlJPhWZIkScrJ8CxJkiTlZHiWJEmScjI8S5IkSTkZniVJkqScDM+SJElSToZnSZIkKSfDsyRJkpST4VmSJEnKyfAsSZIk5WR4liRJknIyPEuSJEk5GZ4lSZKknAzPkiRJUk6GZ0mSJCknw7MkSZKUk+FZkiRJysnwLEmSJOVkeJYkSZJyMjxLkiRJORmeJUmSpJwMz5IkSVJOhmdJkiQpJ8OzJEmSlJPhWZIkScrJ8CxJkiTlZHiWJEmScjI8S5IkSTkZniVJkqScDM+SJElSToZnSZIkKSfDsyRJkpST4VmSJEnKyfAsSZIk5WR4liRJknIyPEuSJEk5GZ4lSZKknAzPkiRJUk6GZ0mSJCknw7MkSZKUk+FZkiRJysnwLEmSJOVkeJYkSZJyMjxLkiRJORmeJUmSpJwMz5IkSVJOhmdJkiQpJ8OzJEmSlJPhWZIkScrJ8CxJkiTlZHiWJEmScjI8S5IkSTkZniVJkqScDM+SJElSToZnSZIkKSfDsyRJkpST4VmSJEnKyfAsSZIk5WR4liRJknIyPEuSJEk5GZ4lSZKknAzPkiRJUk6GZ0mSJCknw7MkSZKUk+FZkiRJysnwLEmSJOVU7cLzt99+G3Pnzo1Zs2bFjBkz0jRz5sz45ptvYuHChVFWVlaY8/+bN2/ed+afPXt2LFiw4Hvz8nvFeVku81bEejAv9/1j80qSJKl2qHbhedy4cdGnT5844YQTYo899ohddtklDjrooPjjH/8YI0aMSAE2k4Xhu+++O37xi19E165dY9ddd41TTz01Xnvtte/Mi6lTp8bAgQPj2GOPjR133DF23333OOecc+Lll19OYbnYF198kZbbq1evNO9ee+0VF1xwQVquJEmSaqdqF56nTJkSb775Zqy55prRs2fPOOqoo2LrrbeOkSNHxl//+td49913F1V/CccDBgyIQYMGRd26dePAAw+MHj16pADet2/fePHFF9N8IBzfddddMXjw4GjYsGFa7t577x0fffRRCsnPP/98Yc6IadOmxUMPPZSWvdJKK8WRRx6ZAjTzslxC/Pz58wtzS5IkqbaoduG5VatWqYK8//77x6GHHhqHHXZYCsXbbbddPPfccym40kJBGP76669T8OX/3OaII45I8++2227x/vvvxyuvvJLCOGF77Nix8dRTT6X/E7APP/zwNHXq1Ck++eSTePrppxdVn7nt0KFDU/sIy2O5VKDXXXfdNO+TTz4Zc+bMSfNKkiSp9qh24XmNNdZIbRXbb799rLXWWtG2bdvYaKONUtsEYXbixImpD5l2DVorXn/99dhiiy1Se8faa68d7du3T6G4SZMmMXr06Pj0009Tlfitt96KL7/8Mi2LivNqq60W66+/fvp/06ZN0/VZKH/jjTdS6N5ss81S6wjz8v+ddtopVaKfeOKJtC6VoZWE3mxCejYtrldbkiRJNUu1C8+VISjTr1ynTp0Uimm7IECPGjUqhVgCMyEbtG+0a9cuVl111XTgIBVnAuyHH34YK6ywQrqcZWQI0ARils+8BN0xY8ZEvXr1UqW5GMtdZZVVUgvJ4to2aCUheE+YMOE7E+srSZKkmq3ah2cqth9//HHceOONqQ+6Q4cO0bJlyxSoadsgLDdu3DgaNGhQuMW/ZQF5+vTpqZpMOGaeRo0apcszK664YrqM5RF6mZcKdHZdMebjvhitg7aNrM2jGC0dv/3tb6NLly6Lpu7du0f//v0Lc0iSJKmmqvbhefjw4WmEDNovGFFjgw02SIE5a4/Acsstl6rSxbJ5CLjZvMxTcb7stsXLy27DdcX4nSm7nqmijTfeOI455pg477zzFk1nn3127LDDDoU5JEmSVFNV6/DMqBuMjkGbxJ577pn6j9u0aZOuyyrOBFiqxrRmFKMyTCimxYOfzMs8FdstaPvgsmx5zEuFmp8V+5qZj/tafvnlU1tHxXANquMMl8cBhtl0yCGHpF5rSZIk1WzVMjwTcmnVuPfee+Ptt99O1WaqzvQ1169fP81DKF555ZVTyJ08efKiVgvCNH3HtGkQcBm9g2DMbQnUDENXHLS/+uqrdFuCM73PBOLWrVun5XBwYjHaRGgDIcBnAbsi7otwzfplE/NyuSRJkmq2aheeaZ0gtHKiFEa1YCi5k046KQVaZK0S9DRzQB99yVSmOciPUEy1mODNSBxcx4gdBO4NN9wwhefPPvsshW3uh/kZ+o77IxAzqgYhd5111kmtGRxkyG2Yl6oz98Fyac3IQrwkSZJqj2oXnhlB44orrkgnPqFNg3YNqsEEXiYO1iP0EnI5cJDrGc/5nnvuSf3RDDP3l7/8JbVXbLLJJik8UwnecsstU4BmHoL5Bx98kG532223pVE5dt555xSIqSZ37tw5BWmGwbv22mvTvI8//nhqISFoM+50xQMPJUmSVPrqnl+u8P9qgTaNSy+9NMaPH5+CKicreeSRR+KBBx5IE6GYVgyCM20ZDB9HiwYVZE50wpkCCcOcCKVbt26LWjsIxoznzHUEbE6YwrwEc+ZjvOcWLVqkdSAY027BfXHqbpbLabm5nJEzGHOaqnZlbRuVoWrNCV4Yso7+Z8J83tv+R8bcETFjZOEXSSVprcMjmnYo/FJ7TJm7MEZMrXy8fUmlY/m6dWKz1g3Tz6Utb16rduE5a5PgjILrrbde6lWmFzmbOPBu9dVXT+GV6jPtFs2aNUvBmInrqBxzlkFOmpL1GvPgaf0gdHNb5uWELJx2m6ozY0VnG4hQTpAmeBOYmzdvnlo5mJcTpXAfVQm/hmdJS43hWVIJq47huU5Z1kSspYZqd+/evdPoIQMGDEj92sskPA/pEfH54MIvkkpSlwci2u1X+KX2GDVtXgwcPb3wm6RS1aT+cnFch+bp59KWN69Vy9E2JEmSpOrI8CxJkiTlZHiWJEmScjI8S5IkSTkZniVJkqScDM+SJElSToZnSZIkKSfDsyRJkpST4VmSJEnKyfAsSZIk5WR4liRJknIyPEuSJEk5GZ4lSZKknAzPkiRJUk6GZ0mSJCknw7MkSZKUk+FZkiRJysnwLEmSJOVkeJYkSZJyMjxLkiRJORmeJUmSpJwMz5IkSVJOhmdJkiQpJ8OzJEmSlJPhWZIkScrJ8CxJkiTlZHiWJEmScjI8S5IkSTkZniVJkqScDM+SJElSToZnSZIkKSfDsyRJkpRTlcPz3Llz44UXXoiXX345xo8fny6bPXt23HXXXXHKKafEL37xi+jTp09MmjQpvv3223S9JEmSVAqqHJ6/+eabuO++++LDDz9M/2f6+OOP484774yxY8fGF198ES+99FI88sgj6TpJkiSpVCxR5fm5555L1eYGDRrE119/HcOGDYsxY8bETjvtFPvss080bNgw7r//fsOzJEmSSkqVwzOtGFOnTo3GjRtHkyZNYsqUKTF8+PDYaqutolu3bnHQQQfFNttskyrTCxYsKNxKkiRJqvmqHJ7r1KkTjRo1ijlz5qSJIP3OO+/ExhtvHC1atIi6devGcsstF/PmzYuysrLCrSRJkqSar8rhuX79+rHJJpvEkCFD4h//+Ec6UHDChAmxxRZbRMuWLWPatGkxffr0aNWqVQrRkiRJUqmocrqlXePQQw9NVeZRo0alyvOee+4Z6667bqpIT548OWbNmhWbb755LL/88oVbSZIkSTVflcMzBwN279499t1339hhhx2ia9eucfzxx6dKMy0bXN++ffvYe++90/8lSZKkUrFEPc9Unzk48Oc//3n07NkzVllllXQdPc4dOnSI/fffPwVsw7MkSZJKyRI3JY8ePTpuv/32+P3vfx+nnnpqauHgIMGRI0fGU089Fe+9917Mnz+/MLckSZJU81U5PBOQhw4dGldeeWU8+uijMXHixHjzzTdj5syZsXDhwjS28/vvvx/33HOP4zxLkiSppFQ5PBOIBw0alIapYzxnJg4QJDhjxRVXTD9fffXVFLQlSZKkUlHl8MwZBp955pno2LFjHHzwwbH11lunIenohQajcDRr1izGjx+/KFBLkiRJpaDK4ZlA/NVXX0Xr1q3TCBsVZSHak6RIkiSp1FQ5PFNlzk6GwlQRJ0z54osv0ggcDF0nSZIklYoqh2eGn9ttt93i9ddfj0ceeSQ+++yzVGHmZClcdvfdd8ewYcMcqk6SJEklp8rhmbMIHnDAAbHmmmvGa6+9Fvfdd198/fXXcdNNN8XVV18db7/9djrbYI8ePdK8kiRJUqmocnjmlNtbbbVV7LPPPrHOOuukgMzvkyZNSiNwdOrUKZ04ZdNNN4369esXbiVJkiTVfFUOz+CgQE7Nfe655y6qOP/973+P66+/Ps4777zYeeedC3NKkiRJpWOJwnOGAwKbNm0a7du3j4022iiNwGG1WZIkSaWqTlkVx5ObMWNGqjBzRsHKUJVmRA7aO9q0aRObbbZZau8gZNdWs2fPjt69e6czMQ4YMCCaNGmyaEi/pWpIj4jPBxd+kVSSujwQ0W6/wi+1x6hp82Lg6OmF3ySVqib1l4vjOjRPP5e2vHmtymuyYMGCGDVqVDz++OPpTINPP/10uhMm/s9ljMLBiBsPPPBAXHXVVfHggw+msaElSZKkmqzK4ZkEzim4adlgLOctt9wyOnfunCYOHMzGdyatt2vXLkaOHJmCNmFakiRJqsmWKDwTjjkt96mnnhqXX355nHHGGWm67LLL4rTTTovtttsuhWhK38cff3wqgz/55JOFJUiSJEk1U5XDM8PRPfbYY9GhQ4c0LF1xLwj/33jjjdM4zw8//HDMnTs3dtppp2jbtm0666AkSZJUk1U5PHN84TfffBNTpkyJWbNmFS79/7iM6wjZzNu4ceN08GAVj0uUJEmSqp0qh2eGoqO6TA/z4MGD0ym5P/300zTxfy7jOuZhXg4U5CDD5s2bF5YgSZIk1UxVDs/Z6bkZju7ZZ5+N2267LW699dY08X8u47oDDzwwzTt//vw0VB090pIkSVJNVuXwTBvGYYcdFkcffXQax3nIkCFx8803p4n/r7TSSum6Qw89NM1L//PBBx+cArckSZJUk1U5PIPKcrdu3eLKK6+MJ554IlWbmfj/FVdcka5jHrRo0SJWXnll2zYkSZJU4y1ReAYHATKWc6tWrWLVVVdNE//nMq7LMAIHQbp4VA5JkiSpJlri8MwBgozd3Ldv37j22mvjX//6Vzqb4P/93/+l6cYbb6x0NA5JkiSppqpyeGbkjE8++SQeeuihuPfee+Oee+6Jq6++Ou677750HnBCM/3PtHEwXJ0kSZJUKqocnhnjedCgQSkoT5gwIfUyf/nll2louo022ij9zigb/J+h6iRJkqRSUeXwTDX5wQcfTGcOPOuss+Kggw6Kpk2bxiGHHBIXXXRRnHnmmdG5c+fUsuGJUSRJklRKqhyeFy5cGOPHj4/VVlst1lxzzVRlzs4g2LBhw+jYsWOsvfba8cILL6TTc0uSJEmlYokOGKQdg6lu3bopOFN5HjduXMyePTtdRsCeOHFifPvtt4VbSJIkSTVflcNzvXr1Yo011ojp06fHlClTUnDmDILPPfdcGn2D6b333otVVlklBWlJkiSpVFQ5PFNp3mGHHdKoG1OnTk0nQOnatWu88soraci6a665JkaMGBG77bZbNGjQoHArSZIkqearcnheccUV47e//W2cfPLJscUWW6SToxxxxBFxzjnnpIMIObvgKaeckibmlSRJkkpFlcMzZwrkIMHGjRunFg7OHkhI3n333eOEE05I06677prONOhZBSVJklRK6pQt4XhyHBRI3/PXX3+dxn6uuBgOKKQXmoBdFRx0OHbs2Hj99dfjiy++SMtfaaWVYs8994z27dsvWh4jfjz11FPx/vvvx/z589NloM+aUUD22Wef1JsN1o0h9l5++eV455130sGMrN+6664bO+64Yxo5pLg/m17uN998M4YPHx6TJ09eNG71lltuGWuttVZhrvx4TL17907LZHzsZfbBYkiPiM8HF36RVJK6PBDRbr/CL7XHqGnzYuDo6YXfJJWqJvWXi+M6NE8/l7a8ea3u+eUK/88lG0nj1VdfTQcJvvjiizF06NB0R8XTqFGjUtisat/ztGnT4u23344nnngiPvzwwxgyZEiMHDkyNt988xSGs/D88ccfxy233BKPPvpoerBMhF4CPffJkHmtWrVK8zJkHuvJGRFZt6+++iqFbw5sJEQzX4sWLdK89HJz0OPDDz8cw4YNS+H5888/T4+HDdi2bdsqt6MQ7tlWnFSG8bDpG18m4XnMHREzRhZ+kVSS1jo8ommHwi+1x5S5C2PEVIdDlUrd8nXrxGatG6afS1vevFblGE8Qff755+OKK66Iyy+/PPr37x8PPPBADB48+DsT4XdJTs/NSlLp7dSpUxx11FGx7bbbFq75PoIvIZl+6+uuuy5N//rXv+KMM85IVW8wXB4HNnIKccL4zjvvHH/+85/j1FNPTUH57rvvTsGaDwXZB4PbbrstPvjgg9hrr73i0ksvjV/96lepAs4pyV966aW0XEmSJNU+VQ7PM2fOTAGVUvaf/vSneOaZZ1LlueJE5bZNmzaFW+XXsmXL6NKlS5x44omx3377/WibBAG6WbNm0bp16zRRRWb4vKxCTUWaqjGV8u7du6dPEptsskkK5b/5zW9ixowZqZWDijUfDHg8tItw8OPPfvaz6NChQxo5hDMpEsSfffbZtFxJkiTVPlUOzwRI2h4InwxZx3jOtDFUnJa0r5fbEHwplROMf2isaMrrtF5wmvBevXqlET6oPn/55ZepqgzCMRVnlkOPczb+NNXtrbfeOgVv5qfPOlseAX711VdPB0VyQCTrQ88zj+mzzz77wVOPc79U3JknmwjwxX3ZkiRJqpmqHJ4JkoRQTsWd/f7fQJClZYNq8jbbbJNOCU7l+MEHH0zjTX/yySeLDhQkHDM/FemsB5tQTJ8zQZ956G2mbYM+lxVWWCGF6uLwTxWdME3lnRaOxZ09kZ5qAjyBPpvOO+88K9aSJEkloMrhmYrtAQcckCq6jF7BqBj0B1PdLZ44oC+r/i4NtGfQTnH88cen4fGOPfbY1KNMyL3rrrvirbfeSkGXdWA0EMJ+xSo2AZoKN0GY4E3YpkrMBwKq3sW4PZexPOZZXOWZIM6BiwT24okKtCRJkmq2JQrPe++9d0yaNCluv/32+Oc//5kOGrzjjjvizjvvXDQNGjQohdalharx9ttvn0b0oBK+4YYbpvDMyVsYsYP2C0Ir1WNCM1XlioGX3wnOzEOQBvNyecV5s9tny1uc7bbbLs4888y46aabFk19+vRJQ+dJkiSpZqtyeKaySgsCI24wPfLIIyksE6QJ0Uz8/7777luq4bkyBPt27dqlYE2AZqKy3Lx583RA4Lx58wpz/hvBmYpwdqKXrJWDKjTV5WJU2nk8LI+e6CxsV0TVmvWg9SObaBmpWMmWJElSzVPl8Eyo7Nu3bzphCcO4MXYygZnh3bLp1ltvjauuumrR2MnLCuGY3mWCMm0WhFhC8frrr58C8ZgxY9L12byMJ80wdrR6MIY0AXeDDTZIw9Ux4gbV5sxHH32U2kAY55kwvLjwnKFCnU2SJEkqDVUOz/T8EkIZ7o2D9Tp37pwO2Ks4bbbZZktUbaUaTIWX8MrJSbKKMaGXE5vQLkKIZdQLqt4MQ8foH/zOGMz9+vVLbRXrrbderLzyyino8n9aO7ieoehYf/qyCfqsI+GaYe6oKvN4qBZzghTGqmYdCNmPP/54CtNbbbXVf+0gSUmSJP13VTk8E0w5nXU2lvJPXVnNKsS0glDhZvQKAjNBlor2Y489Fp9++mkKtfRVM1/Wc83vjNm8xx57pDMSUvkmHFMtPvjgg1PVnMBNaOagQpbNcHVM2QGBVJ4ZZ5rAzglUmJc2lHHjxqW+asZ/liRJUu1U5dNzU3lmTGQOxqN1gRBNpbh4XGMmLqNtoqrhmtuOGDEinYjltddeS1VmhpcjLHMQIOMl02JBdZhK8htvvJFOykJbBffF2NO//OUv0xkGswoxoZhh7Vgnlv3KK6+k5VFFPvLII9PZDPlQwO2ZlxOzUAEnXHP2Qdo4dtxxx+jZs2eqqFdV3tM9/uQ8PbdU+jw9t6QSVh1Pz12nrOKwEj+Cg/A4LTen4CZg0vKw5pprfq8KTa8xJy0hXFcFq8NyqfxWtmqE3Oy+eJDMm42CwUSgJwBXfLDMQ/Cn9YLbFM9bsX+5snmz+/2xXufKUPHu3bt3CuMDBgxIrSQV12+pGNIj4vPBhV8klaQuD0S026/wS+0xatq8GDh6euE3SaWqSf3l4rgOzdPPpS1vXqvymhAoaatggQRkThhC/zAVXSrD2UQlmABaVVlQpWrNSUkqTlShuZ4Qy/+z+fhJ68ViPyWUX0ZQZp5sfm5fWRiubF6WuyTBWZIkSaWjymmQIHnYYYfFqaeeGqeddlpqkTjuuOPSSUqKJ8rdBE9JkiSpVCxReOaEHxyA90MT81C5lSRJkkpF7vDMkHGMOJF3Yli54nGSJUmSpJou9wGDAwcOTFNeDBN38cUXL/MTpVRHHjAoaanxgEFJJaxGHzDIQXocRFeVSZIkSSoluSvPo0ePjo8//rjw249jJIttt902/aztrDxLWmqsPEsqYdWx8lzlcZ5VdYZnSUuN4VlSCavRbRuSJElSbWd4liRJknIyPEuSJEk5GZ4lSZKknHKF59deey1GjBgRCxYsiPnz56f/T506Nb799tvCHJIkSVLpyxWe+/btGw8//HB888036UjE/v37x6hRo1KYliRJkmqLXOH5yy+/jIkTJ8a8efNSeL7tttvio48+SlVoSZIkqbbIFZ7btm0b7777blx22WVx++23x4wZM+KZZ56Jfv36xU033VTpdOedd6agLUmSJJWKXOF5zz33jA022CA+/PDDePbZZ2Pu3Lnx1ltvxaOPPhoPPfRQpdNTTz0Vc+bMKSxBkiRJqvlyhefOnTvHfvvtF127dk0hun79+rHaaqtFx44dY+ONN/7etMkmmyyaT5IkSSoVVT49N73PRxxxRJx66qmx6667RqNGjQrXaHE8PbekpcbTc0sqYSVxeu7WrVvHI488EnvttZfBWZIkSbVKlcMzCbxevXppnOfHHnssJfRTTjklTRdeeGG6bPLkyYW5JUmSpNJR5fDM2M4MU3fNNdekUTUobU+fPj1Nw4cPT5f16dPHcaAlSZJUcqocnjlRCidMefnll1MFescdd0wtHEz8n8u4jtYOR9uQJElSKVmi8HzvvffGOuusEyeffHKcdtpp0atXrzTxfy5be+2145577nGcZ0mSJJWUKofnhQsXxrhx46JTp05pOLqKOnTokIaqGzt2bJpXkiRJKhVLdMBg06ZN05B1U6ZMKVz6/3EZ1zVr1mzZDMcmSZIkLSNVDs8NGjRIJ00ZNmxYGgPvhRdeSAcHMvF/LnvjjTdi++23T/NKkiRJpaLK4ZmxnQ844IBo0aJFDB06NPr16xc33HBDmvj/66+/Hi1btkzzOA60JEmSSkmVw3PDhg1j9913j6OOOirWX3/9NGzdo48+mib+T88z1zEP80qSJEmlosrhGfQyd+nSJf7yl7+kk6IMGTIkTfz/0ksvjZ133tl+Z0mSJJWcJQrPIBwz1a9fP537m4n/Z5dLkiRJpWaJw3OGoFy3bt00GZolSZJUyv7j8CxJkiTVFoZnSZIkKSfDsyRJkpRTlcJzWVlZTJ48Oc4666x4+umnY9q0aYVrJEmSpNJX5crz/Pnz48UXX4wvvvgiFixYULhUkiRJKn1VCs+MplGvXr10dsGvvvoqVaElSZKk2qLKlWfGct58883jgw8+iOeffz5GjhwZY8aMiXHjxn1nGj9+fCxcuLBwK0mSJKnmW6IDBgnFL7zwQlx00UVx0kknxSWXXBJXXnll/O1vf1s0XXfddTFr1qzCLSRJkqSar8rhmT7nTz/9NFq2bBlt27aNb7/9NlWeP/zww+9Mo0ePtidakiRJJaVOGUNoVMGcOXNS1Xnu3LmFSyrXsGHD2GGHHdLP2m727NnRu3fvePPNN2PAgAHpVObL5GyMQ3pEfD648IukktTlgYh2+xV+qT1GTZsXA0dPL/wmqVQ1qb9cHNehefq5tOXNa1VeE8Lw7rvvHvvss0/6ud1226Ue6G7dusXee++dLmfabbfdDM6SJEkqKUsU42nH4KDAoUOHxmOPPRaPPPJITJkyJfVCT506NbV1eMCgJEmSSk2VwzM9ztOnT4+rrroqjj322DjmmGPiD3/4QwrM8+bNi+eeey4dQHj99dd7wKAkSZJKSpXD88yZM+Paa69NYfnoo4+O888//zvtGe3bt4+11lorXn/99RSmJUmSpFJR5fDMgYJDhgyJ9ddfP/bcc8/o2LFjaqbOGqpbt26dTqJCW4ejbUiSJKmUVDk808dMMF5zzTVjnXXW+d5BgXXr1k3TN998E1UcyEOSJEmq1qocnqkwL7/88mnIusqGq+PAwUmTJkXz5s1jueWqvHhJkiSp2qpyuuX03Jtsskk6LTcTBxCCKjNtGsOHD4833ngjNttssxSyJUmSpFJR5fC8wgorxM9//vOYMGFCOiV3nz59Ytq0aXHDDTfEL3/5yzQKB0H6Zz/7WZpXkiRJKhVLVHmmqnz88cenMwhycGCHDh1SmKYK3aVLlzSEHQcSMq8kSZJUKqocnuljbtasWTq74IEHHpgmqsycVZD/9+rVK51dcJmdglqSJElaRpb4iD5G1Gjbtm1stdVWseuuu8Yee+wRnTt3TqNwNGjQoDCXJEmSVDqWKDzT08zJUl599dW47rrr4qKLLkoTZxXkshkzZjhMnSRJkkpOlcPz/Pnz45133onf/e53cc4558TTTz+dTtfNxP/PPffcOOOMM9I8zCtJkiSViiqH51mzZsWtt94aEydOTL3NhOiTTjopTaeffnpq4eA65mFeSZIkqVRUOTxzYpRnn3022rdvHwcddFD07NkzBWYm/n/wwQfHuuuum+ap7CQqkiRJUk1V5fBMLzOn3l5vvfVijTXW+M6IGvx/9dVXT+F59uzZ9j1LkiSppOQKz4TgbGKUDYIzBwxOnjw5je2cXcf/uYwDBgnQ9erVKyxBkiRJqvlyhefx48fHRx99lCZOhrLvvvumUTWuueaauP/++9MpuZn4P2ccHDp0aBxwwAHRqFGjwhIkSZKkmq9OGSXjH8EwdARiUF2m6jxy5Mh0BsF27dqlk6aA03QTtBllY7vttktBulWrVum62owWlt69e8ebb74ZAwYMWHYnkBnSI+LzwYVfJJWkLg9EtNuv8EvtMWravBg4enrhN0mlqkn95eK4Ds3Tz6Utb17LtSbcmNNwMxGGORFKt27domvXrqmFY6WVVkoT/+f03Jx9kN5nWjwkSZKkUpGr8jx16tQqj5zBabxbt26dftZ2Vp4lLTVWniWVsBpbeabivMoqq3xvotrcpk2bSicq1AZnSZIklZIlTrf0N7/77rvx8MMPx1133RV33nnnd6ZBgwalIe0kSZKkUlHl8Dxv3rw00sall14af/zjH+Pqq6+O/v37f2e6/fbb47777jM8S5IkqaRUOTzTD3LvvffGW2+9FY0bN47NN988ttlmmzS6RjZtu+22scUWW6TROCRJkqRSUeXwzIGDTzzxRGy44YZx+umnx8UXXxx/+tOfUhW6eDrttNNixRVXLNxKkiRJqvmqHJ4ZnGPBggWx8cYbx9prr71sRo2QJEmSqoEqh+eGDRvGHnvskc40OHr06MKlkiRJUumrcnheYYUV4qijjkrtG4yqceWVV8att976vYMGPWBQkiRJpWaJ2jYWLlwYH374YTz11FMxePDgeOSRR9L06KOPLpqeeeaZmDNnTuFWkiRJUs1X5fBMNZmzrowdOzZatmwZa621VjqTIP8vnpo3b75EJ0mhn3rKlCnxwQcfxLBhw+Kll15KZ3rhLIfffvttYa5/I8R/9tln6fqXX345DaH3/vvvx4wZM9J1xVjuuHHjYvjw4WmZzMsHAOateJJFQj/zvvHGG/Hiiy+meUeNGhXTp3s2K0mSpNos1+m5i9HrvMsuu0SPHj3iiCOOiE033bRwzU9j8uTJKazedttt6SQshPT1118/LrjggujatWvquQZBmkB93XXXpeo3/ddct+WWW6ZRQDbZZJNo2rTponknTZq0aN5PPvkkzbvDDjvEySefHFtttVU0atQozYuPPvoonfhl4MCB6f6bNWsW3bt3j8MPPzx22mmnqFu3bmHOfDw9t6SlxtNzSyphNfb03BUtv/zysc4666RTdP/UqBhTJWYkj2OPPTZ23HHHwjXfRcW5X79+cccdd6QQfMUVV8QZZ5yRerH/8Ic/pApzVn2mYvyXv/wlnn322ejcuXP885//jPPOOy8F4+uvvz6ee+65NB+fI2bNmpWu57Lddtstbr755rTckSNHpkBPhVuSJEm1U5XDMxVbKsBUcgmfPzWqxZxgpVevXtGzZ89Uda4M4fmhhx6KTp06pdE/dt9999h7771TNXzMmDGp5eLzzz9PLRj8/uSTT6bh9fbff//Yddddo1u3bnHQQQel6wjaM2fOTGdPfO2112LEiBGx3nrrpQMjd95559hvv/1SQKcqngVtSZIk1T5VDs+Ur2ljeP3119NpuKnGDho0KLVDFE+cSGVJDhgknK+22mqp7aJ9+/bpvipiuePHj0/VYMLtRhttFCuvvHKsueaaqVJNDzatGYRnQjHzEfY5GyIT13Mf++67b2rB+PTTT+PLL79M4ZnHxWNkmbSktGjRItZYY40Unqm4v/fee6m6XcVuF0mSJJWAKodn+ofpe6Zi+9hjj8U111wTffv2TS0UDFmXTfQLL62h6gjEEydOTCGWynR2JkOCMEPp0VLy9ddfpwMPacMgHBPK27ZtuyiM16tXL4VzDmycNm1aCuO0i9A7zWUrrbTSdw54JJjT+0IIpw1kceGZy2kXqTgZtiVJkmq+Jao8U43dZpttUtWXCjFBs1WrVt8bbWNpHRRHKCdAs3zup379+oVryh9QeeAlIBOsafymmkw4ph2keD4Qths3bpzCLcvjgwGhu0GDBilsFyOgcxnLY56KI39kqIpzf4T74ol1kSRJUs1W5fBMCP3d734X559//g9OzJONdlGb0Fv9m9/8Jn2wyCZG6qC9RZIkSTVblcMzlV0qzYy08UNTxbaHnxIVYNozaIWghYJ2iwwVYcZupj+Z+ag2UzWmsjx//vzCXP/GvFSxWU8q0Pwk8FNdpnJdjPYPLmN5zLO4qjq90hy0eOaZZy6a+CCx/fbbF+aQJElSTVXldEv7AQcK3nDDDT84Mc/SalUgONMmQkDmwECCMbIwzCggBFzaSwjFq6++eloX+pUJwaBVgxE7CN+EawI/bRwcHEjbBSNrFLdmcPAht2WZtIUs7oMBJ41h5I8jjzxy0XTYYYdFx44dC3NIkiSpplqi8Hz33XenAwSLJw4a7NOnT1x22WVp4iQjSxKeqSZTSSaoEoqp9hJ0sz5nfhKaOfiPoMu4yxzkR+D96quv4u23305Bl8C86qqrpmCcHVTISVc4AyGBmT5kWixYPvOyPJbLaBxUnjlRCgcacp/MO3To0NTPzLKoaC+u8kwAz6rexROXS5IkqWarez4NylVAuKUiu8EGG6SDBZkYP3nDDTdM1V6CKWGRMxBuvfXWKUhWBUGZIMypsxkB44UXXkjVZUbQoNpLsGWZTATpe++9d1HLBeGYk5oQiI877rjYbLPNFh38x+m+Gc+ZQM/ZBBm+7qqrrkrtJXvuuWcalo6AS4jm9N0MSccZDHlMjBlNJZ2q84EHHpjWpSpoF2F8aEYpOeSQQ9K6L62DKb9jzB0RM0YWfpFUktY6PKJph8IvtceUuQtjxNTvttdJKj3L160Tm7VumH4ubXnzWpVPz531FBe3NGS4Uyq0L774Yqoen3POOWk0jKogsL7yyivptvyfkS0IySyHEMx4ywRjTtRCuOYMgVSfeaA8SIIt19NjzHjOPOhsCDqq44RxKtTMy4lQjj/++HTWQYIxeFyE5fvvvz+efvrp1L5B2KYizUlVODU5bSNVQWD39NySlgpPzy2phFXH03NXOTz/GPqNH3zwwdTaQesGld2qoGpMuCWE8/+KOBkKrROc5ISwPmrUqBg3blyqeDN2M4GZKjh9yfwOHmLxvIR/qszZshhar7iHmZYRxrFmyg4+bNeuXepnbtOmTWGu/AzPkpYaw7OkElYrwjMBleB8xx13xOOPP54OxKvtDM+SlhrDs6QSVh3Dc5XXhAruW2+9lU5jXTxRKaZ9gtNy0y9MS0RW+ZUkSZJKQZXDMz3IZ599dpx88snfmX71q1/FscceG3/+85/TAX6HHnpoOpBPkiRJKhVVDs+MXsHBeF26dEkH7WUTB9IxpvEll1wSf/vb32LvvfdOB/hJkiRJpaLK4ZlqMlVlqszHHHPMd6bDDz88DfvG0HWMq7y4E4lIkiRJNVGV0y19zB06dEgBuXjiDHqMXME4ybZrSJIkqRTlDs/0MT/zzDO5J040UtlQc5IkSVJNlTs8M/QcZw3cf//9Fzvtu+++qW2jW7du0atXr+AEI5IkSVKpyB2eu3fvHpdffnlcdtlli51+/etfxxZbbBH169dPJyFZJmMZS5IkSctI7vBMnzOV5YoTVWbO6MfZ+F599dV0emtOY33BBRdE06ZNC7eWJEmSar7c4ZnRMzhFdTa1atUqpk2blnqbBw0aFB9++GGsscYa0bNnz/j5z3+eWjwaNWpUuLUkSZJU8+UOz+BM3hwEyMGDzz33XAwcODBNnGGwffv2ccIJJ8RJJ52Uxnxu1qyZQ9VJkiSppOROtwsWLIgZM2bE6NGj46abboozzzwzBWeqzVdeeWVceOGFsfPOO0fz5s0Lt5AkSZJKS+7w/NZbb8Wll14aRxxxRDz66KOxzz77xP/93//Feeedl8Z55iBBSZIkqZTlDs9Dhw6Nu+++O8aOHZt6mSdMmJDGc+7bt29cddVVccUVV6TROLKpT58+MXPmzMKtJUmSpJovd3im33mFFVaIddddN1ZaaaWYNWtWjBw5MoYNG1bp9Pbbb8f8+fMLt5YkSZJqvtzhuVOnTnHkkUfGIYccEtttt11sueWWPzgxv60ckiRJKiV1yigpa6maPXt29O7dO958880YMGBANGnSZNmcQGZIj4jPBxd+kVSSujwQ0W6/wi+1x6hp82Lg6OmF3ySVqib1l4vjOjRPP5e2vHlt6a+JJEmSVCIMz5IkSVJOhmdJkiQpJ8OzJEmSlJPhWZIkScrJ8CxJkiTlZHiWJEmScjI8S5IkSTkZniVJkqScDM+SJElSToZnSZIkKSfDsyRJkpST4VmSJEnKyfAsSZIk5WR4liRJknIyPEuSJEk5GZ4lSZKknAzPkiRJUk6GZ0mSJCknw7MkSZKUk+FZkiRJysnwLEmSJOVkeJYkSZJyMjxLkiRJORmeJUmSpJwMz5IkSVJOhmdJkiQpJ8OzJEmSlJPhWZIkScrJ8CxJkiTlZHiWJEmScjI8S5IkSTkZniVJkqScDM+SJElSToZnSZIkKSfDsyRJkpST4VmSJEnKyfAsSZIk5WR4liRJknIyPEuSJEk5GZ4lSZKknAzPkiRJUk6GZ0mSJCknw7MkSZKUk+FZkiRJysnwLEmSJOVkeJYkSZJyMjxLkiRJORmeJUmSpJwMz5IkSVJOhmdJkiQpJ8OzJEmSlJPhWZIkScrJ8CxJkiTlZHiWJEmScjI8S5IkSTnV2PD82WefxbXXXhv7779/dO/efdG01157xbHHHhtvvvlmmu/bb7+Nr7/+Om666ab4xS9+ET179oyjjz46rrjiirSM+fPnp/nAvJMmTYobb7wxTjjhhLTso446Kq666qr45JNPoqysrDCnJEmSaqMaG55nzZoVo0aNinfeeSdWWWWV2GabbdK09dZbx6abbhpNmzZN83355ZcxaNCguO+++1JQXmuttaJhw4bxzDPPRN++fWPs2LFpPsycOTP69esXTz75ZMydOzfWWWedWGGFFWLw4MHx0EMPpfuTJElS7VWj2zbq1q0brVu3jsMOOyzOOOOMNJ1++umparzGGmukSvLo0aPjzjvvTPPvvffecdJJJ6X527VrFwMGDIj33nsvvvnmm5gzZ058+umn0b9//2jQoEEccMABcfLJJ8cRRxwRjRo1SoF6+PDhVp8lSZJqsRodngmyBOTZs2fH9OnTUzV6wYIFqbJMsCYUE4jfeOONOPTQQ2PnnXeODh06ROfOneO4445LLRojRoxI1WlaO4YNGxZffPFF7Lnnnmlab731UiWb1o2vvvoq3n///VSRliRJUu1Uo8PzwoUL4/PPP4/f//73qap85JFHxsUXXxwff/xxCrkTJ05MbRnLLbdcbL755tGiRYt0OyrJtG+0bds2hWXCM+F75MiRsdpqq6U2EObB8ssvH1tuuWX6nfkmTJiQLpckSVLtU2PD84orrhibbbZZ/PrXv46zzjorfvOb36SK8ttvvx1nn312qiJPmzYtZsyYEfXr149mzZqln6hTp07Uq1cvhWmq01Su582bF1OnTk3zEZiZBwRvWkO4jMo2y/whVL5pAWGZxVPxgYmSJEmqmWpseG7evHkKywcffHDst99+sc8++6Q+ZSrQ7777bgwdOjSNpkGYJQATlrNAnCFMU71mHto/CLhcxvwZbpNdls37Q95666244YYb4pxzzlk0nX/++TFkyJDCHJIkSaqpamx4bty4cRoNgx5mDv5j2mKLLVKAZqQNDhSkT5ngSzCmsszPYrR2EKqzcEx1ueJ89FUzH8GZeZnnh1Bl5n7HjRu3aCLEUwGXJElSzVaje54rIgATqlu1apXaMfidNgwqylOmTEnBGIRjAjGXMRQdEyNs0J5B6wa3zQI0PwnD3LZJkyZpeT9k++23T20jDIOXTdddd12qjEuSJKlmK6nwTNClL3n8+PGpQsxwddmQdbRTMKIGCMdjxoxJB/9xcODKK6+cqtWMrkGVmAMD6VsGoZnROrjNSiutlOb9IVSnGe0jC+XZ9GMVa0mSJFV/NTY8E345ayC9zfyfMwA+/vjjcdlll6UWCU6UsuGGG6ZRNbbddts0fvNTTz2VxnWm/7hPnz4pOG+88cYpEHPwIMPSMT8nReHEKh988EG89NJLcfPNN8eqq66a5s0TgumTrjhJkiSp5qux4Zkq8ssvvxzXX399XHrppSk033333Wl4umOOOSa1T9C+QV80p+OmssxZAjktN0Gaoek4jXfHjh1TywahmGHqfv7zn6ce6Pvvvz8tkzMOUk3mQER6qg3CkiRJtVeNDc+EYSrLBF9aKuhhpmd5jz32SGcYXH/99VMI5rLu3bvHIYcckg4q5ADAli1bxl577ZVOnEJFOUN7BaN3cIKU1VdfPbV7cD8HHXRQdOvWLdZcc83CnJIkSaqN6pSHSc83vZQxAkfv3r3jzTffTKcE58DDZVLBHtIj4vPBhV8klaQuD0S026/wS+0xatq8GDh6euE3SaWqSf3l4rgOzdPPpS1vXiupAwYlSZKkpcnwLEmSJOVkeJYkSZJyMjxLkiRJORmeJUmSpJwMz5IkSVJOhmdJkiQpJ8OzJEmSlJPhWZIkScrJ8CxJkiTlZHiWJEmScjI8S5IkSTkZniVJkqScDM+SJElSToZnSZIkKSfDsyRJkpST4VmSJEnKyfAsSZIk5WR4liRJknIyPEuSJEk5GZ4lSZKknAzPkiRJUk6GZ0mSJCknw7MkSZKUk+FZkiRJysnwLEmSJOVkeJYkSZJyMjxLkiRJORmeJUmSpJwMz5IkSVJOhmdJkiQpJ8OzJEmSlJPhWZIkScrJ8CxJkiTlZHiWJEmScjI8S5IkSTkZniVJkqScDM+SJElSToZnSZIkKSfDsyRJkpST4VmSJEnKyfAsSZIk5WR4liRJknIyPEuSJEk5GZ4lSZKknAzPkiRJUk6GZ0mSJCknw7MkSZKUk+FZkiRJysnwLEmSJOVkeJYkSZJyMjxLkiRJORmeJUmSpJwMz5IkSVJOhmdJkiQpJ8OzJEmSlJPhWZIkScrJ8CxJkiTlZHiWJEmScjI8S5IkSTkZniVJkqScDM+SJElSToZnSZIkKSfDsyRJkpST4VmSJEnKyfAsSZIk5WR4liRJknIyPEuSJEk5GZ4lSZKknAzPkiRJUk6GZ0mSJCknw7MkSZKUk+FZkiRJysnw/AOmT58eb7zxRtx+++1x3XXXRd++fePpp5+OiRMnxrfffluYS5IkSbWF4XkxZs+eHe+//37069cvbrjhhrjpppvi+uuvj1tuuSWeeeaZmDlzZpSVlRXmliRJUm1geF6Mjz/+OO6999646667omfPnvG3v/0tTjzxxJg2bVqcd9558emnn8a8efMKc0uSJKk2MDwvxttvvx0ffPBBHHDAAdGjR4/YdNNNY7/99otevXqlivPjjz8eEyZMKMwtSZKk2sDwXImFCxfGZ599FlOmTIltt9022rRpE40bN46WLVvGWmutFe3bt4/33nsvvv7668ItJEmSVBvUKbNx93vod77wwgvj2WefjUsuuSS22267aNCgQbqOivRVV10V48aNi/PPPz9dV4wDCQnfxZuV5V188cXptv37948mTZpEnTp1CtcuRc8dGDH+ocIvkkrSTvdGtNun8Evt8fG0eXHPJ9MLv0kqVU3qLxfHrN88/Vzasrz2zjvvxIABAxab1wzPlaDifNFFF8Vrr70Wf//732OTTTaJ5ZdfPl03YsSINPLGsGHD0gbeaaed0uUZWjmyqnVmzpw5acSO0aNHx7nnnhsNGzZcNuH57T9FTHql8IukktTpgojW2xZ+qT3Gz14Qz4+fXfhNUqlqVK9OdFu9STSqu/Rz09y5c1ORk86CO++8M5o2bRrLLff90G54rgTBl2D8yiuvpPDcqVOn74Tna6+9NoYPH57m2XHHHdPlGQ4wvPHGG+P5558vXBLfqUIvk9CsWid7jc2fPz/9odetW9fXmqSSwvscE+9z9erVS+91vs/pp8ZrbNddd01ZbqWVVkr704oMz5XgkwdtG08++WT07t07BWSqxXjrrbfSyBuTJ0+OP/zhD6knuhiXf/XVV2mM6AybmOozLR0rrLBC4VLpp8Nr7JtvvknfbKy33nrxs5/9bNFrVpJKAS2Rn3/+eZx00klx2mmnRZcuXaJ+/fqFa6WfBiOprbjiirHRRhul15dtGzkRculrvv/++9NoGwQR+l7YVFSUzz777Nhiiy3SHzAbtxi3ZSrerPw/64P2D11LA6+5WbNmxRFHHJFGhjnnnHPSQa6SVCoWLFiQ2h933333uOKKK9JIWNnxSNJPhbxGYKbjYHHfbBieF+PBBx9MLRgzZsyIs846K9Zcc83UzvHwww+nk6ZQ4evevXusssoqhVtI/z38GXPinkMPPTQ222yzNBa54VlSKSE8cw6Grl27ppZKzsFgeNZ/g0PVLUbHjh1jq622irFjx8agQYNSmB44cGC8/PLL0aFDh+jcuXO0atWqMLckSZJqA8PzYqy99trpUy1fgz/22GOpv5kRM2gev+CCC1Il2hYMVSd8vcRBNJUd3CBJpSB7n6tsBARpWbFt4wdwRC+n42bi/4QSDvjjZCl8VbS4XhhpWePPmIMcaClabbXVYq+99lo0QowklQKO7Zg4cWJq2Tj44IPT8R0EaWlZMzxLJYIdy5gxY9IoGyuvvLKVGUklJSsS0Pe86qqrRrNmzSxi6b/C8CxJkiTlZGlKkiRJysnwLEmSJOVkeJYkSZJysudZkiSpgnHjxqUTozHi1imnnJIOxvYARcHwLP0X8GfH6bTff//9+OSTT2Ly5MlpOMRGjRqlo8jXX3/9NJZ4Ntzc7Nmz02lpP/zww5g0aVLMnTs3Xde0adNYffXVY5NNNkn/z0bY+Oabb+KLL76IESNGxFdffZVuz1CLnK+f5XOinzZt2nxnOLtPP/00HcX+2WefxfTp09OyGJqR+ddZZ51Ya621HBZKUsJ7ECcN++ijj6JFixZp2Lj11luvcG2kM/Ly/vbee++l8yU0adKkcE3N8c4776TTgH/55ZfpjMM8BkcxEgzP0jLGefM57fsrr7wSTzzxRNr58DunnmX8cM5cuc0228Suu+6aQjFv1q+99lo8+eSTMWzYsDQvwzVxkh7CMDutww8/PNZdd90Ubrl+5MiR8dRTT8Xrr7++KJgTlBnaqW3btmnZ3AdjQnO/BPhHH3003njjjfj8889T2GZ+dhaEZ862uc8++6STBHkSFklff/11nH/++XHffffFKqusEscee2z84he/WPQB+4MPPohbb701brnllhg6dGh6H/lPZFFlWVZ+Dc9aHF8F0jJGVZg35d/97nfx4osvxrbbbhuXX3559OvXL84999wUWtnhcCIAgi8Vnuuvvz59fUhl5y9/+Uualzf1Qw45JIXhOXPmpJ0LE5UeTpZy6aWXRuPGjePEE0+Mf/7zn3H11VfHSSedlL56fOmll9LOjfmnTp2alsU8VIsI4ldddVXceOONccYZZ6QxownV7777bgrhkpTh/Yr3Ej6sE6gZb35xuI4P/nw4nzlzZvr2jfcuPsAX432G90nm5f2P+ZmXn1zH/7Pr+H+2HAoT2X0UX15x+cxXvFwm7o/5rCcqDyvP0jL25ptvpgBMNfmPf/xj7LHHHtG8efNU0WXHMHbs2BR0n3/++Tj00EPT9WeddVa0b98+Tj311NQ+wbzZDoCdBe0eVK3ZeRGC77333thpp53i17/+daoKZWfEzHY87DRo82BnQUX7nHPOiR49eiw6axfzZ+uT7YCyqriVZ0lZ5ZlvzqjM8q3WgQcemCrQVGgrqzzTFsa3bffff39MmDAhzce3Wvvuu2/svvvuhSVH9O3bNx5//PHYbrvtUvsZ37jxfrXlllum5dx8882pcMCHfUI771FbbLFFqnzzjRzvaQ888EB6n+MbNt7XeD/MqsavvvpqPPbYY6nthLY23ts22GCD9B642267pW/0YOVZi+OrQFqGqIhwEApv3uwYaMugFYJqMG/6VIrpL2ZHQKBmJ8DnWyZ2FPQ7U+lhXm7DDot+w+xAlqzHkOUQvOmbZqfDzoHb0cPM/dGuwW3ZcTz77LMpEG+//fax2WabpcuL14fe6Hbt2qX7ccchqRgf3Am1fCvGh/bx48enD90VEUAJtEwUAI488sjo2rVrahPr379/amPj/RF8G0bL2cCBA9OyunfvnoItrWlcRzAn/PLhf7/99kttaAR0vqG788470zd2BHlux3EftKTRypah6t2yZcsUlI877rg44IADUoHgwQcfjIceeqgwl7R47gmlZYgKCRUXdgBUeKnkVgykhFwOAqRdgl5kQuzmm2+eqii0a/zrX/9KO4hnnnkmRo0alZaZYf6JEyem5RKEWVZl6EskMHNgIDsi7ov7JGhXhnVkPTzSXFIx3hM6duwYW2+9dfow/txzz6X3oIr4xo32L95HevXqlcIzLWKdOnVK74mDBw9OrRMZvlljomJMEN57771jo402SoUEAjXhl5Y3KtBMvIdllWQKE1SbuY/sfZTCQob3umy5rMNhhx2WgjwFCooJLN8v5fVDDM/SMkTQzUayaN26daoIV4YKMV8dUg1h58TXmuxk+Ir09ttvXzRxsA5V7KzXkGXTykHFmK8YfyzsUunhtlSVF7cukvRD+DaLD/h8kzZo0KD0ob5i9ZlKMgUAvuEiqNJ+Qeju0qVLrLHGGqn9gve7DN+A8Q0cIXfttddOBYGsnYJgu8suu8SOO+6YgjAVaarfvAdS1abizLEgtGJsuOGG6TZ845fhNoRv3i95T6VVLmtjY9QhDro2POuHGJ6lZYgwy8QbM1WVxb1BczlTNj87HPoL6R8888wz0+9UWK655pr485//nHZMBOHi5S9u2ZVhp1OV+SWpGKGVijLV5bfffju1ThSjGs03YbSSFSN4Ux2mt7m44suHf0IxlepivL/xQZ/iQxamKUYQtlkWhYDib9xYDmjVAMunEk3x4fTTT49jjjkmVa4Zx5k2OYoPtMfxnigtjuFZWoZ4g+dNnzdmKiFUYipDNZidDzsHdgbsQJio1tCnx4ExHFTIAYG0YNxxxx1pWfQn04NIRYWvIH9sB8C8HFDIjmtx6yJJPyarFNMywShCHBD9nyAQc+xFZXjPq9juRqimFa2yy5EVFAjHvHdy4CKtc5dcckk6AJERhjg4m3kcdUM/xvAsLUOEVQ6+42vIIUOGpINlqEAXo7WD/jxOVsKR4twmqygToKmk8BUmB/1xcCHhmoNxCMr0BFLZ4fdHHnnkO1+DFmMHQpWH5dA3SFWII8s52KcyrCP9iO5QJFWG4Mr7CSdE4YM/4bn4/YTreM/hPa8Y81LppfpMKM7Cbvael/1erLLLsLjLM7yPUSigrYRCxEEHHZTaRvgmjzYP3l+zkC39EMOztAyxg+HrTY4cZydCwGXMZQ6Y4RSwY8aMSUd8c+Q5PXg9e/ZMFWGC9gsvvJC+bmRnwwGH9OpxBDlfR9LDx7LpHSQMs6OiGs3Y0NlZBqlEs/ynn346HWxIbx9fc3KkOoGbA2UYQoqvXAnfrA/VcYbM48h2bktFRpIqQzsFPcq8n/D+Nnz48MI1kY7Z4HpGxWDiAzshlvc63md22GGHxVaaf0oEY0J09l7G+ybvqbS+8Z4o5WF4lpYxKs8MI8fR6exc7r777hSYCboM48RwT1R5u3Xrllo0+D8H09xzzz3piHTmI3RzYA7jn1KZZj52TBxoyM6LA2bYOTHUE7dj+CVuw8R9cDt2GAR0xlml54+KN2Orchvuh+GdsvkJ77SSWJGRtDi0TPCBnIP5eC/ig3uG9zu+GeODPB/seY/hvY7wzHvY/vvvn34uTawfbXPrr79+KibwHpq9L3ISKN7jpDzqns9RSJKWGb6apDJMpYVgzGgZjJpBgOYNnMr0UUcdlYZPoueZyghVHCrC9OkRZjmwhRMOcOIUDtKhkp0dJMPOgaPMOdiGYeioMhOeCcBUj1k+p9reeOON020I3VSr6X0mcDM/OxXug8o2X6dyAoPOnTun+X/sq1FJpY/WL967aA0jFDNleC/hPYtWMNrKjj/++NQWwXsJeD/iPY/3O1rPaPXgAz/vjaCowHsVo3ew3Oy9jW/ZeN9766230tB13Ba0g7As7pPRNRj5I8OyeF/j/nnP5f2OMfRp36AQwbrwTRvvcVzHgdf0PjMaB9/wcXuWT7j3/U8ZzzAo/ZfwtSFDIlHx5c2ZnmWCMl9d0tfMcHNUSviKkZ0G7Ru8sWc90sXzUuUpxjzs1Fg+Ozl+502fnRO3IZSzIyg+uIblcz/cLvtKM5uf5bM+7jgkgfcrqre8V/AelI1qAd5vCJ60fvE+xfEZvJfw/pUN18nteP+h2sz7UfF7GBVg5uNylpu9T3Eb3qO4ngo370lgXVgm72Esh4MXM8zLexrBmCAPiha8NzI/t6XXmfvivZL74MBrLuN9mcfB4+EDQfH7pWo3w7MkSZKUkx+jJEmSpJwMz5IkSVJOhmdJkiQpJ8OzJEmSlJPhWZIkScrJ8CxJkiTlZHiWJEmScjI8S5K+hxNEcIIJThzBiSQkSf9meJYkfc9zzz0Xu+66azod/OTJkwuXSpI8w6Ak1SJUlAnDTz/9dLz33nsxYcKEdFnTpk2jbdu2sd1228Umm2wSr776ahx33HFx2WWXxd57751OTyxJsvIsSbXGnDlzYsSIEXHttdfGvffeG2PHjo169epFs2bNokGDBilIP/zww/HWW28VbiFJqsjKsyTVEh999FHcc889cd1118X2228f++yzT3Tq1CmFZ3qbCdYvvPBCuo5QXbHyPGvWrBg3blxMnTo1BfE6derECiusEG3atIl27dpF/fr10/0sWLAgZsyYEWPGjInp06en3+vWrZvmXXvttdP9geUQ4Jl34cKF6T6bN28eq6++evq53HLWdyRVP4ZnSaoFeKu/9dZbU9WZAwDvuOOOFFIJtcVmz56dLnv88ce/F57ff//9FLxfeeWVVKUm3K611lrRpUuXOOGEE2KllVZKAXjKlCnx2muvRZ8+feKDDz5IobtRo0ax3nrrxe9+97vYYostUqsIfdXXX399jBo1KoXxJk2axFZbbRU/+9nPYocddkjVcEmqbvxYL0m1AKGYkDpt2rTo0aNHtGjR4nvBGYTc5ZdfvvDbdzE/AfmMM86Im266Kf7+97+nHmlaQG6//fb4/PPP03wEZkI34fess85KoZ15Dz300FhxxRVT6KbCPWDAgFSNZt7+/funnz179kzrQFVbkqojw7Mk1QIcJMhEMF533XUXtVhURGhdXHBdddVV46CDDoqdd945VYipDnfr1i39/6WXXoqvvvoqzTdz5sz49NNPY4MNNkjXbbnllqkVhHm5b8Ix60KQZ56tt946zcPydtppp+jQoUOqYEtSdWR4lqRagLaIefPmpeox7RFL0k9M68c333wTTz75ZKom9+3bNx577LFUcabaTO8yqC63b98+9VDT/kGV+bPPPktVZvqdCe70Sbds2TLefffdeOihh+LFF19MrSANGzZMl9vvLKm68t1JkmoBWigIrRyYRwtHVQ93IXyPHDkytWdw0CGjchCcCcaffPJJqiTTxwx6qalQ0+v8/PPPx/3335+mRx99NIVoDk7s2LFjdO7cOc1DwB40aFCahyH0COOspyRVR3XPL1f4vySpRNEG8frrr6exnTnIb/PNN6/0gLwsVBOUCbPdu3dPB/rRYjF48OD45z//Gfvtt1/qXz7kkENSzzNYLr3UtGUwZvRmm22WWjCoME+aNCmF6LvuuiuNJU24Zh0Y6aNr166pGj1x4sR44oknYsiQIalCvdFGGy2291qS/pusPEtSLdC4ceNFwZazBjJMXGXVXdoyaO+o6Msvv4wvvvgiDTV35JFHpv5klkeLBr3OFU/hTVhfbbXVYs8990wHDf7hD39Ifc2EY5YFwvsaa6yRwvg555yTDkSkB/qRRx5JlW5Jqo4Mz5JUC9BDTJV4r732Sq0TF1xwQdx3331p+Lnx48en1gvaJ/7617+mCnBFHORHPzJVZHqZuQ39yk899VQMHTp0UeAmkH/88cepH/qdd95JIZ1eaG5HyKaqTPvI8OHD0ygdLIvrOciQ67/++usU8B1tQ1J15TjPklRLUFWmveLuu+9OB/gxXB0tEwRjKsVczy5hjz32SGG4eJxnrudAwWuuuSZVi2nHoK2Ck6AQvIcNGxb9+vWL3XffPQVjxpOmKp2N6kEoJkD36tUrjQv9xhtvpB5oDmBkHu6X8Mz9MCoH1Wiq5ZJU3djzLEm1RDbKxcYbb5z+T6ClFYN+Yw7ia926dey2226pX5mD/7hul112SWG5VatWqSJMYOaAPm5D2wVtFlS0Cb+77rprGs6OgwCpTDN6Bj+5H84YyLI4qyGjadBDTfsGVXCWRwjnRCwEa+YhOFt9llQdWXmWJEmScrLnWZIkScrJ8CxJkiTlZHiWJEmScjI8S5IkSTkZniVJkqScDM+SJElSToZnSZIkKSfDsyRJkpST4VmSJEnKyfAsSZIk5RLx/wCCXzsLULP7XQAAAABJRU5ErkJggg==;" vertex="1" parent="1">
          <mxGeometry x="170" y="560" width="244.55" height="190" as="geometry" />
        </mxCell>
        <mxCell id="fSu_uZtvP68bl21nm0Wx-5" value="" style="shape=image;imageAspect=0;aspect=fixed;verticalLabelPosition=bottom;verticalAlign=top;image=data:image/png,iVBORw0KGgoAAAANSUhEUgAAArsAAAIwCAYAAACGFKOZAAAAAXNSR0IArs4c6QAAAARnQU1BAACxjwv8YQUAAAAJcEhZcwAADsMAAA7DAcdvqGQAAGQVSURBVHhe7d0HnBT1/f/xD4II2FDsqKggYEGxRBQLIhIb2LCgwd41/KMhRmNP1Kixa+y9YAELEqNiA9SI2MCKoiKCCoIoghQBvf+9vr8dPM8DYeGOu+H1fDzmcXu7s7Ozs7M77/nOZ75Tq6RUSJIkSTm0ROGvJEmSlDuGXUmSJOWWYVeSJEm5ZdiVJElSbhl2JUmSlFuGXUmSJOWWYVeSJEm5ZdiVJElSbnlRCUm/Mn78+HjllVdi5MiRsfPOO0fTpk2jbt26hUdrtunTp8cHH3wQQ4YMiTFjxsQPP/wQrVu3ji222CLWXnvtwliqLE8//XR8+OGHseWWW8bvfve7qFOnTuGR/JoxY0aMGjUqevbsmdYzhtVXX73waNUaPnx4vPTSS+n2nnvuGSuttFK6LeWZYVdayCZPnhyff/552qAvscQSsfHGG8daa60VSy65ZGGM//Pll1/Gxx9/HD/99FPa6C+99NKFRxa9999/P/7973/HCy+8EBdccEF06NAhll122cKjNdvbb78djzzySDz77LMxa9asNLDR33vvvWOTTTYpjPVLBOIBAwbEcsstF+uuu26sttpqhUc0v04//fR4/PHH45hjjonjjjsu6tWrV3hk4eH79+mnn8aECRMK9/wa382NNtoo7chVtu+//z5efvnl6Ny5c3rfRx11VGy22WaFRxcMQfqrr76KsWPHxsSJE9POHFiuyy+/fKyyyirRuHHjtFNRq1at+O9//xuXXnppGufGG2+Mli1bpttSnlnGIC1kbGjvu+++2GeffWK//faL3r17V7jRpeX0b3/7W/z5z39OLYyqGk899VTa4LOfT+ggfHXq1CnWXHPNwhi/Rog4+uijU/B//fXXC/eqGAQwdhbYeSJ8VQZaLs8666zYf//902fMZ1d+IGg/99xzhWfUPKy/BF1CfZ8+feKiiy6Kk08+OY4//vg08Lvyz3/+Mx588MF0hIYdNmlxZdiVKtHMmTNT6+jgwYML92hRozW9du3aseuuu0a3bt1S0G3VqlU0bNiwMIYq04knnhj33ntvHHDAAZVaGkPLLaH67LPPjvPPP/9Xw3nnnRfbbLNNYeyahxZcjsAQagm6I0aMiO233z5OOeWUNHTs2DEdZaL1lh06dsKlxZVhV6oktFrRWkg5A2H3u+++Kzyi30JpBy1RlVFlNWnSpDR9Whjr16+fDvdSYkI4UuWjFIRD65TtVFbLLpg2nzE7M3vttdevBkpX1ltvvcLYNQulN7ToEtipP99jjz1SgP/Tn/6UdiIOPPDA1Lr797//Pc4999xYZ511clNzLxXDml1pIRs2bFgqY6C15aCDDoq33nor1ezS2sLJXhnqRi+//PKYNm1a9OrVK5o1a5YCHi2PHHrcaaedUg3piiuuWHjG/3nooYfi66+/TnW+nOgCWnhee+21mDJlSiqd4DbToWWHDT51w1tttVUKAITvN954I9UME/Ko2eMELWpRM1nN7sCBA9MGlUPOn332WTpxjec0adIkdthhh1h55ZV/VYtMyQYb4HfffTfGjRuXguUKK6wQG264YWpBXXXVVQtjRpom88oy69q16+xa52+//Ta1tB588MFp/ueElvNvvvkmBg0alA7VEmSZH8IUJ0ARZph37uc9cdiaVkV2PFi2jANeh/mbE2oiGZfnnHDCCSlA/fjjj/HFF1+ksgheo3nz5ulz4XX4HJh/akLbtm2bWpI5Ie6dd95JJSt8DtSKbrfddulEpbJB+5NPPknLj2VD+QTrxDLLLJPG53PkdcqjlY/l+N5776V5YBmwo8Vn9OKLL6Z1jPdXtiWTwMQ68Oabb6bXZJ6p62R+GJea0rIBiUPmrFNDhw5N75tpMt+89xYtWqTPltrQ39KvX7/ZJ6ixTvKaTJf55/OntZ1lyDisS8wDnyPLinVnXnZKHnjggbj55pvTekRJw2/Vw7MZZBny3pgXPm+WB58TrcObbrppeo/lW/9Zt6nHZRly4hfLnuXK6/G8rbfeOi0T7itbs8vvAO+b9Z7n8x3ffPPN0+fLd+W3sPyfeOKJ+Otf/xrt2rVLpRrt27dP60lZvC7rEMuSdZfPqqKaXd4/3wl+F1jveB8sD+aR7zi/NXwG7KiUxefFZ8X7yHbmGzRokN4z635WA89yYl1j+bKceM8sW5bTGmuskabP+rrUUkul8aWFrXbphuy8wm1JCwEbCkLN//73v7RhY6MxevTotOEhfBB8+KFnA0FI435qC9ngTZ06NV599dUUjNm4EIDLh92LL744nn/++bRByU5yIdDcddddKUiwkeXkK6bDxosNDK9PTwNsyDnRioH7s5BICyevl50sRKjl+cwjGyOCCAPPIbxzklcWKgmjvB82mISL/v37R9++fdNfns+GlhCWHUYlKBNgeA6BmB2DW2+9NQUZXoN5YoPIxpPAX34DniFsMs3//Oc/cf/996f5JSQyMH8EJYIDAYXAyHw//PDDaRmwnBkIngS9bbfdNrV+zQnBh/DEPLJhJnDyufHeLrvssrRcGId6XgbCD/cRmjjbnZOH+GwoaeEzYV4JCQQJpln2PRJiCNDZONmOA/PJusTnTmjJQh9Bnte6/fbb45lnnknrHp8pgYjx77nnnvTeWQ5t2rRJzyF8MO9PPvlkPProoymIZ8uO+wkmzDfPIYCw/OhNgGkxb7wey5F5+uijj9I8sJ7w2f4WPms+L9ZTAh6BimXCTgghlR1D1mdq2nkd5o31h2XF+jan9aEslhfTJJATnvnOsb6UHVgGrIMMfJas86yLfDd4PsuC9Zd1iccIccwb8wvWdz5fdgjpZYFQzfPKLhcCHJ8v3xW+g7xvpsH3hPfF+s70+UsoZXnzPWSe5ob5YgeZ5dO9e/cUdBs1alR49GesI8w33/0sSDJfBG+w08bnzPLg873uuuvSusvy5jX4y3zyXeR3qOzOLTuZrNN8p/i8eN/ZwPrOa2c7k6yL/Cbx+bJe8/0uOy7vm3msjJMVJRh2pYWsbNilxZCNEK0lbGQIbwSVrFWnfNglVFB7xwZkxx13TC095cMu4YQNDa26WdhlWmzcCUdsVNkoEeDWX3/9tGEl1LDBZ4PDhpuNEBtIWkbZ+NDSQstVdpJWFnaZv6x7LlqpaBkkbHA/YYTQx8aZ8Mr7YKNHizDzQWsYh4oJh9nrELpoNSTosNFkA8t8s0FlvtnY8b6Ytw022CC1Ds3p8CvhgJZaTvIjbLEjQZ0iLdRMizP+Wc5sRHlfLHd2Hpg3NsSMe8QRR6Q6R+aVx+ekorBLQGDZEDDZeDM/7DTstttuabkThAi+HG4mQDCPvHeWI+MRqgijzFvZHgE42YjPl5ZS1gHGJ6gQpFh+LH8eY7kQuPjsCSmEfl7397///exlztED1j1a5HhOFnaZV8LlHXfckcbbfffd0zJn2bH+8p74y/JnXcruu/DCC1PgpGWS12G5Zestz52Xng1YB1lefM6sh3xGrPOsB3xv+OwIaLwHWn5573zOfAaEada335KFXd4n3wO+A6zTZQemxzrIOse6SyDjPRK8WO6sF7R6skNFkOUzYfllO3e8Z4IuR3D4nFkWLBeexzrHa/OXnRM+7yzsspPF8iRkUjfOMmDnhGkQwHntOa3zGb4vBEfew6mnnpq+u78VkDMVhV3WAb6Ld999d/pceA9815l/7qe7ONY7vj9ZqOb7fMMNN6RAzNGLfffdN31m2Q4B3zFa48EOEjtKjEvJxS677JLeNztI2WfAsuZzlypF6Y+lpIWoNEyVnHXWWSWlP+IlpRu3kqFDh5aceeaZJaUbjvS3NCCl8UoDbUnpRqKkNLCWlG6A0n3fffddyUMPPZSee8EFF5R8/PHH6f6yDjnkkJLSAFRy2223Fe75v2mVbkBKSsNYyXHHHZemV7ohLJk8eXJJ6Qa8ZPXVVy8pDTwlBx54YElpCCwpDbclpRvdktINecl+++1Xsvnmm5dcdtllhamVlJRulEpOOOGEktKgUVIa7EpKg3tJaWBI0ywNJiWl4SpN85hjjikpDb7pOaVhrqQ03JaUbuBKrr766pLSjX16DYbSjXvJv/71r5LS8F5SugMwexmUhuP0fko37iWlgaukNNSkeZs2bVoaSjf+abyKlIbFkoMOOqikNHyU3H777SWlgSHNH8uwNOyUlAalktIQUHLVVVeVlAbTktJAU1IaLkv22muv9H65n/8ZeHxuxo4dW1IaStM8lobKdF9p2CkpDQ0lpWGqpDQAlhx99NHpfTIPvIfSjXtaFiz30hBU0r9//3Q/j5cG4JLSoFNSGiZLrr322jS9TGmoKpkwYcLsz4jlwLK98cYb0/pSusOUXgeMc99995WUBpb0GqXha/ZrlIa3kvPPP7+kNICm93vNNdek54B1jPfCUBqc0jLjtXhe6U5MyVFHHVVSGmpKSgNVeu2333675Pjjjy8pDb4lpWE83cd88Rxej/9ZHvPitNNOS++b5c80UBqm0npYusORPtPXXntt9vtgXeYxPsvScJXG/y1870p3fkpKQ1dJaRivcGB5ZZ8lnz+vxbJnWXCbeePvhx9+WHLYYYeVlAbd9J0rDYbpOaXhtOSkk04qKQ1sJeecc07JBx98kMbPlmO2/rPe8T3s169fWs9Lw3TJJZdckr4DPM5QujOavr8MfNd+a33s2bNn+v7xfSrdASrcO2/4/rdr1y4NpTtK6T5ej/fLPGXrAgO3WVcZl/WVdS3D58d3jN8bfht4frbMeL98fpnSnaT0PeE3hcey6TNO9v9vvWdpQXhGhlTJaAnLamJplaWFh1ahylC6EU+tdLRA0kpCawwtc9lhd1qfaA2mVo7WJsajZZFWGA4nlkcZAC1+tKjRosU0aamiVY/WWQ7X0nJZupFLt2mx433S0gTqPBloVeZ1WBbZ4eWyaN2hVYyWI+aNlh6GubVW0eLEYVBeixY3WomYP1poeS3mkefTakZLHvNAK2FWRsJr8j8D739B8J5p1WL5Mw+8B1q4ssP6tJRxm/t5nNZDWq5ZD2gBpEUvw3JmuWfLIXuM90c9LS21pQEhtSxTbkDZAePQYsZ8ZK/B507fwXxOpb/1aRoZWppLg0ZqCc4e53OihY/3QHkBt2kFpO6a5UNrHePQ0slzmTfWIV6PZf5brZHzgmmx/pZdVswP6yzvl2U1r98d5pllwElbtH6WH0p3smbXPzMu74fPhVZw3hfvl9fks2DZs86wPLLPg9sse9ZpTghjnplfnstfPkdus76VxXeQFn7mjccZqG3lu8jnytGC38Jnw3eI73f56ReD98/3gPfC+2dZZNPls2W9Kg2xqfU7w/eHZUGLN+shz2HgvTNffH4ZpsW6w9GO0gCdli3vm3EYl9sL+h2U5sa1S6pkbBQoR+DwJMGLQ59sHCoDGw82pGy4MoQQNqzcx0ab2xk2Omzc2NBMmjSpcO/PmB6HstmAZcGT6RGQCF5suDgky4aXEMY0OFRJDSMVUtnAWeGcWEdAJXhOnTo1BYkMG0MOYxIQ5hWHphk4rM2hVZYzmE/eK8uc+WZjzGtWJpYph3yzZQQ24oQnljGhiv8zLG8OHzM+y44gkGF5UuJAOQhn0p9zzjnpL/WkhCuWHWGTnRfePzspvAafE59lhvuymm9ul8VnxcCh80suueQXn9WVV16ZDlsTKllufKYsX0oKmGfqsTnBKSudoIyCeVoY+NxYf8sHJdY3/rKsKP2YFyxbgionbHLyY/mBMhZ2ijKMT/kDy5m6eLosY7nTVy1lDARt1qUMy53lz84fYZCgNy8IxSzPLEyC5cp7ZpnznSq/c1Ie88o6VPY7tKBYttQAU9rCe2a9Y32gb2nKSwiqhPEMO/B899jhpG6d9YhlR3kTO0hl8V1kXEqImB7rGGUY1CpX1Ae5tLAZdqUqQBDKzrzPLpdKWJlfbATntiEk1BAYy7aScJsQkbVkZqEwkwWhsoErw2MEhrIbZrCx5XV4D4QP/hIEaOkhrGU1xGUHghPvn9DEPJR9H0yPYDg/rYMEA1q4Kpo/3jMhj+kxfwsrjM0Jy7VsQAPzxPtkXgihZZc775fn8Jdlx7JneTCfnHxIfSNhgBpS6qMJBZwwlQUD3jvLOntvvAbLr/xrZK1t5cMuoYVQRWAr/zkR+Pgs+Zxoneb5hDNqort06ZJei5pP5u/OO+9MdZ6E83lpkfwt2bIqO7/Z++AxPu+K1tM54fMnXHLyYfmBdZGdIbA8+U5y0hc7agR6dkpZ7uwQZCf7ZZ8TCId8dix35m1esdPDZ18W88l7JrwyL7+F5UGLK59T2XkqFjtP7KTyefL+qXfnZEreP+sE4ZX1jOWfoTWaowkcWWHdZGeWdYGBnSCCbYYjBYzLDi3TpC6ddTwbl0aA+flcpfll2JWqABtVTt7hEC0blay3gPLYaGYbTjZg5TdibGyyw6hzwvMJCOXN6f5MRRtM7mODXtFj3M/0svnNAiehKLt6U0UDrWW0MJcNqEyHDX42rXmRvR+WSfn54//sfsYrH4YXtrLLoSLzstxZnrR801sBJzcSIjgE/49//CMtNy7GQABl/Ow5vGb2uhV9TqwrDOXv5zmEPU6mK//5lB24CiCtn4RodtholeMkNbq6oiWZkga6r6KllwC8MFoambe5La/KQOs1J48xsN4Q6s8888z0XjkBjaDGTlXZ7142n3P6fswJz5mX9WFu2CHg8+MIEa3LCxoU+RwJ+HyW7MTS8s0V6Hj/rAd8p3n/ZeeN0P6HP/whtejSBRonnfG+6E2ELhVpIc6WDfNKqcfVV18dp512WjrKxWO8Jq/BCbm0nEuVZd63LJIWCDV5hx9+eNqY0GsBZzOXR6jIWpuokSvbksJGg9ZRWpSqCq1M1BiXnQ+w0acljxYqNry0NHE4l9YpbtOaRh1tRQNne9MKuqCBhmlQ68eGmg1nWcwf99MaxUaZVt7qjsCSHQLmEDuH0Qmb1PvSIwPLtGzLLWjdI4QQMgk+ZQ/xswwIcQzlwxCHzfmcWIYVfUbZQAtoVn7B58Xr06JHd17/+te/Uo8O9CVN3TYtgDX1kDTfNVqn+Y5Sy8uOBZ8BPRKwHGi9LbtskR2JoNW3oh2uysR8UsfM58rvCOv6guA90MMD3+G//OUvs/sCzt4/77OiHRl2InkOO030ikIZA1dr4/tG14P8dmTrHusO49JDCzsStOqeccYZaT285ZZbLGdQpTLsSlWEH3VqKClnYONCsClbAwc2CAQYAga1cLTaZNjYcIibDUhV4TApXUXxN9vY0QJDyyPhisPctPgR0KlLZWNGqzVdZLHx5/2UHQhMhPWFEQx4LV6bw6WUTWTLMgt5lADwWrRMEg5qApYx80+4IIiyM5EFDQ6zU1NZFi3knGRGoKB7J+oqM7x3upyjVKH88uYkKXYUOMrAIegsyGYDOy1Mk3kBOxMc6mY6PMZz2cmhVplD08wjO0blQ3VNwnskvPHeWJ95TywL1i++i+W/q3yXqUPlu8xh/4rCWmUFYHZCCOOESk56Zee57G9Fhs+DowW0WM8tTPI5s47RWs17Zxlk6x0nnrKOlJ8+OwhMn2WWlfGw48W8caIbOwcMLAP+sn6UHZd1h+8wO158X7PfF6kyGHalKsKGhB95+rakdZfQWv7EKcahxYjWFDYwHBKkxpf6Qa6qRn+j5U/+qEwEAGpwaYVhg05rDfV29DnLho6+Mgk7BCA2WrREEpwee+yxdEiU+eVSycw/hyq58AG1fQSnBcVhfnYc2Ojedtttafq0zhH6aCmi1pKTnagXZONd3bEMCU/s7LDDwPuhXpfaSQ4Jswx5r2WxHrEc6EOXk6hYR1hnWA6EIPrZZeeE0FYWrcUEXoIQh5b5THgdShHYuaGFjsP3BD1aLVlXCUwsV2os2dlhXHa+uE2Iyc7kr04I/Ox40WpZ0cDRCdZxgh3LkWXFcmAngWXPOs+y57vIOGWx3tPizv2UntDKzXc1W4bUv9Lqyo7iwsZypmX3yCOPTN8l6qfp85b55fvG6zIvzDufL99DAuWc8JvDjivzyufLjiIBmu/xVVddle7nMy6L6fMeeW3WN75v/D6w/NjBonSB3wTWa76TnNCYrWfMI/PEusO0OYGtJnxHVXMZdqUqRJht27Zt+nGnpbeiDRAbCK5vTzAmTBDkOGmEy3wShLi/qtDCTG0mXVWxoWLjRughQBCYGGidARt9Opbv0KFDChm9evVK47PBJSzzPDZ6tBSVL4soBof1eS0u1EE4JOgRpnlNAnl2yJRQsKAlE1WBUEB3ZAQoWhFZXiw7QhTLjZYxzvovi2VOizr1kHxWjJcFLwJb1orGeKx7GXYCqB8nJBNSWL94LZYdz+3du3cKI+zo0DLHeko45H5OLGI8rtjHZ0x3c+z0sFPB+lld0FpJkGJ+eW8VDazXtDqy7DgUT68PLA/WI9ZZ3h87BLR20mpZFq3q1LJyYQh2QFnnmCbLhuXJ94UW4co4OZLgSZg8+uij0+fI942gy2fC62efI2GV7yrfhfJhvSweZ8eRwMs6xPtnuWUnj3FkhB2rsvgeE3h5r7wu751lxk4CYZyu/7Kwy1EJfr8YN1t3GJeT1dhJokaYwC1VFq+gJi1kBAO6dWJjwLXwCWVZqwWhiw0nYYYWGQ7d8TitvdmPPeMSYNgI0/LE1aUYn5YnagkJIKD2lSAKNsi8Jhu0vfbaK4WcLNwwPxyuZhoc+sz6Fs3QrRCHOLO+acGZ+vQjyvyxQWWjlR3O5D5CLpc05vV5LfB6nLVPixd/s14ZeB7TY2NJIGLjzEaVjSAhgXpPQgkBn9cp34I0JzyfQ6EsB5YVy4BwwXLlPR533HGp7pBQUBYtpGBesmv3/xamT3jkEC2vR+jMwhRhgjCQXREqw2FfggKtXHy+PJYtK1oTWb60mLLjQ0s+Oz+ELuaXgMlzCQm8H2onWeYctuZoAC3oLGOWAcEiKyWgjIHn0ULJvHIpWUIqnxldRTHvYBnzHgjXrJM8h/mh9pP3yvthnpkvQh6fLa/FesI8s5wZl/uZL05YY3nOLVBlCJhMh+VF2Ga6rOfMA4GersIIzdn6y44RpQKseywr3sNvtQIyLb43rIOsf7y3igZa0pkH1k3KQXhN5i17f3wehx12WApkzBufDTtYLD+WG/ezM8XnyrrMa/E9ZFzKHDgRi1Ibxudzo7WUkwxZ73huWbTG8h3l/TFP2fufE5Yb6wP9OxPS+dz4LtEazzywjvE9YF3hXIHsc2RZsoPCMub7zv3cZv1kx4jPgvfBsuM+fnM4MsD0WEZckS5DkGd8liXrKkceeE0+Q64KmX1OfIYcCaL0iXGzvrlZb/nes7PGa9eEnVLVTLVKf1SrrqpeWgwQLPhhZ+PDDzgbivI/4mwMGYdx2QCxUS27ccvq3NhIEKp4Phs3AhH3cx8b2CxcMB7T5HlMq+zr8Ro8h40VG5/ygSR7HV4/azXmOUyP5/CavB7jcH/ZeeE55d9bNm72/sA4jMvzWB5ZWGD6vA7js8Gd16Cb4f3yetm8chtMh+XD65VdriA8ZssvC5+/hfEJItl0s7IAXpONNq+RvV4mW4YsB5Yrj2XLivnOHmNaLMvsMabJ/SwTxuP+bJkxTe7P1pfy0yv7GfE40yJI8Pixxx6bAkhZ2TyWXXY8l9difllXmA6PZfPFc5geeCwbj+dk8zM3LC/mk+XF83gO/zNtXqNs0AWvxeOsp+WX1Zwwrex9zQ3TKju97DPhPSL7vPmfaTFf2Xckw7LJXit7XrYMmTZ/weOse0yPIbs/Q3BknOzxeZUtHwaen302zAOfTfb5ZO8xW5ZgxzubD94H752B29l7YF54Du+NaWUBltfKPjPG53VZPjyHz6n8a2bzx7jIps94DFJlMuxKUg1GeCBEEDCycAFa2TiMzQUSqM+lGzNaUyVpcWPYlaQajHIJLgTBoWkOZ3NInpZGDuNTc0oZBf2h0p0UpQ+StLgx7EpSDUbNJGf/c1Y89bscZucwNfWRPMZJVIRd/krS4siwK0k1GLXE2aVeOYmLk+bACVD0/EHNLicNUeYgSYsjw64k1WD8hHPyEKUL/M1+0qnfzU4UKn8ylCQtTgy7kiRJyq25d+QnSZIk1WC27M4Bi4U+BFG2z0dJkiRVD+Q1SrjoE3pOec2wWwEWCf1WcvWnrCPzsv1XSpIkadEjrxF2ucIiFz2pKPAadivAguPSjlwmcvDgwYV7JUmSVN3Qh/jDDz+cLoHOlQvLM+xWgD2ESZMmxV577ZWua861xefn8o2SJEmqXFyGmkbJO+64I55//vlYf/31K7z8tGG3Alx+k2uYd+7cOdq3bx8nn3xyuoa4JEmSqge6XHz88cfjlFNOiQEDBkSzZs2iTp06hUd/ZtitAGGX68p36tQpOnbsGD169Eh1IJIkSaoeCLt9+/aN7t27x8CBA6Np06YVhl27GZAkSVJuGXYlSZKUW4ZdSZIk5ZZhV5IkSbll2JUkSVJuGXYlSZKUW4ZdSZIk5ZZhV5IkSbll2JUkSVJuGXYlSZKUW4ZdSZIk5ZZhV5IkSbll2JUkSVJuGXYlSZKUW4ZdSZIk5ZZhV5IkSbll2JUkSVJuGXYlSZKUW7VKShVuq+Cnn36KKVOmRKdOnaJjx47Ro0ePqF+/fuHRSvLNGxGf3lP4R1JuLb9RRLNjCv9Ikor1ww8/RN++faN79+4xcODAaNq0adSpU6fw6M8MuxVYJGF3ZM+Il7sV/pGUW407R7TrW/hHklSseQ27ljFIkiQptwy7kiRJyi3DriRJknLLsCtJkqTcMuxKkiQptwy7kiRJyi3DriRJknLLsCtJkqTcMuxKkiQptwy7kiRJyi3DriRJknLLsCtJkqTcMuxKkiQptwy7kiRJyi3DriRJknLLsCtJkqTcMuxKkiQptwy7kiRJyi3DriRJknLLsCtJkqTcMuxKkiQptwy7kiRJyi3DriRJknLLsCtJkqTcMuxKkiQptwy7kiRJyi3DriRJknLLsCtJkqTcMuxKkiQptwy7kiRJyi3DriRJknLLsCtJkqTcMuxKkiQptwy7kiRJyi3DriRJknLLsCtJkqTcMuxKkiQptwy7kiRJyi3DriRJknLLsCtJkqTcMuxKkiQptwy7kiRJyi3DriRJknLLsCtJkqTcMuxKkiQptwy7kiRJyi3DriRJknLLsCtJkqTcMuxKkiQptwy7kiRJyi3DriRJknLLsCtJkqTcMuxKkiQptwy7kiRJyi3DriRJknLLsCtJkqTcMuxKkiQptwy7kiRJyi3DriRJknLLsCtJkqTcMuxKkiQpt6p12C0pKYlZs2bFjBkz4ocffpg9cB+Plffjjz/OHnf69Onp9k8//VThuJIkScq/aht2CaiTJk2KO+64I4488sjo0KFD7LjjjnHQQQfF9ddfH59//nlhzP/D+I8//nh07949dtppp2jfvn0ce+yxMXDgwJg8eXJhLEmSJC1Oqm3YHTt2bPTt2zcefPDBaNiwYXTq1Cn23nvvaNKkSfTu3TsF208//TSNO3Xq1HjmmWfSuN9//30Kxrvsskt8++23ceedd8aLL76YWn0lSZK0eKm2YXfcuHEppE6bNi122GGHOPjgg+MPf/hD7LHHHjFz5sx48803Y9SoUWlcAm6vXr3iu+++i6222iq6deuWxiUgDx8+PAYNGhRffvllGleSJEmLj2obdqm3pfxg9dVXT625a6yxRqy22mrRtGnTdDurz+XvxIkTo3///rHxxhunUofmzZun8QjIPGfkyJHx4YcfFqb8a9T1Mp2yw5zqgiVJklRzVNuwu/zyy8f6668fw4YNiw8++CC++uqrGD9+fLz77rvx/vvvxzrrrBNrrrlmavkdM2ZMTJgwIdZbb70UjrHEEkvE0ksvnUIvwXX06NHp/vIIukyDkgemz/D111+n6dGCLEmSpJqr2oZdWnMPOeSQ2G233eKGG26InXfeOdXinnHGGaket3Pnzinc0rpLUKUVdtlll4369esXpvB/uI/H5nSSGvf37NkzunbtmlqFs4HXfeuttwpjSZIkqSaqtmF3ypQp8dFHH6WW3BYtWsS+++4b+++/f7Rp0yaF0CFDhqS6XoIsZQeoXbt21KpVK93OcF/ZccqrV69emubRRx8dPXr0mD38v//3/1LLsSRJkmquaht2OfmM3hiWWWaZ1Ip7+OGHx2GHHRYHHnhgKnHg5DVKHAiztOYSculbt3zpAffx2FJLLVW455fq1q0bG220Ueyzzz6pJZmBE9xo6V111VULY0mSJKkmqrZhl94T6CN36623Tj0sUL9L2QK327Vrl046YyDENmrUKIVW6mzLlivQmkv9LYF4xRVXLNz7SwThOnXqpOnQylt2oO5XkiRJNVe1TXOUHnBiGQOhlRPJGLL/CakMtOpyUhq9LnzyySfpYhM8znjU8o4YMSKWXHLJVAMsSZKkxUu1DbsrrbRSKi+g/9x+/fqlHhjoM/fZZ5+N+++/P1ZZZZVYe+2107iUOnTp0iWGDh0affr0iVdffTXV9F544YWpZZcuyZiWJEmSFi/VNuxSssBlgjfYYIMUcP/+97/H2WefHQ899FAqadhvv/1ik002SeMSdqnl5eITtO5efPHFccEFF6Quy6jFpRcHxpEkSdLipdqGXepwCa9cCW277baLli1bpl4Z6DmBE8i233772SeQUa+b9dhAt2StWrVKrblcQY2wy3Otv5UkSVr81CqhOFa/QG0wXZ8Rljt27Ji6Iivff+9CN7JnxMvdCv9Iyq3GnSPa9S38I0kq1g8//JB67urevXvq1IALidHpQHk2d0qSJCm3DLuSJEnKLcOuJEmScsuwK0mSpNwy7EqSJCm3DLuSJEnKLcOuJEmScsuwK0mSpNwy7EqSJCm3DLuSJEnKLcOuJEmScsuwK0mSpNwy7EqSJCm3DLuSJEnKLcOuJEmScsuwK0mSpNwy7EqSJCm3DLuSJEnKLcOuJEmScsuwK0mSpNwy7EqSJCm3DLuSJEnKLcOuJEmScsuwK0mSpNwy7EqSJCm3DLuSJEnKLcOuJEmScsuwK0mSpNwy7EqSJCm3DLuSJEnKLcOuJEmScsuwK0mSpNwy7EqSJCm3DLuSJEnKLcOuJEmScsuwK0mSpNwy7EqSJCm3DLuSJEnKLcOuJEmScsuwK0mSpNwy7EqSJCm3DLuSJEnKLcOuJEmScsuwK0mSpNwy7EqSJCm3DLuSJEnKLcOuJEmScsuwK0mSpNwy7EqSJCm3DLuSJEnKLcOuJEmScsuwK0mSpNwqOuz+8MMP8eKLL8agQYPiyy+/TPdNmTIlHnjggfjjH/8Yxx57bNx0000xYcKE+Omnn9LjkiRJUlUqOuxOnTo1Hn300Rg+fHhMnz49pk2bFh9//HHcf//9MXr06BgzZky8/PLL8dRTT6VgLEmSJFW1osMuAXfAgAEp5C611FIxceLEePPNN2PUqFHRrl272H333dP9ffr0SeNKkiRJVa3osEtpwrfffhsNGjSIpZdeOr7++usYMmRI/O53v4uOHTtGly5dYosttkgtvz/++GPhWZIkSVLVKTrs1qpVK+rXr59abSlTIPi+99570apVq2jYsGHUqVMnllhiifRYSUlJ4VmSJElS1Sk67NatWzcF2/79+8fVV18dvXr1irFjx6bW3BVWWCG+++67mDx5cqy00kop9EqSJElVregUSvlC165dUyvuRx99lGp2d91112jatGlq8aWsgZPYWrduHUsuuWThWZIkSVLVKTrsEmh32WWX2GOPPWLbbbeN9u3bxxFHHBGNGjWK2rVrR7169WL99deP3XbbLZ2oJkmSJFW1BarZpXWXwHvUUUfFXnvtFauttlqqz2Vo2bJl7LnnnulkNUoeJEmSpKq2wMW0n3zySfTs2TNOPfXUOPnkk2PEiBExY8aM+PDDD+O5555LJ63NmjWrMLYkSZJUdYoOu/Sy8Oqrr8bll18e/fr1i3HjxsXQoUPTVdToloz+d4cNGxaPPPKI/exKkiRpkSg67BJmuWAEobdNmzapf11OSKNPXcoYll122fT3tddei5kzZxaeJUmSJFWdosMurbXPP/98bLLJJrHffvulsFu2izG6HyPwfvnll6mlV5IkSapqRYddWnDHjx+f+tFdccUVC/f+jODLSWzU73pRCUmSJC0KRYddwmx28YhJkyYV7v3ZmDFj0kAPDV5UQpIkSYtC0SmUfnZ33nnnGDx4cDz11FPxxRdfpHIFLhv8+uuvpyuqccIaXY/Zz64kSZIWhaLDLn3sdunSJZo0aRKvvPJKPProoyno3nbbbXHdddfFu+++G82aNYvOnTsbdiVJkrRIFB12uVDElltuma6gtu6666bwy//U8XLy2qabbhp77713OoHNywVLkiRpUVigYlpOQNtuu+3irLPOittvvz216F555ZVx6623pvu23377wpiSJElS1VsoZ47Vrl07lltuuWjatGlstNFG0ahRI1tzJUmStMjVKimyXzB6YLjlllvSFdMqQqsvvTBQr0v3ZJtttlkqdyAUV3ecaMf76tSpUzrBrkePHumEvEo1smfEy90K/0jKrcadI9r1LfwjSSoWFzbr27dvdO/ePQYOHJgaXevUqVN49GdFt+zOmjUrPvroo3Sp4MceeyxdYILeFxi4zX300kDPDMzINddcE0888USq6ZUkSZKqQtFhl5ZbrpBGCcPqq6+eTk5r27ZtGrbYYovZ/esus8wy0bhx4/jwww9TMH7zzTcLU5AkSZIq1wKFXZqK27RpE6ecckpceuml8Ze//CUNl112WfzpT3+KrbfeOgXhf/7zn3H44YfH999/H88991xhCpIkSVLlKjrsTps2LZ588slo2bJlbLzxxin8ZrjdqlWrWG+99VIpAzUVO+ywQ6y66qoxduzYwliSJElS5So67HJeG4H3m2++ialTpxbu/Rn38Rh97jIu/fDSNy8nf0mSJElVoeiwS9ditOi+9tpr8Z///CfeeOONGDlyZBqyk9KGDBmSuiJj3HHjxqWT2ho2bFiYwm8jGE+ePDmVPtCH73nnnRfnnntuXHHFFen1eKws7qO/33/84x/x97//PW6++eYYNmxYCuWSJEla/BQddrPLBVOy0L9//7jnnntmD/fee2/qAoKa3n322Sfq1asXM2fOTJcP5kS2eUHQpXszSiUef/zxND16enj77bdTqP38889nh1imTc8QXLKYcV999dU0PPLII+k+To6zRVmSJGnxU3TYXXrppaNr167RrVu31I8uYfSOO+5IA7epz+Wx/fffP4Vdgi6399prr8IU5o4g+8EHH8TFF1+cyiG49PBFF12UWnVPOumkVCvMdMGJbw888EBqAaYv37/97W9xzjnnxPrrrx+9e/eOZ599tsJSC0mSJOVb0WEXdC22yy67pEsEP/PMMzFgwIA0cJseGXbeeec0DlZcccUUgOe1jGHUqFHRp0+fdBGKo446KrUiN2/ePNZee+3YaqutUnim6zNQzvDwww9H69atUyjmcS5iceaZZ6Yg/t5776VBkiRJi5cFCrvgpDP60uUSwWussUYauM19PJah3IHgW7bXhrnh4hPUA6+zzjqpRwe6Nzv00EPj1FNPTaUK3377bZoWJ8DRw8OYMWNSACYMUyPMQNClRwh6g6CWuCKcPEcZBC3JtP5mA1dQ+/HHHwtjSZIkqSZa4LBLiKQl96677oqbbroprr/++rj22mvTFdMYOGGsmBICShOotX3//ffjs88+S5cdps9e7qdUgqu0EXIJsl9//XX6S7jNLkdMEKZmeOWVV06hlVKIihByX3jhhbj88stTSzDDWWedFeeff/4cA7IkSZJqhqLDLj0rjBgxIrWychIYZQQEXUoPevXqFbfddlvceeedqX53xowZhWfNO54zYcKEFHSpvaWMgQtTUBpBKy71ucOHD0/zQWClhZYaXlp0y+I+HqMFuCKcuPbdd9/FF198kV4rG0aPHp0CtCRJkmquosMurbWPPfZYCrZfffVVLL/88ukv3ZFtuOGG6f/69evHBhtskFpY5xcts7TmUpqwxx57xHbbbZemTdjddddd49NPP01hOyuPAMGVYFsWrbplxymPE+06deqUaozvvvvuNGSt1C1atCiMJUmSpJqo6LBLayp96bZr1y5OP/302HfffVPAPeCAA9Llgf/617/GNttsk0Jx+QA6L6j3XWWVVVLvCoTmDC231OXSUktdLeOtsMIKKdDSVRnzVRYnr/FYdjJbeTzGNOhKjeBbdqhdu3ZhLEmSJNVERYddWky//PLLWGuttVL4JJASGgm2tMhyueAmTZrESy+9lE4Am18EZ1p1OVGtbDkBZQu0IFOeQEDldanl5aQ4amyzyxEzHwRtWn9pWWY+54bQW36QJElSzVZ02AWtrARcWkD5S+spta60rnIfgZiwWswFHVZbbbXUakz97P/+9790ohrT5oISdG9GwCZM8zq07DLuu+++m042+/jjj1PIffDBB1P4ZTxLEiRJkhY/RYddWksJkRMnTkzdgNELAiUHBFEu4kAPDQRUWl3nVC87N/TJ2759+3RyGl2QcdEIBq6oRuvutttum/rdBd2cccEKSg9eeeWVuO++++L+++9PNcXM09Zbb526RJMkSdLipeiwS6kCgZPgSeAl1NK6OmjQoHRy14033piugLbTTjulVt/5RXDdZJNN4rTTTkslDfS+wMlwtPQeccQRsdtuu8Waa66ZxqWcgZPWqBfmtf7zn/+kHiIIwUceeWTssMMORZ0kJ0mSpJqtVkkxZ4+V4mlZl19ZKQMniNHySjkBNa9c0YwrrBE6i6mBZdqUQtANGX9BKzHlE4TX8i3G1AYzlB2XUM68zc/rU3bByW/00tCxY8fo0aPHL06SqxQje0a83K3wj6Tcatw5ol3fwj+SpGJxThedJXTv3j11ddu0adMKGzeLbtklPNKiykD4JFhSykA4PProo9Ow4447Fh10wfOYaV6DemAGWnwJ1xWVRjAf5cfl+cW+viRJkmq2osNuhlZQanbp95ayBXpKyC63y+2PPvoolTpIkiRJVa3osEupAGGWy/ZyMhgXYuCKaeWH3r17z/HqZZIkSVJlKjrsUidBN19ceezyyy+Pnj17proJTg4rO9Azg5fdlSRJ0qJQdNjlymT//ve/U08J5513XvTv3z91EVZ+ePzxx2PFFVcsPEuSJEmqOgtUxjBu3LjUhy1dkHERiOzEsLIDJ4l5gpgkSZIWhaLDLj0fcMEHuvaC/dhKkiSpuik67NLv7L777hvfffddupAEl/GlN4YPP/zwFwOX7c36vZUkSZKq0gKF3d133z3Gjx+fTk679tpr0196Zsgu7cvAJXvtjUGSJEmLQtFhlx4WBgwYEC+++GIauHIa4fa+++5LoZeB24ZdSZIkLSpFh93vv/8+9aNL3e4ll1wSjzzySAq499577+zhnnvuiauuuipdWU2SJEmqakWHXa6KNnLkyNh0003j97//fbRt2za22mqrXw2tW7dOJ7NJkiRJVa3osEvvC2uuuWZqteW23YtJkiSpuik67NatWzfatGkTH3/8cbp4xOjRo2Ps2LHpEsJlh6+//jp++umnwrMkSZKkqlN02AUhlssBn3/++XHKKafEpZdeGldccUVceeWVs4dbbrklpk6dWniGJEmSVHUWqGb3s88+S2UMXClt4sSJqV/d999/P957773Zw0cffWQ/u5IkSVokapWUKtyeL9OmTYvnnnvuN7sVa9CgQXTo0GH2ldZqAlqsp0yZEp06dYqOHTtGjx49Ur/ClWpkz4iXuxX+kZRbjTtHtOtb+EeSVCy6we3bt2907949Bg4cGE2bNq3wir5Fh908M+xKqjSGXUlaKOY17M53GQOXB+ZktHkdxowZ4wlqkiRJWiTmu2W3d+/e8fDDDxf++22NGjWKiy66qEZdWMKWXUmVxpZdSVooKq1ld4kllkgXiZifQZIkSVoU5rtl95NPPokRI0YU/vtt9erVS/3x0i9vTWHLrqRKY8uuJC0UnqC2AAy7kiqNYVeSFopKK2OQJEmSagrDriRJknLLsCtJkqTcMuxKkiQpt+Yr7A4ePDiGDRsWs2bNipkzZ8Z7770XEydO9KIRkiRJqpbmK+zeeeed8cQTT8S0adNSbwX33ntvfPzxxyn8SpIkSdXNfIXdr776Kr7++uuYMWNGCrv33HNPCru08kqSJEnVzXyF3TXWWCPeeeeduOyyy+L++++P77//Pvr37x9333133H777RUODz74YEyfPr0wBUmSJKnqzFfY3W233aJ58+bxwQcfxIABA1IL79ChQ6Nfv37x3//+t8Lh+eefT53+SpIkSVVtvsJu27Zto3PnzrHjjjtGy5Yt01Uq1lprrdhwww1j4403/tXQqlWraNGiRYVXs5AkSZIqW9GXC6Z+96CDDopTTz01hd9Kv5xuFfJywZIqjZcLlqSFotIvF7zKKquk8oVddtklV0FXkiRJ+VF02K1Vq1YsueSS8c0338RTTz0V559/fkrWDBdccEE8/fTTMWHChMLYkiRJUtUrOuzS3djw4cPjhhtuiDvuuCOdqDZp0qQ0DBkyJPXEcNNNN6WuyX788cfCsyRJkqSqU3TY5cISXGBi0KBBqYV3u+22S701MGy77baxxBJLpMdo9bU3BkmSJC0KRYfdqVOnxsMPPxzNmjWLk046KU455ZTo2rVrGv785z/HiSeeGE2aNIlHHnnEfnYlSZK0SBQddilNGDVqVGy66aap793y6JqM7sdGjx5tGYMkSZIWiaLDLmUKyy23XIwfPz6dpFYeJ6dxaWHG4WQ2SZIkqaoVHXaXWmqpVJv72muvRe/eveOll15KJ6MxvPjii9GrV690oto222wTdevWLTxLkiRJqjpFh90GDRrEvvvuGw0bNkyB9+67745bb701Ddx+4403olGjRrH33nunYCxJkiRVtaLDbr169dLVxbp165ZOUqMbMnpeYKB1l5pdHuvQoYNhV5IkSYtE0WEX1OJyqeB//etf6SISXKqNgSurXXTRRbH99ttbrytJkqRFZoHCLgiz2dXUlllmmTRwO7tfkiRJWlQWOOxmCLa1a9dOgyFXkiRJ1cFCC7uSJElSdWPYlSRJUm4ZdiVJkpRbRYXdkpKSdHW00047LQYMGBCTJk0qPCJJkiRVH0W37M6YMSNdNW3MmDExa9aswr2SJElS9VFU2KW3hTp16sQKK6wQX331VWrllSRJkqqbolt269atG5tttlkMGzYstfByBbXPPvssRo8e/Yvhyy+/jJ9++qnwLEmSJKnqLNAJaj/++GO8+OKLccEFF8SJJ56Yrpp2xRVXxJVXXjl7uPXWW2Pq1KmFZ0iSJElVp+iwS53uyJEjo1GjRrH66qun4EvL7ocffviLYcSIEdb0SpIkaZGoVULXCkWYPn16atXlRLW5qV+/fmy33Xap7KGmoOxiypQp0alTp+jYsWP06NEjvY9KNbJnxMvdCv9Iyq3GnSPa9S38I0kq1g8//BB9+/aN7t27x8CBA6Np06bpnLLyim7ZrVevXgqCe+yxR3To0CG23nrrVMPLfbvvvnu6n2GnnXaqUUFXkiRJ+bFANbuUJ3AS2muvvRb9+vWLp556Kr799ttU0sBfyhw4QY3/JUmSpKpWdNjlUD8Xk7j66qvj8MMPj0MPPTTOPvvsVLdLaQMXm7j44ovTCWrTpk0rPEuSJEmqOkWH3cmTJ8cNN9wQo0aNSkH33HPPjaWWWir1wYtmzZrFWmutFW+88UbMnDkz3SdJkiRVpaLDLkXBFAO3aNEidt1119hwww1jiSV+ntxKK62ULjpBmYNlDJIkSVoUig67Wb3uOuusE+utt146Ya0szoYj/NJrQ5EdPkiSJEkLpOiwS7kCvSwQZmnlLW/ChAlpaNiw4S9afCVJkqSqUnQKXXLJJaNVq1bpwhFcKrjsJYEpW3jzzTdj6NChsemmm1bY55kkSZJU2YoOu8sss0wcffTRqWuxyy+/PG6++ebU3dgtt9wSxx13XPz73/9O4x1xxBHRoEGDdFuSJEmqSkWHXUoYuIgEYbZt27apXIGT1Qi/tPK2b98+DjvssHTimi27kiRJWhSKDrvU4S6//PLpimn77rtvdOnSJY488sh01TRud+3aNV09jRbgrDsySZIkqSot8JljtWvXjjXWWCO23HLLFG532WWX2GabbaJJkyap311JkiRpUVmgsEuXYlxc4pVXXkk1uxdeeGEaqNsdPHhwesxuxyRJkrSoFB12uSTwO++8Ez169Igzzzwz+vfvny4fzPD888/HGWecEX/961/j3XffTX3ySpIkSVWt6LA7ZcqUuOuuu2L8+PGx8847x5///Oc44YQT0sBtTlAbN25c3HvvvTFt2rTCsyRJkqSqU3TY5WIStOY2b9489ttvv9h7771TzS4DtzlJbd11140BAwZUeNEJSZIkqbIVHXapxaXFlrC75ppr/qLHBW6vvfba0axZM1t1JUmStMjMV9gl4GYDfecSdKnR/eabb1Lfutlj3OZSwd9//300bdo09dggSZIkVbX5CrtcMOKjjz5Kw1dffRWdO3eOQYMGxY033hiPPfZYDBkyJA19+vRJ93HJYEoa6tWrV5iCJEmSVHVqldAUO4/OP//8eOONN9JtWm9puR0+fHi6mhp97XKRCXz33XfxxRdfxI8//pj63L3pppvSFdZqCt4bJ+B16tQpXTSDHifq169feLSSjOwZ8XK3wj+Scqtx54h2fQv/SJKKxTlhffv2je7du8fAgQNTNUFFV+2dr5Zdroa2wgorpKFRo0bpwhGEwXbt2sX6668fq6yyShq4veOOO0aHDh1SPS9XW5MkSZKq2ny17H777bfz3bMC9boE4wUNvNQGUzpBffBKK62UWpJpbWX2Z86cmUosJk6cmOZvySWXTK3MjRs3Tldxm9/LFduyK6nS2LIrSQtFpbTs0qK72mqr/WJYddVVU2vuyiuvXOGw4oorLnDQJdBSPnHeeeelyxFfeumlMWrUqPQYpRJjx46Na6+9Ng499NDYY4894qCDDopLLrkkjWO3Z5IkSYuvBa4voMWVK6k98cQT8eCDD8YDDzzwi4HETZ+8C+Kzzz5LiZ2rsa2zzjq/6N2BmuF///vf6apt9O17zTXXxOGHH55Oojv77LPTX0mSJC2eig67tJgOHjw4Lrroojj33HPjuuuui549e/5iuO+++1IvDcWGXVp0eZ2HHnoonQy33XbbpdblrCyB8oVPPvkkBV2u2LbbbrulsgPKD2jhZf4IyJRfSJIkafFTdNidOnVqCqFvv/12NGjQIDbbbLPYaqutYuutt549tGnTJlq3bp1qaItBSOYKbB9++GE6GW777bf/xbTo9YFWX2p5d99992jRokUqnchOkKPEgTDMJY0lSZK0+Ck67BJEn3766dhoo43SCVz//Oc/UwvvOeec84vh5JNPjqWXXrrwrHlHiy41t7QOc6IZ4ZmT0sriZDWCLsXIBF16iwD9+lJLzDBu3Lg03txwQhrBuOwwa9as1LIsSZKkmqvosEsQJBBuvPHGqY52fns8mBumzUlnzz77bGqZpUSBluPyaF2m1wT6+SVQl63l5aQ4+vblcsVzK6Mg6DIOpQ5ff/11Grj6GwGZMglJkiTVXEWHXbriokZ2zJgx8emnnxbuXTioz33ttdeiV69eqWV4ww03rLRLDk+ePDm1HtODA6UP2cB7o0RDkiRJNdd89bNb1owZM2LYsGHxyCOPpHDKxSPo/7Z8N2O0uO66667zdcngkSNHxv333x//+te/UvkC3ZdRq0trLwGUPnRbtmwZ2267bWqBpdeHF198MXWFloXi0aNHx3777ZfqiA8++OB0JbeKUC7B+/jggw9SzxJgkXA/vTzQnZn97EpaaOxnV5IWCrLaQu9ntzzKGDh57Lnnnksv9uSTT6bhqaeemj30798/BeP5QVnCeuutF507d059+DLjZTM5txnomYET0pgPWpcpRwCvR1kC9boE5bldqpjXohRjn332ScGW4ZBDDkktvdT8SpIkqeYqOuxSK0u/upxExhXS1l133dSyS7gsOxBI5/eiEgRYuhDjIhKc9JYN9J9Laqe19o9//GMKw/TSsNxyy6VQTc8MtM5+/vnnqQyCxM98Mb05odaYMM2V1mh9Ljss6MUwJEmStGgVneZoRaUP3R122CGuvPLKuP3229MFHRiuvvrq2QOBNeslYV5RskBQpnW37JBdIphwu9Zaa6VWX+6nROHee++NZ555Jl1prV+/fnHHHXdE8+bNU6stIVySJEmLnwVquiSUNmvWbJEe7ifQnnTSSanHht69e6e6DYIuLcDnn39+elySJEmLp6LDLof5d9ppp9TPLSeDVQVOSjvttNPisMMOi9VXXz3dR0svfewee+yxcfrpp6dLBJ9xxhlx4oknpu7K5rdVWZIkSflRdG8MEydOjMsuuyzee++9VBe7+eabx7LLLvurOlfCKFc+oya2pqDvXWqSuewwtcP2xiBpobE3BklaKCq9NwauMkZXYHQTRq8LN9xwQ9x1111x9913xz333DN7ePjhh+d6UQdJkiSpshQddmnBpaeFNm3apJPUWrVqlU4Yo2eGsr0x0O2XvRpIkiRpUSi6jIGWXS6ryyH/uSHoVnSxierMMgZJlcYyBklaKCq9jIErldGSy1XL5jYwji27kiRJWhSKbtml5bNPnz6zr1o2J1wueO+99678ltGFyJZdSZXGll1JWigqvWV36tSp0atXr3RCWtmBk9RuvPHGuPTSS9NA37eeoCZJkqRFoeiwS0vnPvvsEwcddNDsoWvXrrH//vunrsa40AS1uvTFW7du3cKzJEmSpKpTdNht0KBBCrsE3Gwg8B5yyCHxt7/9LU499dTUS8Pnn3/+myexSZIkSZWh6LDLSWfLL7986n6s/MBJaZtsskmsueaa8dprr8XMmTMLz5IkSZKqTqV1kzBjxox0lbVvvvnGll1JkiQtEkWHXcLs0KFD4/XXX//FQEvuoEGD4plnnon3338/mjVrlropkyRJkqpa0WGXVtvTTz89TjzxxF8MJ510Uhx22GHxj3/8I0aNGpVOWKtJ3Y5JkiQpP4oOu0sttVS0bds22rVrFzvuuOPsoX379vGHP/whLr744rjiiitit912S+NKkiRJVa3osEtvDAcccEBqxT300EN/MdArwy677BIbb7xxLLvsslGrVq3CsyRJkqSqU3TYXXLJJaNly5Yp0JYdNtpoo2jevHmsvvrqli9IkiRpkZrvsPvpp59G//7953l4+eWX08lskiRJUlWb77Dbs2fP2HPPPWOvvfaa49CpU6fYddddo2PHjql+l5PZJEmSpKpWq6RU4fY8oXuxN954o/BfxT755JMYOHBgvP3229G4cePUFdnKK69ceLT6o1/gKVOmpNBOYO/Ro0fll2SM7BnxcrfCP5Jyq3HniHZ9C/9Ikor1ww8/RN++faN79+4pdzZt2jTq1KlTePRn892ySz0uIbD8sPPOO8cGG2wQI0eOjMGDB6dx99tvvzjvvPNimWWWSf9LkiRJVWm+w+5yyy2XWmuzYcUVV0xlCrTePvbYYzF8+PBo0qRJ7LPPPnHUUUdF586do169eoVnS5IkSVWnqN4YqHyYPn16OlnthRdeiIceeih69+6dyhtoQj7mmGPi+OOPT/3uLr/88nY9JkmSpEVivsPurFmzYtKkSTFixIi47bbb4rTTTotHHnkk1llnnbj88svjwgsvjO233z4aNmxYeIYkSZK0aMx32B06dGi6Ohq9LPTr1y+VKVxzzTVx1llnpX52KyoMliRJkhaF+Q67r776aipbGDVqVOqhYMyYMfH888/HXXfdFddee21q3b3ssstmDzfddFNMnTq18GxJkiSp6sx32KVed+mll45mzZrFKquskrro4qQ06nUrGt55551U+iBJkiRVtfkOu61bt04lDPvvv39svfXWscUWW8x1aNWqlaUNkiRJWiTm+6ISiwMvKiGp0nhRCUlaKCrtohKSJElSTWHYlSRJUm4ZdiVJkpRbhl1JkiTllmFXkiRJuWXYlSRJUm7Z9VgF7HpMUqVZjLsee2nM1Bg33YsMSXm11BK1on3jpaNBnappS53XrscMuxUw7EqqNItx2H3g4+9i5OSZhf8k5U39OrXi8BYrxPJ1q1fYtYxBkiRJuWXYlSRJUm4ZdiVJkpRbhl1JkiTllmFXkiRJuWXYlSRJUm4ZdiVJkpRbhl1JkiTllmFXkiRJuWXYlSRJUm4ZdiVJkpRbhl1JkiTllmFXkiRJuWXYlSRJUm4ZdiVJkpRbhl1JkiTllmFXkiRJuWXYlSRJUm4ZdiVJkpRbhl1JkiTllmFXkiRJuWXYlSRJUm4ZdiVJkpRbhl1JkiTllmFXkiRJuWXYlSRJUm4ZdiVJkpRbhl1JkiTllmFXkiRJuWXYlSRJUm4ZdiVJkpRbhl1JkiTllmFXkiRJuWXYlSRJUm4ZdiVJkpRbhl1JkiTllmFXkiRJuWXYlSRJUm4ZdiVJkpRbhl1JkiTllmFXkiRJuWXYlSRJUm4ZdiVJkpRb1Tbsfv7553HXXXfFKaecEgceeGB06dIljj766Ljsssvi448/junTpxfGjCgpKYmZM2fGo48+Gn/+859j3333jQMOOCDOPffcePvtt38xriRJkhYf1Tbsjh8/Pl5++eWYNWtWrLXWWrH++uvHUkstFYMGDYobb7wxRowYET/++GMad+rUqfHkk09Gnz59YsyYMWn8VVZZJQYPHhwPPPBACrySJEla/FTbsFu/fv1o1qxZ7LnnnnHMMcfEiSeemFprmzRpEg8++GC8//77KeT+9NNP8e2338Y999wTX3/9dWy77bZx/PHHx1FHHRWtWrWKgQMHpoD8/fffF6YsSZKkxUW1DbstW7aMU089NTp27BgtWrSItddeO7beeus4+OCDY8qUKTF69Oj47rvvUvnCV199FQMGDIi2bdvGbrvtFhtssEFsvPHGcdJJJ0WdOnXigw8+iFGjRhWmLEmSpMVFjTpBjZIGgi41ug0aNEhlDZMmTUo1vDNmzEihePXVV0/jLrnkkqmcYY011ojJkyfHZ599lu6XJEnS4qPGhF0CLqGWEoZ11lknlTgsv/zy8cMPP8Q333wTSyyxRCy77LJRr169wjMiateuncahtpdQXJHs5LZp06alsoiyQ1YTLEmSpJqpxoRdanSfeOKJGDZsWBxyyCHRvHnzqFu3bqrZpVW3Vq1aqWSB0FsW92WBtiKE3BdeeCEuv/zyOOuss9Jw9tlnx/nnnx8jR44sjCVJkqSaqEaEXVp06W3hzTffjNatW8f+++8fq622WnqM1lvKGbJAS/gti/sIwgTjijA+tb90dfbpp5/OHih7sMsySZKkmq1ah13KCChReOihh6J///6pHvevf/1rNG7cONXkgqC70korzQ6tlB8gC78TJ05MrbsNGzZM95e39NJLR6dOnVLLLj06MNx9991x8803p5PkJEmSVHNV67BLeL3mmmtS/7mbbbZZnHzyybHqqqv+olRhueWWS/W7hN7hw4enfnbByWz02PDll1+mWl56c6hI1urLCW8E37IDrcaSJEmquapt2KV04frrr09Bt127dtGhQ4cUSGmppbU3O4GMFl4uIEEXZS+99FL85z//iXfeeSeGDBkSV1xxRRpnww03nGPYzRB6yw+SJEmq2apt2KVfXK5+9tFHH8Xrr78e9957bzppjJPHGPr16xdjx45NoZQShcMPPzxdcOKVV16Jq666Km644Yb45JNPYtddd00XmiAoS5IkafFSbcPuMsssky4M0blz51h55ZVT/7oTJkyYPfB/1jUYV1vbcccdY5999kl1ttTvUoLQvn376NKlS2rZlSRJ0uKnVglncukXCMuEaU5cozyiR48eKVBXqpE9I17uVvhHUm417hzRrm/hn8XLAx9/FyMnV9wNpKSar36dWnF4ixVi+bpV05bKtRb69u0b3bt3j4EDB0bTpk1TpwTlVduWXUmSJGlBGXYlSZKUW4ZdSZIk5ZZhV5IkSbll2JUkSVJuGXYlSZKUW4ZdSZIk5ZZhV5IkSbll2JUkSVJuGXYlSZKUW4ZdSZIk5ZZhV5IkSbll2JUkSVJuGXYlSZKUW4ZdSZIk5ZZhV5IkSbll2JUkSVJuGXYlSZKUW4ZdSZIk5ZZhV5IkSbll2JUkSVJuGXYlSZKUW4ZdSZIk5ZZhV5IkSbll2JUkSVJuGXYlSZKUW4ZdSZIk5ZZhV5IkSbll2JUkSVJuGXYlSZKUW4ZdSZIk5ZZhV5IkSbll2JUkSVJuGXYlSZKUW4ZdSZIk5ZZhV5IkSbll2JUkSVJuGXYlSZKUW4ZdSZIk5ZZhV5IkSbll2JUkSVJuGXYlSZKUW4ZdSZIk5ZZhV5IkSbll2JUkSVJuGXYlSZKUW4ZdSZIk5ZZhV5IkSbll2JUkSVJuGXYlSZKUW4ZdSZIk5ZZhV5IkSbll2JUkSVJuGXYlSZKUW4ZdSZIk5ZZhV5IkSbll2JUkSVJuGXYlSZKUW4ZdSZIk5ZZhV5IkSbll2JUkSVJuGXYlSZKUW4ZdSZIk5ZZhV5IkSbll2JUkSVJuGXYlSZKUW4ZdSZIk5ZZhV5IkSbll2JUkSVJuGXYlSZKUW4ZdSZIk5ZZhV5IkSbll2JUkSVJuGXYlSZKUW4ZdSZIk5ZZhV5IkSbll2JUkSVJuGXYlSZKUW7kKu59++mn069cvbr/99rj55pujV69e8cEHH8SUKVMKY0iSJGlxkouw++OPP8Y333wTTzzxRAq6t956a9x2221xww03xKOPPhoff/xxGkeSJEmLl1yE3WnTpsXzzz8fd9xxR9SuXTv+9re/xTXXXBObbbZZ3H333dG3b9+YNGlSYWxJkiQtLnIRdilT6N27d6y33nqx9957R7t27aJVq1bRo0ePaNGiRQwfPjxef/31wtiSJElaXNT4sFtSUhJTp06NoUOHxtprrx3rr79+LLfcctGgQYNYY401omXLlvHDDz/EJ598UniGJEmSFhe1SsNiSeF2jTRz5sx0EtqOO+4Yp556ahx44IGx7rrrFh6NVM7w0ksvpZbes88+u3DvL1HP+9NPP6XgDG5///33sc8++8TOO+8cJ598ctSvXz89Vmk+uz9i0OGFfyTl1hp7ROzwSOGfxUuvTybFyMkzCv9JypsGdZaIQ5s3jOXqVk1bKo2Zjz/+eJxyyikxYMCAaNasWdSpU6fw6M9qfNilXvett96K3XbbLf7+979Hly5donHjxoVHI2655ZbUQ0Pz5s3jn//8Z+HenxGWP//88zQwLbBIuH3OOefE5ptvnqa51FJLpccqzVf9I967uPCPpNxaaeuITf5e+GfxMuDLqfHV1FmF/yTlzVK1a8Xv11qmNPTWKtxTuchwgwYNSlmPc7c4ul+3bt3Coz+r8WF3+vTpKezuuuuucd5558V+++33q7D79NNPpwVQUdj99ttvU+8N9OIwcuTIwr3/F3gztWpVzYemxQvrGEcR+LLy5WQ9c12TlAfZNnTGjBnpxHEGf99UGVjXVl555ejTp09stNFGUa9evcIjP6vxYZcSBE5A22GHHeJPf/pTdO3aNTVjZy6//PIYPHhw6pmBXhrKmzVrVowbNy7Gjx+fgnOGxcKJbzSHV7TgpAVFyB0yZEg6kZJu8qgvr+jwiyTVNOzIcz7NCSecEJ07d4699tqr8o+QarFEjmN9a926dSy99NKxxBK/LqGo8WGX2R89enTsu+++0aZNm+jWrVtss802sx/74x//mIJsp06d4tBDD033l8dCYii7KLhNGGGhGUBUGWjxeOGFF1IPIs8991wqmVlyySULj0pSzUVDFOe+dOjQIY444og48sgjK//cFy2WsgzHzlRFQRc1Puzi66+/josuuig+/PDD6NixY+y5557pS8WJaxdccEEqYTjqqKNiyy23LDxDWvQIuwMHDkytHhTWb7HFFoZdSbmQhV26AmX7e8wxx3iUVItMLvrZpdmaQyQEBQqVuWoaZ+fdddddqUaIFjMOEUuSJGnxkouwSysuNbvsPVJycPXVV8cZZ5yRankPP/zwVMKwzDLLFMaWqo+sTMYTNyTlEb9vczq0LFWVXJQxZCZPnhzfffddKoqnfoMz3FdcccUUdK27VXXDYb6PPvoonZxGH4FrrbVWOmNZkmo6tsH0gXrVVVel82i23XZby7S0yOQq7Eo1CV89atro8q5p06bpCIUtvJLygN83Ai9XL6XRicEWXi0qhl1JkiTllrtZkiRJyi3DriRJknLLsCtJkqTcMuxKkqQa7csvv4x77rknzjnnnNk9MkkZT1CT5hGXj+ZqfW+//Xb6YZ0yZUrqPWG55ZZL3Ya1atUqGjZsmLoPo1sxusIbOnRofP755zFp0qTZlzPkrOQNN9wwmjRpEg0aNChMPeKbb76JTz/9ND7++OOYMGFCmgZXHFpppZVi7bXXjhYtWqTxszOaeX3G5Wxn5osrstG1D/OzzjrrRLNmzaJRo0aeAS0pXnnllXRVUbrk3HTTTWOjjTYqPBLp94luELl8+UEHHRSrrbZa4ZGag/dGN45cWOrpp5+OZZdd1q4cNZthV5oHBF2C6EsvvRTPPPNMCqbTp09PYZcAusoqq8Qee+wRW2+9dayxxhoxceLEtOF48skn44svvohp06al8ErYXWGFFdIV/9q3bx+rr7566qKHsPryyy+n6Q8bNixtfMDVAQm7BN1ddtklNt5449RFGa9P6P7vf/+bwu63336bwjThmB/59dZbL3bbbbd09cDll18+TUvS4usf//hH3H///Wnn9w9/+EOceuqpsy9oQ/eHjzzySPzlL3+JwYMHx+9+97vCs4qTxYqq7ErRsKu5qX1eqcJtSXMwbty4tKG48sorUwA99thj44gjjkgBlDD5xBNPRL9+/VJ4JWjSSnLcccelVpQuXbqk8ffdd9/ZG5GVV145BWRaggnBffv2TZ2vc9U/riXP+GyQtt9++xRgCbSfffZZtG7dOv3fv3//uPzyy+Opp56KnXfeOQ4++ODo1q1bCriNGzdOrTjgNRgkLd4GDhyYfl9GjRqVLr7UuXPn9FtCIGTnnJ1sQuIxxxyTfkPYeZ41a1a6MARHjdjhz0oDyh4tYhx2/Am43GZcBm4Tdnk+z2PgNgO/edk0mC7P5y/385yy0+c+Hsumm40HxssCNQ0Gr7/+ejqSdsghh6SGhbLT0eLNll1pHtx2221x3333pR/P66+/PgVINhSgXIFyghNOOCEF3b333juVE3D5ap7HpawpJ+BHmR9pWnl5PHv+2LFjZ/8477fffun5BGpaXdhAsCGgZIGNxJprrplaMG655ZbUcvzHP/4xhV3Cc3Z1IjYIWcswrRuUNUhavNGy+8Ybb6TfG36L+J057LDD0g56RS27hMYBAwbEAw88EGPGjEm/T5RqcQRrzz33LEw14vHHH4877rgjOnTokMZ766230vS33HLLVCpx++23p512dvwZlxItjjhxKX/KJZ5//vno1atXqrPdZJNN0nztuuuus4PqkCFD0tE0fu8oH+N3kxItxmFesiNXtuxqbtztkX4DP8L8gPOX4EqgJUDy489ADS7lBWwg+DGmhYTgSQsEJQyEVH7oGShBYHx+iBmHUPq///0vbWw222yz1KpLcKU0gvH5Yaf1l9II6oJ5DuULtPTS+rL77runAMwlsbP5Ydo8tuqqq6bQLEng94EASrkVIZbSLH6fyqOV9Nlnn4277747BVJ2wjt27Jiu+HjXXXel4Mlt8BvGbxLjcptgu88++6TzEmhB5ijXc889l0qvaE3msQ8//DAFZE4o44gV0ye8ErA5Svbee++laYMdfX7f+G088sgj0xEygjBH0h5++OHCWNLcGXalueDABz/StIYQPAm1tBZkh87ADy8hlo0IAZfxafnlx/nFF19MrbC08D722GOp1YSSCFpfQYB+55130iE/LhnMiWgV4fUIuvxl48BGhRPcCLVZi255tAzbsiEpw+/Huuuum84XoHSBVlACZnnssL/66qspCB944IGpTIoT17baaqsUYB988MH0O5fhCBShlB1+WmYJtZRcgd9EWl9pzaWki3Irfuc4eXfEiBGpBZj7eQ1+00aPHp3Cc4bfuLZt26aQzDwwPzvttFP6DSXwMn0PUOu3GHal38DJX5QSZK2yFWEjwmOES358aYk9/vjjU0CmFYQSiGzgpDJq5wi6jEsrCs+j9SIrbZgbyibYuNDiK0nzg98pemOgBZbfJna2s53vDC2r7OC3adMmlUkRQlu2bJmObFHKwIm3hN4MR6IIs9ttt12sv/76qWyr7ImxTIeAzdEpjoxxFIuddBoFOnXqlI5CNW/ePLUG0/pMi3OGMgvGI0zzu8nOPr/FNDJwhIsd/6yGV5oTw670G7LaMVoPCJlzkj1G8OXHntYK6tWuueaaOPTQQ1MA5sQxzoLmUGD2g874YPrz00Jha4akYlAqxTkGlE9RE/vVV18VHvk/tNry+0JtbPb7BHqSoVWW1mBafbPfIHbS6TGmop11yrH4PSy7c04ZGAGW6RFuM4RmjkixQ5/hhDrKFagnpsb4gAMOiBNPPDEdKeOIGPPOX2luDLvSXPBDT6sDra78AFOTWxF+9HmMH11aNKibBT/+tFZwCO7000+Pnj17pto3Wk44hMgPPRsPWnhpQab14rfQFRktwZwMIknzi5ZRWldpcaVkgd5dFgS/k1lra3mE14ru5zesfJkV0+G3NAvRHFGjFpiT52gxvvDCC1NJ2HXXXZdqd2lgMOhqXhh2pd9AeOXQG4f66AeXv9mPMTiERlAlvBKKaQ3JfsT5kSfwMg1CM4cDmRbP4TAgLRzUo/G8N9988xe1amXxo07ZA3832GCDNC0O4fEcNgjlMX+0vBCiJaksfpcIp+yE85vCbxctqBlaYQmelAyU/a3jN4udekoLaLHNWn35m91eWHhdzm+gpxt+J2nR3XHHHdPvJeUQvH42Xtl5lCpi2JV+A7VlWS0aXfdwcgZnE9OFDj/G9NRw7733prIEWks4UY0g2qdPnxRe2ThwWJDDbe+++24ajw0Nh/b4y0lvnMzG/Ryuo46Ow4QEaKbPNOh6h5PdCLzUzG2xxRYpyN58882peyBej9pf5omzn+m397XXXkv3SVJFOOGM3zV+Nwi8WWikJIEjSPyGcD+/Yfw+cdIaR6U4QawqujRkfgjjNA5wm99ifhcpveB3TppXhl1pHnC4jws2EFApRXj00UfTiWYMhFoOs7GBYBw2HpxlTNc+PEbfknSnw7g8jxYUxqW8gUN8nDCSnYlMcObiFdSjcRIIA88j7NLCQasyZQ9sbOg+iN4deG0GxuMiE7wWr0u/k/TpK0kV4fds2223TT0e0DtChh1qdtwpq+KkWnae+e1ih5vw2bVr1zmerLuw0FLMa3CkjKNX/Kbx28ZvIr+TBHRpXnkFNWke0AJL+QGttpzUQfgkkHJVIlptafnt0aPH7CucEUo5BMgJaQRQfqC5HDA/0PQnSRc6nBGdHf6jOyDOdqb8gdYTNi78sFOmQE0aZzrTFyUndHAIko0Tr0V5BD/8dKLOa9BnL2dRE4QJxMxz+bo4SYsffovobozfGo4MZWjBpUcDHqc0gCtDEjA5gYzyKnai2WHnt4gT29gxp3ux7MQydqr5DeKCEPw+Zn17s6NNazCPUXpAgM5whIsuxihH4LEMrcb0TU7IpfcGXoPfOOY724mnlZnnMC8cueICF4R2zqmgZ4nx48enMM57qahWWIsnr6AmzSNaNAix1K3R0pB1d8OhNcIwh/WyPm8Zjw0IdbOEVZ5LqKUllzOOOYEtqznL8BxaUhi4zVeToMp42XP48c5q45hu2fGz12AeGJ8NFbez8SUtvtgp53eC3yoCZIbfMX6rsh4YCKCETMqkKJvi947fGn5HuJ/foewEXBAyGYffG+7Pdq6ZLr9NBFV20ss+h/GZNg0DPJZhPrif30lCOPit5QIWDEyT30Nei3kiUHP+Avcxvzyf8en5xqCrsgy7kiRJyi13fSRJkpRbhl1JkiTllmFXkiRJuWXYlSRJUm4ZdiVJkpRbhl1JkiTllmFXkiRJuWXYlaQajguK0FE/nexnFzuRJP0fw64k1XDjxo2L3//+93HjjTemy1RLkn7mFdQkqZqixZbLsf7vf/+LN998M0aNGpUuwcrlUldbbbVo3bp1bL755ukSrVtuuWUcc8wx0a1bt2jRokVhCpIkW3YlqRriWv9jx46NO++8Mx588MF477330v0rrLBCCrvffvttvPDCCzFgwIB0vySpYrbsSlI1RGnCs88+GxdccEE0bdo0dtlll2jbtm2sssoqqS73o48+isGDB6fg26VLl1+17M6aNSu1BE+YMCG1BvNTv9RSS8VKK60UjRs3jgYNGkStWrVS6/HUqVNj9OjRadwZM2ak++vVqxdNmjSJRo0aRZ06ddI0Ro4cmWqDCeJLLLFELL300rH22mvHiiuuGEsuuWRhziWpejHsSlI1w8/yoEGD4swzz4wvv/wyrr766ujQocOvAuX06dNTWP3mm29+FXYJpddee21q/f30009TQF155ZVj2223jcMOOyw22mijqFu3bvzwww8xdOjQuP322+OVV15JgZfXoUzipJNOSq9LqH3nnXfimmuuSS3MTJvnEsKPP/742GGHHVKIlqTqyDIGSapmCKCff/55vP/++7HrrrvGOuusk1pXy6Oltn79+oX/fonWWR479NBD44Ybboibb745DjnkkOjfv38qi3j33XfTeBMnToyLLroovv766xSC77333rj11lvj2GOPTa22tOAOHz48TWPSpEnxpz/9Ke6+++64/vrr44gjjoiGDRummmFJqq4Mu5JUzXBS2vjx41NrbLNmzVKpAuG1PO6r6H4QdPfcc8/UMvu73/0u2rRpk3ps2GmnnWLEiBHxySefpPF4DcIsLblbbLFFGhifsglafwmzzA8lEeuuu246IY5WZKbXvn37aNWqVZo/SaquDLuSVM3QskufuQRZgmRFrbrzgnKIV199NR544IG444474qGHHkpdk1HvS0suKFnYYIMNYsyYManV9/nnn0/hlzKF5ZZbLrUe85egS0imjpiT4iiN4LnU9FqvK6k6M+xKUjVDeCRkElY5eWx+LxSR9eTQu3fvNDz++OPx1FNPzQ6yX331Var3BWG6a9eu6YS1N954Ix577LF49NFHo2/fvikUc2IaJ7TtvvvuqVyBWmLG6dOnTzzxxBMp9GbTkqTqqPZ5pQq3JUnVAC251Ow++eSTqUcESgUqOgEsO7+YMgNqcilB2GSTTVIopW/ec845JzbddNM44IADUqCl/pfyBgIq49G7Ay24lCtss8026bUIt/TpywlrjLvWWmulVl1afymJoNyB1yP0EqSZV05Uo9xBkqojW3YlqZqhVZfW1A033DC1yFJ6QGtteXQTRrlDefSWQAsuXYJ17tw5OnbsGM2bN49VV101lS9QJlEeXZrRq0L37t3j0ksvTcGYadC6CwI04xB4TznllDjrrLNSDTBlDdQXS1J1ZdiVpGqGWl1aS+ntgBIGWm2puX3rrbdSV2S0+r744otx3XXXpZ4RysvqbWmBJaxychn1ts8880y89NJL6YIUyLotu+eee1K3Y5Q3UDZB92PU8NJqS/Cmf116aRgyZEgKy99///3scRakpliSqoL97EpSNURLLmGyZ8+e8fbbb6cAzMlglBZk/eMShDfeeOPUwlq2n9011lgj9Yt7/vnnx7LLLptadOkrl+fQSky/uvShSwsttb2XXHLJ7ItO0NUYrcX01rDHHnukaVPaQFkDj1FPzLzQZRlBeeedd06tx7ymJFVH1uxKUjVE2QBBldpagiotrrTqEk65TcvtVlttFdttt106uWzYsGGpOzAuKMHFIyhhIBTTAkuLLVdUo7V4++23T/e3bt06lUlwP1dP44ptTJ+WW0It0yXs0scv4Td7/IsvvkghlxZdan733XffVE/McySpOrJlV5IkSbnlrrgkSZJyy7ArSZKk3DLsSpIkKbcMu5IkScotw64kSZJyy7ArSZKk3DLsSpIkKbcMu5IkScotw64kSZJyy7ArSZKknIr4/7isWWaR107IAAAAAElFTkSuQmCC;" vertex="1" parent="1">
          <mxGeometry x="434.19" y="560" width="236.93" height="190" as="geometry" />
        </mxCell>
        <mxCell id="fSu_uZtvP68bl21nm0Wx-6" value="ORAL cancer Microscopic Dataset Distribution" style="text;html=1;whiteSpace=wrap;overflow=hidden;rounded=0;" vertex="1" parent="1">
          <mxGeometry x="270" y="530" width="340" height="30" as="geometry" />
        </mxCell>
      </root>
    </mxGraphModel>
  </diagram>
</mxfile>
